/* XPM */
static char *_55167_removebg_preview_fotor_bg_remover_20240315205421_resized[] = {
/* columns rows colors chars-per-pixel */
"64 64 216 2 ",
"   c #1D1D1E",
".  c #0E3404",
"X  c #113606",
"o  c #123B07",
"O  c #15350A",
"+  c #153D09",
"@  c #183A08",
"#  c #1A3C0B",
"$  c #1F2A1C",
"%  c #1A3413",
"&  c #1B3A13",
"*  c #243B0A",
"=  c #333E0C",
"-  c #202A1E",
";  c #223A1B",
":  c #233B1B",
">  c #1F1E20",
",  c #201F22",
"<  c #232325",
"1  c #262A27",
"2  c #262629",
"3  c #28272B",
"4  c #2B2B2C",
"5  c #332E22",
"6  c #302F2F",
"7  c #253522",
"8  c #2A3D23",
"9  c #2C332C",
"0  c #2E3A2B",
"q  c #343B25",
"w  c #32322E",
"e  c #2E2E31",
"r  c #302F32",
"t  c #2F3033",
"y  c #333334",
"u  c #383736",
"i  c #353C34",
"p  c #3A3937",
"a  c #353639",
"s  c #38373A",
"d  c #37383B",
"f  c #3B3B3C",
"g  c #403F3D",
"h  c #154007",
"j  c #164109",
"k  c #1A440B",
"l  c #1D4B0C",
"z  c #1E5B0A",
"x  c #1E4311",
"c  c #28440B",
"v  c #214D0D",
"b  c #38490D",
"n  c #23530E",
"m  c #255A0E",
"M  c #2A580F",
"N  c #3A560D",
"B  c #264716",
"V  c #264D13",
"C  c #265212",
"Z  c #2A5413",
"A  c #275B10",
"S  c #2A5C12",
"D  c #315A15",
"F  c #355A15",
"G  c #27650E",
"H  c #2E7C0F",
"J  c #2D6412",
"K  c #2D6A12",
"L  c #316514",
"P  c #326C14",
"I  c #346219",
"U  c #39691B",
"Y  c #357315",
"T  c #397517",
"R  c #357B13",
"E  c #3A7B16",
"W  c #37701E",
"Q  c #3D711E",
"!  c #3D7C18",
"~  c #2D4524",
"^  c #32442B",
"/  c #364532",
"(  c #394234",
")  c #3E423C",
"_  c #3B7420",
"`  c #434A0B",
"'  c #594F08",
"]  c #46510B",
"[  c #4F5A0D",
"{  c #53520C",
"}  c #5A570A",
"|  c #475410",
" . c #575C11",
".. c #7A5E0A",
"X. c #695712",
"o. c #5F660F",
"O. c #4D6B12",
"+. c #457812",
"@. c #65650D",
"#. c #7A640C",
"$. c #6C760E",
"%. c #71730F",
"&. c #666A13",
"*. c #7E6217",
"=. c #6C7512",
"-. c #787A17",
";. c #564825",
":. c #56532C",
">. c #42413E",
",. c #4A4738",
"<. c #564E3D",
"1. c #705E2C",
"2. c #427B25",
"3. c #3D3D41",
"4. c #403F42",
"5. c #3F4044",
"6. c #434343",
"7. c #484744",
"8. c #454944",
"9. c #4A4946",
"0. c #454549",
"q. c #48474A",
"w. c #47484D",
"e. c #4B4B4C",
"r. c #514E4C",
"t. c #53514E",
"y. c #5D5849",
"u. c #4D4C52",
"i. c #4D4D5A",
"p. c #514F53",
"a. c #4F505A",
"s. c #545252",
"d. c #5A5654",
"f. c #595854",
"g. c #54535C",
"h. c #5A5659",
"j. c #5A585C",
"k. c #635E5D",
"l. c #565662",
"z. c #5C5B63",
"x. c #5C5C6B",
"c. c #645F63",
"v. c #676469",
"b. c #666471",
"n. c #746D71",
"m. c #88680C",
"M. c #8F700F",
"N. c #947B0E",
"B. c #8A6A14",
"V. c #946E11",
"C. c #8A7913",
"Z. c #957414",
"A. c #9C7414",
"S. c #A57B18",
"D. c #AA7F20",
"F. c #31810F",
"G. c #348211",
"H. c #3C8416",
"J. c #388A13",
"K. c #3E8119",
"L. c #42851A",
"P. c #448B1B",
"I. c #498F1C",
"U. c #548F1B",
"Y. c #45921B",
"T. c #4A941D",
"R. c #4C9B1E",
"E. c #4EA01D",
"W. c #51A31F",
"Q. c #4E9228",
"!. c #54A521",
"~. c #57A922",
"^. c #59AD23",
"/. c #5BB324",
"(. c #6DAE3A",
"). c #7ACB49",
"_. c #99820F",
"`. c #87871A",
"'. c #998714",
"]. c #96961C",
"[. c #A28C0D",
"{. c #AE990A",
"}. c #B4871E",
"|. c #A79B1D",
" X c #B9A61C",
".X c #8F9420",
"XX c #B58522",
"oX c #B88722",
"OX c #BA8922",
"+X c #BD9020",
"@X c #80B53B",
"#X c #A8A822",
"$X c #B3B627",
"%X c #C0941F",
"&X c #CEB30D",
"*X c #C6A816",
"=X c #C0B623",
"-X c #D9C20B",
";X c #DDC61D",
":X c #EBD80C",
">X c #F0D70F",
",X c #F2DC0D",
"<X c #E8C516",
"1X c #EBCC13",
"2X c #E5C619",
"3X c #E2CA1D",
"4X c #EED311",
"5X c #F4E40A",
"6X c #F7EA08",
"7X c #F9F106",
"8X c #CDC828",
"9X c #D4CA25",
"0X c #DCCE23",
"qX c #D9D127",
"wX c #D6D32A",
"eX c #80CF4A",
/* pixels */
"s.j.l.j.g.z.g.t w.z.g.v.e.y 7.r.s.h.v.n.n.c.e.z.j.7.6 e.c.v.v.>.p.n.n.v.v.v.z.4 q.x.g.z.u.4 3.q.p.g.x.b.b.x.i.x.l.3.2 0.l.l.j.3.",
"u.z.b.b.j.g.s.4 f s.e.q.6.4 7.e.p.s.e.t.s.g.c.n.d.7.6 7.d.t.r.g 7.k.n.v.s.s.u.u s q.q.q.6.4 3.0.q.q.0.6.4.3.i.l.0.a 3 3.w.w.5.y ",
"5.6.w.u.w.7.q.y r 7.e.s.e.y p 7.9.7.>.f s 6 p 7.7.p 4 q.k.h.9.g 4.7.e.t.t.9.e.i 4 6.e.t.e.y f 4.0.4.f a a y u 6.3.y 3 0.i.i.0.3.",
"f 0.5.5.q.6.7.y 4 6.r.r.q.r u g g p p 6.6.g p >.7.g r p.k.h.r.g f e.7.6.8.6.6.y 1 >.e.e.7.r a f u y y 3.d a y f 3.a e 4.w.w.5.t ",
"t f 3.d f d y , , y p 4.p < 4 4 4 4 4 f u w 6 y y 6 , y g g >.y 3 p f p p p e   > e u s y , 3 4 4 3 4 t e e 3 4 4 2 > 4 y 3.y e ",
"1 4 e y e 2 4 y r y 3.p y 4 2 4.s.q.q.>.7.6.1 g g 3 r r 6 6 y y y r u g s < y d p s 3.3.a r 4 3.a.w.w.5.w.u.2 3.0.e y t t t t 3.",
"6.6.w.j.u.4 u 0.0.7.e.6.6.0.u q.h.s.r.e.e.p.u h.k.9.g g g g 7.9.9.9.r.k.h.w y 4.6.q.w.0.4.4.y 4.i.u.e.6.0.w.e w.u.3.d 3.f 3.3.0.",
"6.8.e.r.0.3 y d 4.6.0.6.4.4.y p u.t.s.e.7.0.r 4.9.>.p 7.7.>.g >.7.r.t.r.6.4 y f 6.6.6.6.4.3.y y e.e.u.w.0.3.e a 4.3.y 3.3.f d d ",
"6.9.e.q.3.y y y p 3.3.6.3.p e y e.t.u.e.e.6.4 p 6.7.p p >.g g g >.r.r.9.g u s r p u 4.4.f a 4 r w.5.u.5.5.3.3 t 3.4.3.t 3.3.a a ",
"f >.>.f p e a 4 4 y s d y e < 4 f 6.6.6.5.u < u p 3.p 3 p g g p g ,.g g u 6 u 3 4 4 y u r 6 < 3 d 3.3.3.3.a < e y a t 2 e y u u ",
"y y e 4 4 < 1 2 > < 4 e r 4 3 < 4 y 4 y u y < y a a r , 1 y y w r r 6 6 6 , 3 4 , , e r r 4 4 < e e 3 4 t 3.4 a 3.a e , e y y e ",
"f q.w.q.a y u 4 a 6.w.4.d 4 q.6.6.p 4 < q.c.n.n.h.9.7.>.r.r.r.p g d.d.r.g g 4.r f u.u.0.4.4 0.0.5.d 3 2 5.i.x.x.i.u.3.0.w.u.w.a ",
"p.e.e.q.6.6.9.w r w.s.u.q.s 7.7.6.>.p 6 6.r.g.a.~ V ^ 8.s.s.t.f 4.r.9.9.9.9.9.w r 0.u.u.0.s 0.6.5.) a e 3.5.i.i.w.0.5.i.u.i.0.a ",
"p >.6.6.6.6.6.y r 3.w.w.q.d p 6.7.6.u 4 5.0.e./ L L.L C ^ ) 8.u g g 7.7.7.7.7.w r 4.q.q.0.f a 4.5.5.y 4 3.3.5.5.5.3.5.5.0.3.3.y ",
"y f 6.6.6.6.3.e y 3.3.3.3.u 4 s 3.4.9 < ) 3.( C P A J A P C 8 9 w g 9.7.7.4.g r a f 3.3.f y 4 r a p 4 < 3.3.3.3.3.a a t t a u e ",
"4 p p f f 3.y < 2 e y y y r < 4 2 2 >   u d B L G R.~.K K H.Y V ; w g g g g w , 2 r r r r 4 2 2 < <     3 3.t 3 2 2 < 3 3 3 4 > ",
"a p p 4 e d a 4 e u 3.u 1 d 4.y y 6 u p a ; Y J Y./.^.J R F.G.H.Y V ; 1 y 5.3.p f 0.q.i - a 0.d a y 3.3.s y 3.0.3., 3.l.l.4.4.4.",
"e.q.9.y p 6.q.s.r.s.s.u.a 4.6.q.0.g 9.7.0 L L.z L.R.P J P.K.R H F.H.Y C : ) t.f.s.r./ Z C 0 3.q.3.3.0.4.3.a 3.3.3.e w.l.i.w.u.u.",
"3.6.f y u 3.6.e.q.9.e.q.y y 6.q.f g <.,.Z L.H R S m Y E S v n J H.H G.H.P Z ~ 9.8.B J Y P S B ) d 3.0.0.0.0.3.e 2 > a 3.w.w.4.3.",
") f f y y p 6.8.6.>.6.7.u y 6.6.p ,.Z.N.$.+.G.T.I.I.E v S Q U C Y I.R z A S P C B J A J P A P Z 7 u 0.6.0.q.5.3.3 > a 3.4.4.0.4.",
") f f t y p f 6.4.4.g g r r s a w B.&X1X*XN.$.U.T.I.n I 2.U _ S J L.A H.E.Y L n + C L.~.~.P G H.P B i f ) 3.3.y r < y s 3.3.s s ",
"y y t 1 y u p a r r y y < , 3 2 X.&X5X>X1X<X*XN.=.O.C Q U 2._ C T P T /./.R l . . J R.T.Y m R H G.E A 7 1 4 t t e , r s 3.a y e ",
"t f a a a d 3.3.u.3.< r 0.u.5.` {.5X,X>X1X<X<X<X*XM.&.O.+.U S C P.J K.~.L.k . k + l Z n S T T T R H H.P x - 3.6.q.4.6.q.p.e.4.a ",
"y d d a d 3.5.3.0.f 4 u 0.u.<.'.,X5X,X>X1X<X<X<X3X9X XZ.&.N A K.T.H.m S n o o n v l L L C v V l C R H G.K.S ~ ) e.e.0.0.7.0.f a ",
"t a d y t 3.3.3.t 3.2 a 6.,.B.:X7X6X5X>X4X1X<X2X3X3X0X0X XC.=.U.T.H.H ! n . X n C k S # V F U U C J K.G.H R W V ( q.6.5.8.) f i ",
"4 y a t 3 2 2 4 t t 2 4 p ;.{.7X7X6X5X,X>X1X<X<X2X3X0X0X0X9X X_.$.+.P.G X o . k X + # V D F F U Z J P.W z m A K S B t t t y u r ",
"1 t t t t 3 > > 1 t > , 4 q @.[.-X6X5X,X>X1X1X2X3X3X3X0X0XwXwX8X X_.o.h k k . . x # = B Z D F Z l ! J K R.^.Q.z W j 9 y a a a a ",
"i.i.i.i.a.l.l.3.5.j.w.5.>.B H.+.$.[.&X>X>X4X1X<X2X3X3X0X0XwXwXwXwX|.#.b l v h h x | { ` b V B v Q ! C !.^.W.G x o O 0.u.u.w.w.w.",
"e.u.u.w.3.5.i.3.t t.t.t.~ Y H.F.R.O.-.[.&X1X1X<X2X3X;X0X0XqXwXwX=XM.M.} G m . X = |  .&.} ` F +.L.L.A J K l . . j j 5.5.0.0.0.0.",
"0.0.5.5.3.3.3.t 9 8.q./ J L.F.R.!.G (.@X`._.&X<X2X2X3X0X0X0X0X8XN.V.S.#.S o + # b |  .&.-.-.@.O.+.H R Y A o . j n k 5.5.3.5.5.3.",
"3.5.5.5.3.3.3.3 4 6.( C L.G.Y.!.!.L.W ).).(..X[.*X2X3X;X0X0XqX'.m.D.}.M.c k # b | |  .=.`..X].`.@.+.E A o . . k A & 3.3.3.3.3.3.",
"y t y a 3.3 2 > < y B E G.J.~.!.!.W.R W (.).eX@X.XS.*X;X0X0X Xm.D.}.}.A.b @ = b |  .&.-..X].$X$X].#.c X j o . o o . 3 3 3.3.3.t ",
"f 5.f f u 5.f < 2 : W J.G.W.~.!.~.!.R.! L _ Q.Q.L.| %._.*X*Xm.S.%X}.%XS.} * ` ` } &.-.`.].#X$X#XB...` l l + . + x 8 1 g j.g.u.f ",
"5.s.g.g.u.u.s.y $ L K.G.R.~.~.!.T.P A A E L.! E K.R.Y.+.%.m.V.}.oXoX%X}...= ` } @.-.`.].#X#X'.m.B.V.] A C X . x ( 3.4 >.w.q.5.u ",
"f 6.w.e.q.8.0.( C E m G R.^.^.Y.C S U U V P.!.!.!.E.F.H.T { S.oXoXOX%XA.{ B = { -.`.].#X|.C...V.}.A.[ l o o ; 7.7.u 4 3.e.0.0.a ",
"u 6.5.6.q.6.5.B K A K.K.J !.!.S I _ _ _ A E ~.!.!.J.H.H.k b V.OXoXOXS.X.* # B ` } `.|.'.m.m.S.XX}.S.b h * q g ,.9.g w q.e.e.6.u ",
"t f 5.3.3.3.8 K G Y./.~.G !.P.C _ _ Q Q C L.~.~.Y.F.L.m . n #.}.XX}...b V D L S N @.#...B.D.XXoX+XS.] * 0 p w g p w > w ) 3.f y ",
"4 4 e t t 7 l E S ~.^.E R ^.K.C Q +._ D S !.~.R.F.P.K . l M @.S.}.m.b M F I m J P Z } Z.XXXXXXOX+XS.:.6.q.7.4 u g 4 4 y y y y a ",
"6.) 5.6.5.t O l j K J z Y.^.R.z S I V S R.!.!.J.H.Y + k l J ] V.V.{ M D J A K L v X { S.XXXXOXOX[.*.y.t.t.r.y r.p.7.>.>.>.g >.6.",
"6.6.e.e.5.e % j o . n E G.J.R.Q.Y P K.L.K G K G.L.l h v J l c m.} Z S M A L J @ O k } S.oXXXD.V.1.y.s.f.t.r.6 >.r.6.p 7.6.>.>.f ",
"6.6.8.e.5.t ; k j . j l K R G.J.R.^.I.J Y.R.A _ m o l m n + c ` b Z n S L v O @ k M @.S.XXS.*.;.r.s.d.d.t.7.6 g 7.7.p p 6.g f f ",
"f 5.5.5.p y 9 O k o j j j l J G.F.J.G Y./.!.G G . l m J o l k c v k D J k X k v A v ' S.A.X.5 3 6.7.,.7.7.p < p p g u 2 u g p u ",
"u y y t 4 2 - + l o . l l k j l J R A R.!.Y l + k n J h k k Z L Z c C o o k n S j + ' ..;.6 e 5 y y y y p y < 4 s s y < 4 u u 4 ",
"u u u u u t t & j o . k l l n k j l l n A S k + v J l k j v Z C k k X + l n n o j x :.<.4.4 q.9.>.g 4 2 7.e.s.s.h.r.7.7.r.s.r.f ",
"3.6.6.6.6.) 6.0 % o . k l l l l l k h j G C o l A n + k O # c k O X k v S k X k : ) p.s.e.p r.9.9.7.g 6 9.t.f.f.d.e.e.d.d.s.9.u ",
"a f 6.6.6.5.6.a 2 9 & o k l l l l l l + + o l k A + l X O # k O + k n m + + & ; y 6.w.e.e.>.g 7.9.<.g 4 7.9.t.e.e.6.q.e.q.q.6.u ",
"y p 6.6.6.4.d a 4 3.3.0 & j k l l l l k k n k l + k @ O O O @ + # n v X j B ( y y 6.) 6.6.u y p 4.g 6 - 6.6.9.6.>.f f f d 3.f y ",
"t u d f d f a 4 , t t a t 9 % j k l l k j l G k j + @ # @ # k + k @ + j ; u y < < u u u u y 4 4 4 2   > p f f y 4 4 2 e 4 e e < ",
"y t u e 1 d y e 4 y d a e 4 t 0 ; + k k j v v h l O O # + # C v o h B - 6 4.6.p u g 7.4.4 y 4.g g y 4.4.g g g r.4., 4.l.i.4.4.4.",
"6.6.6.d t 5.q.u.e.u.r.e.d t 3.0.) 0 ; j k l h l 7 7 % O + k j o j : >.p p 7.r.f.h.s.d.r.s g 9.r.7.g r.r.r.g g g 4.r r.c.h.r.r.r.",
"6.) f p t f 5.5.w.8.w.0.u e 3.q.5.f 6.( & k l & 4 < y 8 # j j k 8 ,.7.p p >.9.t.r.r.r.r.u u 9.r.4.<.r.t.r.r.4.g 4 , g 4.p.e.4.q.",
"6.f f a 1 a 5.5.5.f 6.6.d 4 3.3.a p 6.q.0./ 8 d 4   y 6.f : B ( 6.>.>.u w g >.e.9.>.7.9.s u 7.4.g g 9.r.t.t.r.4.6 , g 4.4.q.e.4.",
"6.f a y e d 3.3.3.3.d 3.a 4 a a e s f f 6.6.3.3.a < y 3.6.f >.6.>.>.>.y u >.6.6.>.6.>.7.u r g u 6 g g 4.9.4.4.g y < s g 4.4.g g ",
"3.a 3.t e a a a a a y y 2 , 2 < , r a a y e y y e , 4 p p p u u u s s 4 y p p p p u y w , 4 4   , u g g g y y g y < y g 4.g u r ",
"u a y t t a 3.a 3.d , 3 a a d < 3 d 6.0.d 3 u >.6.f ) 6.w.e.6.u y 3.p p f 6.6.3.0.f < y g 0.4.4 9.y.k.d.g 5 g 9.r.7.9.r.p.r.7.s ",
"y a 3.t a 3.3.3.3.d e e 3.0.0.y y 3.6.0.6.a u 6.w.r.q.9.e.9.>.p y f 3.d d ) 6.6.g p 6 p 9.q.7.r g r.r.r.4.g g r.t.d.9.9.r.9.4.u ",
"3.t 3.t 3 3.3.t a a 3 t 3.3.3.4 r a d d s r u 6.e.e.9.6.q.8.6.p 4 d 3.a y u u u u u 4 g 4.4.f r g g g g p 5 g 9.r.r.7.7.7.>.>.u ",
"3 e t 3.3 , , 3.t t 2 4 a a t > e r a y y 4 r >.6.) u u p p p y < u u u 4 < 4 t u w 2 r f u 6 < 4 w u w u 3 u 6.>.g y y u u u y ",
"t e 3.t t 3 2 > 2 e < < e e e > 4 2 < 4 e < < 4 1 4 r 4 e y y t 4 y a d d y 4 , 4 u 4 6 y u r r 6 4 < g u 4 5 4 < y u u u d a u ",
"i.3.5.5.3.i.5.3.e w.0.6.4.w.w.u.w.5.4 y s p p y < 4.w.w.q.0.q.q.e.e.w.e.u.u.u.u g d.r.r.r.r.p.r.r.g w g 9.9.>.u 4 7.p.p.w.w.q.q.",
"5.i.5.5.3.3.3.3.4 6.u.e.u.0.4.6.3.f u y y p f p y 6.u.u.w.w.w.w.w.u.w.w.5.6.q.a u t.t.t.t.7.7.7.g g u u p g >.p y w.u.i.w.q.0.0.",
"5.5.5.5.3.3.3.t 4 4.q.w.0.3.6.6.6.f t 4 y y f d 4 3.6.0.0.0.0.0.6.0.6.q.5.) 6.y 6 9.r.9.7.7.9.r.7.g w w p f >.p e 5.0.5.q.q.0.5.",
"3.3.5.5.3.3.s r < f 4.3.3.3.6.6.4.3.r 9 y y y a 2 3.3.0.3.0.0.4.4.6.4.0.6.d d e 4 9.4.4.,.7.4.q.7.g 6 g u p p y e 3.3.3.5.3.3.3.",
"3.3.3.3.3.a 4 e , d 3.a a 3.3.3.3.s 2 4 t t a t < 2 3.a 3.3.a a s s a 3.3.e < < , s s y y a a 3.s r , 6 y y a e > 4 3.3.3.3.t a "
};
