/* XPM */
static char *vector_illustration_medieval_door_prison_260nw_491510299_split_fotor_bg_remover_20240226165114_resized[] = {
/* columns rows colors chars-per-pixel */
"64 64 206 2 ",
"   c #1D1C1E",
".  c #1F1F21",
"X  c #201F22",
"o  c #242325",
"O  c #282725",
"+  c #262629",
"@  c #282729",
"#  c #27282B",
"$  c #2B2B2C",
"%  c #302F2E",
"&  c #31302F",
"*  c #2E2E31",
"=  c #302F32",
"-  c #2F3033",
";  c #333334",
":  c #383736",
">  c #3A3937",
",  c #363639",
"<  c #38373A",
"1  c #37383B",
"2  c #3B3B3C",
"3  c #463F37",
"4  c #403F3D",
"5  c #563C30",
"6  c #623D2B",
"7  c #3F403F",
"8  c #43413E",
"9  c #4B443E",
"0  c #52443B",
"q  c #79442D",
"w  c #684439",
"e  c #74483A",
"r  c #3D3D41",
"t  c #403F42",
"y  c #3F4044",
"u  c #444343",
"i  c #494644",
"p  c #4B4946",
"a  c #45454A",
"s  c #49474A",
"d  c #47484B",
"f  c #4B4B4B",
"g  c #514C46",
"h  c #53464A",
"j  c #514E4C",
"k  c #5E5046",
"l  c #53514D",
"z  c #5B554C",
"x  c #4D4C51",
"c  c #4B4A55",
"v  c #514F53",
"b  c #5A4D51",
"n  c #504F5F",
"m  c #4F5050",
"M  c #545252",
"N  c #5B5553",
"B  c #5C5853",
"V  c #54535A",
"C  c #58575B",
"Z  c #5D5A5B",
"A  c #644543",
"S  c #68564B",
"D  c #755749",
"F  c #63545A",
"G  c #655858",
"H  c #635C5D",
"J  c #765C54",
"K  c #65615D",
"L  c #72635B",
"P  c #565562",
"I  c #595760",
"U  c #5C5B63",
"Y  c #5C5C6A",
"T  c #6A5760",
"R  c #625F63",
"E  c #6C5C62",
"W  c #666364",
"Q  c #6B6566",
"!  c #666468",
"~  c #6A676D",
"^  c #6D696C",
"/  c #776964",
"(  c #756169",
")  c #7A656C",
"_  c #736B6D",
"`  c #636271",
"'  c #6E6D71",
"]  c #726D72",
"[  c #7D6A71",
"{  c #767273",
"}  c #7A7575",
"|  c #7C787A",
" . c #8A4A29",
".. c #9D4D25",
"X. c #9F5126",
"o. c #9E522B",
"O. c #874D36",
"+. c #985737",
"@. c #A14F27",
"#. c #A15127",
"$. c #A4532A",
"%. c #AB562C",
"&. c #A7582C",
"*. c #AD592E",
"=. c #B15B2F",
"-. c #A25531",
";. c #AC5A31",
":. c #A45F3F",
">. c #B25E31",
",. c #AD633B",
"<. c #B66234",
"1. c #BA6536",
"2. c #BC6836",
"3. c #BC6738",
"4. c #BD6A39",
"5. c #B8703F",
"6. c #C16C3B",
"7. c #855944",
"8. c #945E40",
"9. c #896348",
"0. c #97654A",
"q. c #886A55",
"w. c #976B55",
"e. c #A76747",
"r. c #B56B40",
"t. c #BB7644",
"y. c #A57B5A",
"u. c #86736A",
"i. c #957566",
"p. c #826B74",
"a. c #846F78",
"s. c #88767A",
"d. c #817C7B",
"f. c #A37A67",
"g. c #CC7744",
"h. c #AB8157",
"j. c #B6895B",
"k. c #BB915B",
"l. c #8A817D",
"z. c #A18578",
"x. c #BB917B",
"c. c #DC874C",
"v. c #D2894E",
"b. c #D58D51",
"n. c #DC9355",
"m. c #DB9559",
"M. c #E58F51",
"N. c #E59354",
"B. c #E39858",
"V. c #C89A62",
"C. c #DAA666",
"Z. c #D9A669",
"A. c #DFA877",
"S. c #E3A76B",
"D. c #877F81",
"F. c #8E7C82",
"G. c #927D85",
"H. c #8A8483",
"J. c #8A8586",
"K. c #8F8A8A",
"L. c #928186",
"P. c #968589",
"I. c #918C8D",
"U. c #8E9192",
"Y. c #959393",
"T. c #9A9495",
"R. c #94999A",
"E. c #9A9999",
"W. c #A28A86",
"Q. c #A29396",
"!. c #A3979A",
"~. c #A39D9D",
"^. c #B9A08D",
"/. c #ADA39E",
"(. c #B5A49C",
"). c #9D9FA0",
"_. c #AA9EA0",
"`. c #ABA3A3",
"'. c #AAA6A6",
"]. c #B0A5A6",
"[. c #B3A5AA",
"{. c #B5ABAC",
"}. c #B9ADAE",
"|. c #BBB3B3",
" X c #BDB8B8",
".X c #C6A699",
"XX c #C4ADA6",
"oX c #C2B6B7",
"OX c #C4BCBC",
"+X c #D5C0B7",
"@X c #C8BFC0",
"#X c #C6C1C1",
"$X c #CCC4C5",
"%X c #D3CACA",
"&X c #D3CBCC",
"*X c #D7CFCF",
"=X c #DAD3D4",
"-X c #DCD5D5",
";X c #DDD8D7",
":X c #DFD8D8",
">X c #E6D3C9",
",X c #E0D8D4",
"<X c #E2DBDC",
"1X c #E6E0DF",
"2X c #E6E1E1",
"3X c #E9E3E3",
/* pixels */
"C V ! x & s Y C U U u ; p f M C R ~ ] ] C v U Z j % 4 Z W W Q i f ^ ^ ^ ~ Y ~ C $ a Y P C U u $ u d c V I ` ` ` P n Y P c + ; v ",
"Y V V x $ 2 v f f p 7 $ f p j M j j v N v ~ ^ N p = 2 j B M f 2 a Z Q ^ W M x M ; , d s u u 2 # r a f f a u y t r n C a 1 # ; u ",
"f f u f ; # s p f l a $ 8 u f u u 4 2 : = 2 i i > $ , Z H M p 2 t u f m l f p f : o u p M l u * r u u r r 2 ; , - , r u , + , n ",
"a d u u ; O 2 f M l u # 2 8 2 2 < 4 u 4 2 > 8 i i = u Z H N f 2 2 p d i i d u i ; o 1 p l f u $ , 2 , , ; 1 r 1 1 , 2 r 1 * 1 a ",
"1 2 2 ;     ; : 4 2 = . $ % $ $ # : 2 : ; % ; ; % X O : 8 u 8 ; @ ; 2 2 : 1 ; -     $ ; : 2 $   $ $ $ # o ; - - * # * * $ . o * ",
"; # o - ; ; ; 2 1 , * $ o u V f f u 2 f 2 O 3 4 $ % ; $ ; $ ; ; ; ; % 2 7 % o ; 1 2 2 r y 1 ; ; + r n x f a r c t o r a ; * ; * ",
"C y # 2 u u a x f u u u ; j Z M M f u M f ; H H j u 8 8 8 8 i i i p f B W f $ 1 y u a f a u y y ; r c x x d y d u * a c a 1 r r ",
"f r o ; 1 r a u u u u 1 ; 1 f l f M f f u $ t p u 2 2 i 8 8 8 8 i j l z p 7 o ; 2 2 u a u u u 2 * , x f d x a a r * r r r , , r ",
"u 1 ; ; ; 2 2 r r t 2 < * ; f f m m f d : $ 2 u d u & u 7 8 4 2 9 g j j i : 2 , ; : 2 1 2 2 < ; + * u d d d a y , # - r r r * r ",
"2 ; ; , # $ - , 1 , ; $ o # 2 u u u u y ; o ; < 2 7 ; l K H H j > 8 4 > : & $ ; $ = r j Q | } _ C d r r r 1 r r * X * * , , # o ",
"$ + o # # . o # ; * * $ @ o * ; ; $ ; 2 * o ; ; ; i ^ u : 2 Q H.a m H Q { } d.I.`.'.OX&X<X<X<X&X{._.{ - $ # - 1 , * , r r , # X ",
"r ; ; 2 # ; u d u r ; * s u u 2 &   ; M W ] } R M Z d._ } H.T.| W |. X+X*X-X,X<X2X3X3X2X<X<X<X$X}.].H.2 -   - d n Y Y n a a r a ",
"p u i i - * a c x x r 2 s p i u 2 $ 2 d M V ' {.{.'.|.+X X|.[.K.J.`.|.}.].`.{.}.|. X+X#X@X X|.{.].I.} | | { R x c c c c t r c c ",
"a u 7 8 * * r a f f u , 2 u i u 2 + : a a f U.<X2X<X;X;X;X-X-X=X-X*X*X*X$XOX%X$X$XOXoXoXOX@X$X$X&X%X&X=X-X=X*XE.c y r r r r a r ",
"u a y 7 * * r r r r r ; $ : 2 4 2 . ; 2 2 a R.;X:X2X<X<X<X<X<X<X:X:X:X<X<X=X;X;X-X-X-X;X-X;X:X<X:X:X;X;X=X:X2X=X| r r r - r r - ",
"2 2 2 ; o o * ; ; ; ; $ + # + 0 9.6 5 0 9 2 R.:X:X2X2X|.!._.{.|.@X$X&X*X*X=X-X=X-X-X-X-X-X:X:X:X:X-X;X:X2X2X;X;X'.1 # # + + . + ",
"o , 1 ; $ % 1 r 1 ; O u 2 ; & 0.N.>..... .q 0.x..XOXoXp.F F ( / ) _ [ [ } s.d.l.s.L.L.L.L.L.L.H.F.F.F.Q.<X<X-X-X@XV a t + r c P ",
"% 2 u p l m m M M d - u d d i h.M.&.#.%.X.&.$.$.o.-.:.+.J G Z G B N Z M b H H K Q R H H R T N H H F E [ oX<X-X=X&XQ r r # r n P ",
"- 2 7 d m f d f f 7 * 1 i p u h.c.&.$.%.$.%.*.*.$.$.%.$.w.M p i 9 i 9 7 ; 8 9 g l l p l v u % 2 s v F [ [.<X-X-X=X} = # . * r t ",
"O : 2 y u 8 7 7 p y $ > u u 2 h.M.$.$.*.$.*.*.;.%.%.;.%.i.v p p i 8 9 4 $ 2 8 8 p i 8 8 p i % 2 t t N [ ].<X-X-X=XU.r * . * r r ",
"$ 1 2 7 7 7 7 7 7 7 # - 7 : : k.m.$.*.>.&.*.*.*.$.%.;.-.u.p p 9 8 8 8 > & 7 8 7 9 9 u 7 8 2 $ ; < : b ) !.<X-X-X<XE.1 - . * r , ",
"# ; 1 1 1 ; ; ; ; *   + o . % V.n.#.>.3.*.>.=.*.%.O.D 7.L > > ; & ; & & % > 7 7 : 1 ; % ; $ o $ @ o h ) Q.<X-X*X<X)., - X # , , ",
": 1 1 r r d a o # y d x 7   l C.n.X.>.3.<.6.2.>.&.O.A S / m i ; % i 8 2 7 7 y u a V f O $ u M V u @ b ) P.<X<X<X@X} u f u t a c ",
", 7 y y y a 2 $ & y d m i - l C.b.X.<.1.3.4.6.2.*.&.+.+.L p 9 > ; 7 8 2 7 8 u u 8 u 7 % ; i f f s ; b ( G.*X1X<X*X XH f f s u u ",
"- - , 1 ; 1 1 # - 7 y y 7 $ 8 C.b.X.<.2.3.3.5.<.;.;.%.+.B i 9 > ; 2 7 > ; ; > 7 > 2 2 $ ; 9 u 7 , - b ( G.:X;X-X-X*X{ a p u 7 u ",
"- o # $ - - ; + # , > > # + 9 C.v.X.1.4.3.e.i.7.-.;.%.e.k 2 2 ; O : 2 : ; O O $ ; ; ; O $ > 7 > X # b ( F.*X:X-X-X=XH.2 1 - - & ",
"- * # X . + ; o . # * - O o 0 C.v.X.<.6.,.z.`.{ e ;.%.8.u ; : ; % 2 2 1 2 1 : $ o $ 2 $ $ & : > * , h ( F.%X:X-X-X-XK.o # - ; , ",
"n P Y P 1 1 Z f i i p m l B L S.v.#.1.2.0.Y.R.R./ +.$.8.Z M f l M C M V C C W ^ 4 8 H z l l l l v T F ( F.@X<X-X-X:X'.- y x x x ",
"y y y n 1 * m l m l l 7 i y z C.v.#.2.5.i.U.R.R.[ O.*.0.M f f f l M m f d u p M : : z z B B k i p g b ( a.$X<X-X=X;X{.; y x d d ",
"y 1 r r * $ u p p p 8 y p p B C.v.$.2.r.l.R.R.U.^ w *.0.M d d f d p d p i 8 i u & ; l l g g i i j j b ( p.OX<X-X=X;X).* y y y y ",
"y r 1 r # + u y 7 7 y 7 y y z C.v.X.<.e.P.Y.U.U.] w &.0.M d u u 8 u a d p 8 7 7 # % g i 9 9 g i i p b ( p.OX1X:X:X%XW # r y y y ",
"1 , # # o . : , , ; , , : - 9 C.v.X.1.r.i.u./ L S 7.&.0.f 1 2 ; : ; : 1 1 1 O O o O : ; 1 1 > ; = : b ( a.{.*X;X1XE.a . # * * r ",
"2 2 u 1 o o a s u m : o $ & p Z.b.#.1.2.t.t.t.5.t.5.&.w.^ Z M 2 2 m d d a i m a O & v x s N 3 o : 8 b ( p._.@X=X<X=X|.I u + * f ",
"c f x M & # s d a p 7 + > u z Z.n.$.1.6.1.2.4.4.2.3.*.0.H l p 2 9 N B B l l N l : > p p g j i $ 9 j N ( p.}.2X-X=X-X-XL.u * ; f ",
"f d u d 2 o ; u f f i % : u l Z.n.X.<.6.<.>.6.3.1.2.*.8.M f f 2 7 p g l l m l l 2 O 9 g N B g ; 9 j F ( p.[.2X-X=X-X<XT.2 $ ; d ",
"d u u p 2 o ; i m g d % ; 7 i V.n.$.<.2.2.=.3.4.1.1.*.8.B g p : 2 g f d p p g g 2 O 8 g z N g % 3 g b ( p.[.2X-X-X-X<XT.9 % 2 f ",
"2 2 2 1 #   * 2 7 y : o $ & ; k.m.&.<.<.3.>.3.4.1.1.>.+.j p u : + 7 u 7 7 8 7 ; o   & 3 8 9 ; . ; > b ) p.[.2X-X-X-X-XY.; . O : ",
"- * o # $ o $ ; 1 ; % o + $ f k.B.&.=.2.1.*.1.6.1.<.;.+.9 = ; ; % % & & ; & O ; ; % : 2 u 2 ; % @ > F ) p.[.<X-X-X-X-XY.; $ % ; ",
"u r $ ; r 2 2 a f u y y , 1 V j.N.&.=.2.1.>.1.4.3.>.>.+.S > 9 h p g g g p 9 % 7 8 i p l l p i i 4 t F ( p.].<X-X-X-X;XE.p 7 8 8 ",
"f u # * 1 r u a u y y 7 , - d h.M.&.%.2.2.=.<.1.<.*.=.$.S 8 8 t p g l B m 8 O > 8 u p l p p p 9 ; 3 F p.p.].3X<X,X-X#X} i > 7 p ",
"u 2 - - - , 2 r r y r 1 ; * u h.N.=.#.1.6.=.<.>.=.%.%.$.D t 4 4 8 g l l 9 8 & : : 7 8 8 i 9 8 7 = 4 F [ [ {.3X2X,X-X XK d 8 ; 8 ",
"2 1 $ , $ $ - , 1 , ; - + + : q.N.<...=.2.*.&.=.%.=.;.$.7.t > 3 7 8 9 8 7 7 & : O % & > 7 7 : ; X < F [ [ {.2X=X-X-X;XJ.2 8 $ $ ",
"% $ o # # o X # * - - * # o $ S B.2.#.%.*.%.$.*.=.%.O.J S t ; = & : 7 % O O o % $ o O % > ; ; & = 4 T [ [ |.2X=X-X-X:X~.2 ; # o ",
": ; % ; * $ 1 r r r ; + a t , S B.6...%.%.%.$.*.=.=.6 A D b i 4 & u 9 8 7 7 7 7 & ; u p d u ; * t b T [ p.@X<X;X-X-X;X|.Z d 9 p ",
"u u u u 1 + 1 s d d y - y u y S N.g.@.#.*.%.@.%.%.=.$.@.o.L p 2 7 g p p p p g p 7 % i m m m i > b b E p.a.$X<X=X;X=X:X XZ p l B ",
"y u 4 t , # 1 u a d a , ; r y k m.6.@.%.%.=.@.=.%.;.$.%.#.J p 2 ; 9 p 8 p p p p : % 7 p m m p 7 t b E p.s.&X:X=X=X;X:X$XZ u f d ",
"u y t r , # 1 1 2 r r 1 ; 7 u N m.c.@.%.%.%.@.%.%.;.@.$...7.p ; $ 7 9 9 p p 8 8 & & 7 7 7 u 8 ; ; b p.Q._.&X;X-X-X-X;X%XZ 2 7 1 ",
"r 2 1 , # X = a ^ K.~./.(.(.(.(.S.c.@.@.%.@.@.@.@.$.+.:.0.q.2 o o 7 7 7 7 7 7 & o o ; , > ; > - @ G oX%X%X+X$X-X-X;X<X$Xd + $ $ ",
"+ ; 1 ; * # - W '.&X,X,X>X>XXX.XA.M.&.X.o.:.e.y.f.z.W.P.{ l 2 ; ; > 7 7 + : y 7 2 2 2 u t 2 o 4 i s.}.}.oX+X X:X:X<X=X`.$ - c I ",
"+ ; u a f m m x m V m W l.E././.^.x.i.z.z.s.} Q f f U W V l M l p 9 9 8 & 7 i l N N N M l f = 8 h d.T./.`.~.K.K.K.D.Q M - y C R ",
"$ ; 1 u f f d y d i * - y y i y f l m f p 7 - * o # 2 f f p p i 7 8 8 8 ; 7 8 p l l p l l p % 2 p M j M K K l l f i ; $ o & u f ",
"$ * 2 r y y y 1 y y - - y 7 : 7 y a d f a a 7 -   # 8 u u d p d i 8 8 8 $ > 7 9 p i i i p u ; 2 p i : 8 p p j l j f i $   % u s ",
"$ ; 1 r r r r r 2 2 * * , , $ ; y 7 7 y a y 7 , + # 2 7 y u u 8 7 7 7 7 % 7 7 7 u u 8 8 i 2 $ ; 2 : % 4 8 8 i i i i 2 , o $ 8 2 ",
"# ; , - 1 - , - ; - . o $ o . % ; ; ; ; - - - - o o , : 2 : : : ; 7 : & $ ; > 7 2 : > ; ; # o $ $   o ; 2 4 1 ; * : 2 , o # 2 2 ",
"; - r r r r r + o - 1 r 1 . # 1 y a y ; + 2 7 y 7 : u u f f 7 1 # 7 7 ; 7 7 7 y y y y O O 2 u u 4 o p b G G p 2 $ i g j p i j j ",
"- r r r r r , * # 1 y a y - - 7 u u a u - > p p l f p f p p 8 : - 1 7 7 1 7 7 u y 7 7 - ; i f f u ; 4 p l j p 9 & 9 f l z l p f ",
"- - - r - r , * # 1 r r 1 * * , 1 r 1 1 $ : 8 f f f 8 d i i u 2 * 1 7 1 ; - : 1 : 2 2 $ ; u i 8 2 % : 2 4 4 2 3 $ 8 p l g p u i ",
"- # + # - - - * o , 1 , * o * * ; - ; ; # ; 7 u 7 > : : : : 2 ; + & 1 ; ; # + $ & ; ; # # ; 2 : @ o % ; : : ; & O : 9 9 7 : ; : ",
"r # # + . . = $ . # $ - # o # # + + * $ . O % o $ * % - - ; ; ; $ - ; , 1 , - # o # 2 & # % ; 1 = = ; $ o % > ; O % $ o - , > ; ",
"y r c y r # s u a y u f d s c t % % 1 1 2 : - + : d d d d d a a f f f m f f m m 2 ; N l l g l m f j j p % > 9 p p 8 ; O y m M m ",
"r r r y r # t x f f f u t u 2 2 1 - - : 1 2 1 * 7 x m x c a d d x c f f a y a d , = j M M z f i p p 9 8 : & : 4 7 7 : * a f m f ",
"r r r r , o r d a a u t u a u 2 ; * & ; : 1 , * 1 y d y a a a a u u u a a 2 7 7 ; $ p p p p i i p j i 8 : & : > 2 8 2 $ y d a d ",
"r r r r , . 1 t u r r r t r u u : # ; ; ; ; , # , r y y r y u t r u u a d y 2 2 * o p u u 8 u u p p d 8 ; ; 2 : : 2 , # r r y a ",
"r r - # # . , r r 1 1 r r r r r # + & & - 1 - o + , r r r r , 1 1 1 1 1 1 1 # O o . 1 ; , ; ; , , 1 1 ; o $ & ; & : * . o r , 1 "
};
