/* XPM */
static char *vector_illustration_medieval_door_prison_260nw_491510299_split__1__fotor_bg_remover_20240226165144_resized[] = {
/* columns rows colors chars-per-pixel */
"64 64 220 2 ",
"   c #151516",
".  c #1C1C1D",
"X  c #201F1F",
"o  c #1F1F21",
"O  c #201F22",
"+  c #232324",
"@  c #262629",
"#  c #282728",
"$  c #282729",
"%  c #2C2B2C",
"&  c #36272C",
"*  c #312E2E",
"=  c #32312F",
"-  c #2E2E31",
";  c #312F30",
":  c #3B2C33",
">  c #2F3032",
",  c #333334",
"<  c #393635",
"1  c #3B3936",
"2  c #363539",
"3  c #38373B",
"4  c #37383C",
"5  c #3B3B3C",
"6  c #5A2C1E",
"7  c #6B2A13",
"8  c #632D1A",
"9  c #682E19",
"0  c #742D13",
"q  c #782D12",
"w  c #6F3115",
"e  c #66301E",
"r  c #69301C",
"t  c #7B3215",
"y  c #5F2F20",
"u  c #5B352B",
"i  c #5C352C",
"p  c #44353C",
"a  c #403E3C",
"s  c #483839",
"d  c #5C3934",
"f  c #5B3C3C",
"g  c #653221",
"h  c #653628",
"j  c #6C3C2F",
"k  c #43413E",
"l  c #5E413B",
"z  c #7A4C3C",
"x  c #3D3D41",
"c  c #403F41",
"v  c #4D3D44",
"b  c #563F42",
"n  c #3F4044",
"m  c #434343",
"M  c #494744",
"N  c #4B4946",
"B  c #454549",
"V  c #48474B",
"C  c #47484B",
"Z  c #4B4B4B",
"A  c #5B4543",
"S  c #514E4B",
"D  c #5F494C",
"F  c #53514E",
"G  c #4D4C52",
"H  c #4D4C59",
"J  c #514F53",
"K  c #544E57",
"L  c #545353",
"P  c #595653",
"I  c #5A5855",
"U  c #54525B",
"Y  c #5A575A",
"T  c #5C5A5C",
"R  c #654945",
"E  c #624B4D",
"W  c #775A4E",
"Q  c #624E52",
"!  c #685556",
"~  c #65535A",
"^  c #6B565E",
"/  c #625E5C",
"(  c #65605F",
")  c #7C6355",
"_  c #5C5B62",
"`  c #5A5966",
"'  c #5F5F70",
"]  c #625E62",
"[  c #685962",
"{  c #6E5A63",
"}  c #725E64",
"|  c #715F68",
" . c #656364",
".. c #696665",
"X. c #666469",
"o. c #6D6A6C",
"O. c #74616A",
"+. c #756668",
"@. c #79646C",
"#. c #74726F",
"$. c #676672",
"%. c #776A72",
"&. c #7E6A73",
"*. c #7A7676",
"=. c #833515",
"-. c #893819",
";. c #94391C",
":. c #943D1D",
">. c #98411E",
",. c #9B4521",
"<. c #994524",
"1. c #9B522C",
"2. c #85513B",
"3. c #A44B25",
"4. c #A74A26",
"5. c #A7512A",
"6. c #AB542B",
"7. c #AD582A",
"8. c #B0542B",
"9. c #B35B2E",
"0. c #B75C32",
"q. c #B4612E",
"w. c #B46432",
"e. c #BB6333",
"r. c #BC6A34",
"t. c #B6683A",
"y. c #BD6C38",
"u. c #BF7138",
"i. c #C26937",
"p. c #C36B3A",
"a. c #C46938",
"s. c #C4743C",
"d. c #C9733D",
"f. c #C6783B",
"g. c #86594A",
"h. c #985F40",
"j. c #895D52",
"k. c #93694C",
"l. c #8A6459",
"z. c #926B58",
"x. c #997555",
"c. c #A2744F",
"v. c #B57D4B",
"b. c #967269",
"n. c #816C74",
"m. c #836F78",
"M. c #87757C",
"N. c #817E7C",
"B. c #A0796F",
"V. c #C77640",
"C. c #CC7C42",
"Z. c #D07F45",
"A. c #B18559",
"S. c #A68276",
"D. c #CE8144",
"F. c #C9854B",
"G. c #D18446",
"H. c #D28947",
"J. c #D28549",
"K. c #D48C4A",
"L. c #D88E4C",
"P. c #D6924D",
"I. c #DA924D",
"U. c #CE8E52",
"Y. c #C9955B",
"T. c #DB9551",
"R. c #D59857",
"E. c #DC9B54",
"W. c #E19B54",
"Q. c #DEA258",
"!. c #E0A359",
"~. c #8D7B82",
"^. c #917F85",
"/. c #888485",
"(. c #8E8A8B",
"). c #928186",
"_. c #958489",
"`. c #97888B",
"'. c #938C8D",
"]. c #94908E",
"[. c #918E91",
"{. c #9D8D92",
"}. c #969291",
"|. c #9B9594",
" X c #9D9999",
".X c #AB8F86",
"XX c #A4959A",
"oX c #A29C9D",
"OX c #A4A19F",
"+X c #A29EA0",
"@X c #AB9DA2",
"#X c #A9A4A5",
"$X c #ABA4A4",
"%X c #B4A7AA",
"&X c #B4ACAC",
"*X c #B8AFB1",
"=X c #B6B2B1",
"-X c #BCB3B4",
";X c #BEB7B8",
":X c #C4B9BD",
">X c #C4BBBD",
",X c #C1C0BF",
"<X c #C6BDC0",
"1X c #CABEC3",
"2X c #C6C1C1",
"3X c #CCC3C5",
"4X c #CEC8C8",
"5X c #D3C8CA",
"6X c #D3CCCC",
"7X c #D6CFD1",
"8X c #D6D1D0",
"9X c #DCD5D5",
"0X c #DED8D7",
"qX c #DED7D8",
"wX c #DED9D9",
"eX c #E2DCDC",
"rX c #E5E0DF",
"tX c #E6DEE0",
"yX c #E6E1E1",
"uX c #E9E2E3",
/* pixels */
", U ` U Y X.Z , 5 Z Z L I _ X.o.%.%._ B ` ] Y N % a I  . ... .5 Z o.%.o.o.X.] $._ , - U ' U _ _ C % , B C J L ` ' ' $.' ` H ' ` ",
"# m K S C C m > < Z Z F L F Z L S I L ] %.] L M # 5 Z L L L S < m T ..o.o.T L J L k - n C B M B n = , B B Z Z B B n n n x H ` G ",
"+ , Z V F F Z 3 , k m N N m m 5 5 < % 1 m M k 1 % , P / T L B 5 c C M S F F Z C Z k + , C S L F Z , , n n n n n 5 , , , , 2 4 n ",
"+ * k Z F F Z 2 # 5 m 5 5 1 < m m k 5 1 k M M k = n Y / I F N 1 2 Z C m m M M m M 5 O > k m S Z C , % 4 x 2 , , , n n 4 3 , 5 5 ",
"  + , 1 k 5 3 + + = = % % # % a 1 , , = = < , * . # 1 5 k n k = # < 5 5 3 2 1 2 = +   + = , 1 3 , o + - % % @ @ - , - , % $ % > ",
", ; , 5 x 2 , % % + B U Z Z V x 5 G k + < m 1 # , , = = = = , , = , = , k 5 % + = 4 5 3 3 n n 5 , > , O B U G C C x n U n + 4 C ",
"m n B Z Z m m m k % J T L L F Z m L J = S ..Y Z k k k a a k M N C N S S /  .Z # 1 x n n C Z C m n n 5 > B H G Z V n n V B - B H ",
"5 m B B m m m x 1 > 4 F F Z L Z Z N m % 1 C N m 1 5 m m k k k k k N S F F M 5 + > 5 a k B B m n n k 3 % x V Z G G H B m x # , n ",
"3 1 x x m x x 5 2 % , C L I Y L L C 5 @ , a m Z a > a a 5 5 1 a M F F P F k 1 1 3 = 1 3 4 x k x 4 , , @ , n C C C C n n x @ , 4 ",
"$ - > , 1 2 , , % O 3 ..*. .L Y #..., + , 5 k m C 5 M L  .X.S.].$X*X-X%X XS.#.F 5 % + % - , 2 , > - % o - 2 x x x x 4 4 - O - - ",
"+ o O % - - - % $ @ ..*.m k G #.|.(.T *.}.|.%X*X;X,X4X8X9XwXeXrXrXuXrXeX,X%X%XXX5 # + + + - - - > % - @ # - - % @ @ , 4 x - , x ",
"O x B V B x x B T o.*.].].}. XoX(.N./.-X>X:X>X,X3X4X8X8X9XwXeXeX0X0X5X,X&X$X|.#.N x % C C H C B n % x C n n x , + O n H H ` ` ` ",
"+ 4 C H G G *.6X9X8X5X5X6X6X5X4X>X=X&X=X:X:X:XoX$X&X&X&X&X*X*X*X:X:X:X%X:X@X.X$X#X&X#X X/._ F Z C 3 n m n n n 5 2 @ x x n H H C ",
"@ , x C Z G  XeXeXeXwXeXwXwX9X9X9X9X9X9X9X7XeX5X8X9X9X8X8X6X6X6X5X,X9X9X9X6X0X0X0X0X0XeXwX&X_ C B 5 , 4 n n n a - O x x n n n n ",
"@ 2 5 5 x c oX8XeXeXuXuXwX7X9XqXeXeXeXeXeXeXeXeXeXeXeX0X0XwX0X0X0XeXrXtXeXuXeXtXwX0XrXeXwX9X(.n 4 2 % = 2 2 4 x O O x x x n n x ",
"o % , , , 5 $XeX8XeXtX7X'.m.m.~.).{.XXXX%X*X*X:X:X:X>X,X<X3X3X3X,X5X,X5X,X,X:X:X6XrXyX0XwXwX=Xn = - + @ @ + O O . o - > 2 > - % ",
"@ > 4 n 4 n &XwX9X9XtX@X| Q f i i i i l R Q ! ! ^ } } +.+.+.@.@.@.@.@.O.} } O.n.~.>XrX0X9X0X2X .+ , B x x 2 , 4 n x x , , x c H ",
"G J F L F ] ,XwX9X9XeX{.^ i 0 =.=.=.t q 0 0 0 w r r 9 e e 8 g e 9 e r g 9 g A { &.+XeX9X9X0X8XN., 3 n B m n 4 x n m x x x 2 x x ",
"F C N Z C #.4X0X9XqX9X^.~ g >.p.V.s.6.>.0.6.7.7.5.,.>.5.3.3.3.>.>.5.5.5.4.=.h ~ %.{.wX0X9X9X8X(.> , n C B 5 1 m B B B B x x x @ ",
"n k x k M o.=X8X9XqX7X~.Q g 7.T.E.L.0.3.v.u.C.J.f.7.7.f.G.G.J.8.9.L.Z.y.0.:.g ~ @.{.0X9X9X9XwX+X3 , k m x , 5 m B n B B c x x 2 ",
"m n a a a  . X4X5X4X*X&.E w e.T.I.L.w.7.L.L.I.W.D.7.r.T.I.E.E.q.q.E.L.V.0.>.e Q @.^.qXqX9X9XwX=X5 % , 1 , % 3 5 x 5 5 x x x x - ",
", , > > x =XeX9XqXeX<XO.E w p.I.I.K.w.r.W.L.L.I.G.7.r.H.P.Q.Q.t.q.P.I.C.v.4.9 Q @.^.7XeX0X9X9X X% $ % @ . + ; 2 5 5 , % - > - - ",
"n G n o k ,XwX9X9XeX-X| A t d.I.I.H.e.r.T.L.L.I.H.7.q.K.Q.Q.!.u.w.L.L.G.e.4.9 Q @.M.<XtXeXwX2X(._ U J 5 + V G H ` U H 5 % c B B ",
"n C x # Z 4X9X9X9XeX%X| A t V.K.L.H.e.e.L.W.W.W.H.q.r.I.Q.Q.Q.u.w.K.L.K.V.8.9 E | m.<XtX0X9X9X6XN.Z Z m - x B Z B m Z x - 5 B B ",
"4 4 4 @ S 4X9X9X9XwXOX} b h k.x.k.c.w.r.P.E.Q.Q.Y.1.g.A.R.E.Q.f.q.P.E.T.e.5.r E O.m.<XeX9X9X9X9X(.n k > > 1 1 a 5 5 < , % 1 k Z ",
"> > > + M ,X9X9X9XwXXX} b b E E Q z 1.r.T.T.R.A.A M p k W R.W.D.w.T.E.P.y.5.r E O.n.:XeX9X9X9X9X Xx , o % = = = , , = % + , 5 k ",
"o - > + 1 ,X9X9X9XeX`.{ d t t.v.A.F.y.r.E.E.A.A : v & p & W R.f.r.T.E.P.V.5.9 E | n.%XuX9X9X9X9X=XM , % , , = # % 5 3 * + % = + ",
"o Z T C I ,X9X9X9X9X`.^ u -.F.Q.P.Q.u.r.T.Y.! v : b : p : k x.G.r.T.E.E.V.5.9 E | n.%XeX0X9X9X9X,X..F I _ I S 1 = m C C M a , # ",
"+ 5 F F T ;X0X9X9X9X_.{ i -.D.E.P.E.D.r.P.A.s v p v : p & v l A.u.T.E.E.C.5.8 D } n.oXuX9X9X0X0X,X/ k k k k k k = = < a k a 1 % ",
"+ , N N Z ].8X9XeX9X_.^ i -.D.E.T.P.f.u.R./ p M : v & p & p p c.u.T.T.P.V.3.8 D +.n.XXeXwX9X9XwX=XI l I F l k k * s < < 1 k a # ",
". > m n k T OX8XeX8X).^ i -.D.E.T.P.H.u.Y.) k M : v : p & p p c.f.R.E.P.J.3.8 E @.n.|.rXeXwXwX,XN.N N N k k k < # k k a k a = % ",
"  % 4 , n #X8X0XeX5X^.^ d t D.R.P.P.H.u.P.A.A.x.x.k.2.k.z.k.c.F.f.T.P.P.J.,.8 D ( n.`.,X4XeXwXOX#.k = , < = = + # = 1 < = = % + ",
"  > C C Z ;X0X9XeXeX`.^ i t V.W.K.P.D.f.E.P.U.E.W.f.0.I.T.I.I.G.D.E.P.P.F.<.e P | n.^.1X7XeXeXeX6X#.* 1 k k k N S F S N B 4 H G ",
"# , Z B L ;X9X9X0XeX`.{ d =.p.L.K.H.G.s.L.K.K.K.I.C.i.K.K.K.I.G.D.P.K.P.D.>.8 E | n.`.eXeX8X8X8XeX$Xk N S F I P S S N k c K ] T ",
"% # 4 k Y ;X0X9XeXeX{.{ f q v.J.H.P.H.s.T.H.J.P.K.D.s.K.P.K.K.G.H.P.K.K.D.>.e D | n.).wXeX8X9XeXeX-XS M S S S N k k k a , k N N ",
"# + k m / ,X9X9XeXeXXXO.l 0 0.J.H.K.H.s.T.J.H.J.K.D.f.K.K.P.H.G.H.K.H.P.D.:.e P %.n.).qXeXeXeX7XeX:XN N k k k a k k k k k s M N ",
". O , 5 L ,X9X9XeXrX@XO.b 7 4.Z.K.K.H.u.L.J.J.J.J.D.d.H.H.H.L.G.J.H.K.K.F.:.y ~ @.&.).qXeX9X9X9X9X&X1 1 = < > # * p < a 1 = 1 a ",
"+ + % , n =XwX9X9XrX%XO.D 6 ,.C.H.K.H.q.K.J.J.J.J.G.Z.H.G.G.G.G.D.J.J.L.V.=.u Y %.n.^.qXeX9X9X9X0X&Xm + n I F N N m m S a + < k ",
"x n k B H /.>X6XeXeX@Xn.Q 6 -.V.F.F.G.q.Z.J.G.G.J.D.C.J.G.G.G.G.G.J.J.K.s.t u ~ @.n.S.7XeX9X8X9X0X&XG > N I I P F F F P C * M L ",
"5 5 n B n S.=X5XeXeX<Xn.~ i j g.) ) h.5.V.G.G.G.J.f.f.G.G.G.G.G.C.G.J.J.w.q i ~ %.&.^.eXeXeXeX9X,XS.B > k P I P I I F S M * a N ",
"2 3 x x J ,XwX9XeXeX5XM.{ d d R E E z 1.d.C.Z.G.G.d.V.C.G.G.G.Z.D.G.G.G.5.0 d ~ &.&.^.eXeXeX9X9X4X*.a * 1 F P P P F F F k # 5 k ",
"$ % , , C -XqX9XqXeXeX^.{ f 9 <.t.y.d.0.p.C.Z.Z.G.i.d.Z.C.C.Z.C.f.C.Z.d.3.7 f ^ &.&.`.wXeX9X9X9XeX&X5 X = k N k k N N m , + < 5 ",
"$ o O @ , #XwX9XqXeXtX{.| R 7 ;.a.a.a.0.i.d.d.Z.G.e.i.Z.C.C.C.a.e.p.p.a.3.7 A [ &.&.{.eX9X9XeX7X9X3XL # # = = < < = 1 1 - + # < ",
"+ , 4 x n [.wX9XqXeXtX@Xn.E 8 -.0.a.a.8.r.d.d.C.d.9.e.C.V.C.C.e.9.i.a.i.>.7 E [ n.n.XXtX9XeX7XeX9X6X*.J N k k a # + k N Z S L T ",
"@ - x n V /.wX9X9XqXtX%Xn.^ i =.4.0.e.4.9.p.d.V.d.8.0.d.d.d.d.9.9.i.a.0.:.e D | n.n.@XuXeX8XeX7X0X8X(.S S N N k 1 * M F P P P P ",
"@ % x x B $.8XwX9XeXtX<Xn.| f q ;.4.4.4.3.0.0.e.0.4.9.d.i.i.i.7.5.i.0.0.-.8 D { n.n.*XeX8XeX7XeX0X9X`.k M N N k < # k m Z S G Z ",
"@ - x x x Y 2XwXeXtXuX7X^.@.R 9 =.;.;.;.;.;.;.,.>.;.:.4.4.3.3.:.=.4.:.-.q h ~ ~.@X@X:X9XeX8XeX8XeXeXOXk a k k k % X k m m Z m m ",
"o @ , , - x +XwXtXtXuXtX:X~.~..X.XB.B.b.z.z.j.j.g.g.g.g.g.g.j.j.j.l.b.b.B._.{.<X5X5X3X:X6X9X8XeX0XrX=X= # # # + . . 1 5 5 1 , , ",
"@ % , 4 4 , n ] [.#X=X,X;XOXOXOXOXOX X#X=X,X,X,X4X6X5X4X4X3X3X3X3X3X3X2X,X&X$X=X%X:X,X-X4XrXrXrXeX9X|.m 5 1 , 1 m m c a < c S K ",
"H G Z G Z C x @ 5 n C Z n k n n n n 5 1 n C L C  .(.}.}. X XoXoX|.|.}.}.N.#.S.|.XXOX$X X(.].]./...I N N F M m M Z S N N a a m m ",
"Z N n Z Z C 4 # 5 n C n 5 a C Z Z C n k 5 % % o % 5 Z Z Z N N M k k k k 4 , n F I / ( I N F F N , , m F F m k N F F S F N C 5 % ",
"n x x n n B 4 % 4 n n 1 > x C n n Z Z n n 5 @ . % n m m B N N M m k m k 1 # 5 a k k N k k k N N , , k M k < k S N S S F S S m a ",
"n x n 4 5 x 4 @ > 2 , - > a x a n k n n n 4 > + % 5 k n n m B k k m k k , = a k k k k k k k k k = - 5 5 < % 1 k M k M M M M a 5 ",
"4 , 2 > , > # o @ % + . % , 4 , , , , , , > > o # , , 1 1 1 , 2 , 1 3 , % > 1 5 k 1 1 a < > , > O # % # . # , 1 k 5 1 , * 3 1 , ",
"x n x @ o % 2 4 x 2 + + , x n C k 4 + 1 n n n a 5 m m Z Z N k , % 5 k 2 4 5 5 n m x B B 5 + % 1 m m B 3 + S D / / P M , * M S Z ",
"4 n 4 - @ 4 n n n n - > x n C n n n > a k n Z F N M Z S N m k 1 - 5 5 x 1 1 x k k m m k 5 % > M N Z Z a % a M Z S N N a * k N F ",
"> x 2 - @ 4 x x n 4 % > x x x x 5 4 % , a C Z Z N m m M M k k 4 - 4 5 x 1 > > 1 3 1 3 5 5 $ , k m m m , = 1 1 k a a a < % s N F ",
"- , , - o - , 2 , - o - @ > > - , > % % 1 m k a 1 4 1 1 5 5 1 , + = 4 2 , > + + % > , , , + # , 1 1 , + # = = , < < < * + < k k ",
"o @ , @ o @ % - , @ + - @ @ o % % % + + > # + = - - - - > 4 , > % > , 2 4 4 4 , % + X , 5 % # > , 3 3 % > > = # # a < * # * = # ",
"@ - Z B m n m Z C B V V n x o x 5 1 1 1 , = + n C C C C C N B B Z Z C Z Z G G G G m # Z P F S S F F Z Z F F M , , k M N k k < * ",
"- - n H Z Z G C m m m x x 4 , - , 4 1 5 4 > % n Z G G C C C C G Z G Z Z C M n M C n # k F F F L F M M N N k k 1 > < 1 5 k k 1 = ",
"- @ n C B B m m n m m x x x - % > , , 5 x 2 @ n n C C n C C B n B B B m C n x x n 5 # 1 S S Z N m m M S Z N k k % < < 1 k k k % ",
"@ O n n x x 5 x n m x B n x % - > , , , , > @ n n n n C n n n n n x n B B B x 1 5 3 O 1 M m m m m m k N N m m 1 % 1 1 1 1 1 = = ",
"o o x x x 5 5 4 x x x x x , O % > > > , 4 > o @ x 2 x n x 3 2 3 4 4 4 4 4 4 4 # @ %   % 4 , , , 1 , 3 1 4 4 , # + , , , , 1 = % "
};
