/* XPM */
static char *floor_resized[] = {
/* columns rows colors chars-per-pixel */
"64 64 82 1 ",
"  c #141415",
". c #161618",
"X c #1C1C1D",
"o c #201F1F",
"O c #1F201F",
"+ c #21211F",
"@ c #1E1E21",
"# c #201F21",
"$ c #1F2024",
"% c #232324",
"& c #282725",
"* c #2A2927",
"= c #262629",
"- c #282729",
"; c #27282B",
": c #2B2B2C",
"> c #302F2E",
", c #32312F",
"< c #2E2E31",
"1 c #302F32",
"2 c #2F3034",
"3 c #333334",
"4 c #383735",
"5 c #3B3936",
"6 c #363539",
"7 c #38373A",
"8 c #37383C",
"9 c #3B3B3C",
"0 c #413E3C",
"q c #43413E",
"w c #48453F",
"e c #3D3D41",
"r c #403F43",
"t c #403E48",
"y c #3F4043",
"u c #444343",
"i c #494643",
"p c #474846",
"a c #4B4946",
"s c #454549",
"d c #48474A",
"f c #47484B",
"g c #4B4B4B",
"h c #504C46",
"j c #514E4B",
"k c #54514D",
"l c #59544E",
"z c #474750",
"x c #484750",
"c c #4D4D52",
"v c #4E4E58",
"b c #504E53",
"n c #514F5A",
"m c #535253",
"M c #595652",
"N c #5B5954",
"B c #54535B",
"V c #59565B",
"C c #5C595B",
"Z c #605854",
"A c #615D5C",
"S c #61605C",
"D c #545461",
"F c #595761",
"G c #5C5B63",
"H c #5D5C6A",
"J c #5F5E70",
"K c #615E63",
"L c #656264",
"P c #6A6464",
"I c #64626B",
"U c #6A666B",
"Y c #6E6A6D",
"T c #726C6E",
"R c #646373",
"E c #686671",
"W c #6B6973",
"Q c #736E74",
"! c #787276",
"~ c #777178",
"^ c #7C757A",
"/ c #857A7E",
/* pixels */
"gFVVVGH:sEnIm2ukmCL~~UdKKd*jLLTub!TWLEI%cRnKx;tgbBRRRHDJH8%vGGn3",
"uHWWGbV:3Bgpp:uacmgkMVI!Mp*dkkk7pPQYCgm,8fsuu:tsgdeueeDDu2=yssy6",
"9yscgus9%famk34papq53-,ww3-dPVg99uagjuk3%ggmg19upu932<,ye<=cDvy6",
"8zyypsg9&qkmk33uq97piu9uaw3BPNk59mpuppg,=pkjg:69633t994yu6<xfzy2",
":9y8993$ <499X::&%%9,,:,,:X:7qu3%97387: .1341.:-=%:2::&;:$.:636;",
":=:2:$:333982:%9Gfg9pg+90&,:>:>33:3u3O3y97ee33%tFxz9vs$fe:6<2269",
"sppVF:3sssmdug3dSlMggV4APguwqqihahkPS24uufcsus3sbcfsss2bby8y9yyu",
"ypggg::99ppeue33ccbgpp:9gu4upqq0ihkhu%>9eppeu9<6bfcfsy;8ye2yy999",
"uaagy33399eeu93:gmbcju;7pg77u000ihjh977379ey96:1fzzsy8=ees28e779",
"9quy92e;:3693<%=9puuy8$4709%90500wq94<9**:3411X-99eee<@2<6<@3844",
"3>:;:X%:X@=<<:=%::2:33@:33:X&,1>>1:::X%:%X:<<;:%<;<;66;286<@<22:",
"9gxg739:3szue%sdu9*OgP~/Kbpumjj57CNm00a*9vBsu;ssy9$$zDRRFzesvcc3",
"cmggpug4:gBbg6dpau5:ugmmmggmmMj9dhahaia3<sccs9spuy42ezzczyfccvu3",
"49uuuuq3:9sxg94uiu4:yscggusggdp44idppwi13usfs66euy>;eeyyyeyyuyy<",
",9pspuy3<e9yu7:7yu3$u9usu9y99ru1>wdhapi<6e9ee3:37y%%eeeee862687:",
">437e96%$22<3<@-%;..394:;*%%#=>X*44495:X%<<:,:@%$$ @262==@@@$%=X",
"689:;83::8y9=6s33:77737gyX3mmyr49ug::y949ssp=es966ue7<eDe@cJnstt",
"ggg43pgmmmMm89gppqgguqugb>CWLMNNlak40gkSCMMm69usy9uut88ee;nFvggg",
"y9y449ucgpgg3:sg99agaar::$3wcgaiqww45ualaaka<3sgeesssse:#@1rzuue",
"u903*99pq9qg6>pu89gagggu&X5spgahw0w,3qqiuqug36p9<euussee=@9teusu",
"y9y32y0quq9y6:88:0uuiap96%5qqwaawww>9wwppqqq:<93<e99yy96<#689e99",
"8>>;:4862234OX&O@1333:2<:O,4844,>3::45944,,3X:= %<86;:<<<@33861<",
"29626998csX2scsOibCKc%qaa0pkmka33g79yyuuCyO7mFs&vbFFf:uafrscmce1",
"39969yyysy&6fbm6iggjC4qhkMahkka54qq9qupup9:qggg2udddf19pgguppu93",
"3886268866=8yy9:19e94>5ilMaajaa53yy4399504*puq4>49974:9igguuuy9,",
">282;$;222$:882%13332&4paq55555,%444&O*33>$,95%%343,:+5qq3<<234:",
":;<<2;$X&2OO::$O=&%33O&>%:>::64,:77786*X44+:34:23&%e3%*%@<326836",
"vBvnBHRy3LfppmmKKd-jkg0>%pmmmmbkCCCCSU^9jSNlMMMIL9,ggaq>:xvbccsc",
"gvzfyyvy:jmmMpqq094*,5052gmmcgjckmcaypk30ZlZlwww0q,,500,6zzzyfyz",
"fyyyy8y2*sapp0ppuq:,,4y5:ppaaffpfppaqup:5lhhawkluq,555q,2zyyyyyy",
"yyyyyyy2$pp9qqppuu>,4444:ypfgfpuupfcayu&5kiwhahahq*q0092<yyyeeee",
"92268;$$O3223832><X%>:,*X:62666332334%%X&3344,:>>*+,43,%.<;;ee22",
"9s996eu%@cugd%%339uggu3upuO8LLC99mgpubgX5FtVh#,0iabbxdrnn8%dKBb3",
"eMBBmgG7-csag3,pgmbjggB!Sj*wklg4aNNNkMN40hhjh>wlZlljh0VKm7*pgse1",
"89scguuu%3qgg4,uppu97:,qq3&5cgg9qakkkal0&wjZl30hhhi00>0hi3&pgss3",
"9suysusu#9gkk9:qu9747u5qaq>fkkj5qkaaagl4*hNZl30h0000iw0hh01bggu3",
"39u9ee9:.370r-%4&-%,4,,354$,qaa3&qu0qq4Oo4000X4,>*:444>45:X3ye9:",
"2%:2<;%;#*363%%%cu788u%:8%+:,::3:::>2%>2:4001>o0Khdwduor9%:,3:36",
"pyyus3:uurggru93Cmmggm3ums9q9qwhkahkk,0pijMjij4iAMMkNh3lmuwuqwup",
"uuggg3%77tsurr71sggguu24pu40uwqqqklMa*,qihhihi40NMMMjd>igw4auq99",
"uppcu3:28eeet96:scgbgp:3pg83pq00wjkkq334qquiu044MmMMlu:qpg30u099",
"y9uy938:;36933:#9uuuyy%3799*5qq0wiww0,5::45q44+*iaaip4%95q4%9055",
"02,::&$:#@=2<<=@:22232X%:32@O33,,3,>:O*:X%4433:%3,3,8:X:331X<33:",
"83946:33;9yee=ef63:X8yffBcu9pgg7>ipq05q>7pcu9&baw5%&ggMVAbpammj3",
"yuppsypy%efzf37puu9:efnmmxfbmgh9qkakaak4,gmmg7lhah54hNNMmgjMMkp3",
"59yyuqq5=6yzze3yyu9%9usfsyuggag7,iiaaaa3,ugmk90iaa5:aagbgugggsu:",
"44ysyyy8;eeyy9:39u6X8eysueee9uu4,waaaaa35uyuu4,ywa:%augpuyr99tu:",
"3289y96:@<<236=:=;@ 2992::=%=:1#%055q9,X%4,,5>%:%% o993:*%#==::.",
"5233$66:;296:$623:<63<3ueX;cvu9335u::y947ruu%4d043pu01iV8osJndt9",
"fquy*yfcmmccy:ysp9upu93un<gWLmMkaaa45plSANMm60gkguhhgi0ps>FKBjmh",
"p9y9>89fgspg8:9fy7usssy::%:qgpppqqi45qakgakj17hj0ubljjp>%#7igppu",
"u999;89yy99f9:9s66ppsggu:.3uupipuqq4>qqaqwuh35dp4phhmjhu=Xwisdpu",
"s998:88yye999:66:6e9uuu98%3yyqpuqqq34qwpiaui13041iiwdiu03%9qwuu0",
"u662:6882636=X=$X<362222<@:33443484:3998333,X-;.%3701>66<X77963<",
"566222y8ey$%6ey$=9us9%3uu7ypgcu4:y889yy9p8X4ufr%lZPM0&hhjigkMju<",
"83e669y8ee<:yss33esug84pgbaigaw53y959uuuu9:0ghp1rhhhd,whMMaggpw:",
"ee2e;eee66;<eee<26888<3qacppapu72995248599:uuu9390005>qkkkpiauq2",
"e$e2;@@;26;=86<@<2333:>qpy437593$483:O:233$:94%+>34,,+5iw4>3348&",
"2$eee$$@@6$O;<;@=&%:<%$>%*:::23<;23482&X:9%:37<<>&%04*:&@3333943",
"yeyyzyve$zspuzccbu;69973$ycggggfbgccmBm60Zkjkkmmm0>ihhq,:bMBbcfg",
"vvyyeeee=pbcbpeyy96:2598:uccczfzgcgs9yg63MkMkwiiqq,,50q46zvvssss",
"yyyye6ee%9dsuyupy9,:3659;9ssyffyssusy9s:1hgaiuhjuq,449q42zyyssyy",
"yeyyee88X9ueeyyuyy2:3,36=eysyuyuyyuss8q:>huriidpp0:94593:yeeyyye",
"yeeyee=<.ee968eeee&:3,66$;88ee66788882$$#81633688<o3336:X2eee62e"
};
