/* XPM */
static char *b0c43c4ebb324e9294919eaef807aee6hNSpvNpQqvnFsrey[] = {
/* columns rows colors chars-per-pixel */
"64 64 195 2 ",
"   c #050505",
".  c #0B0907",
"X  c #070708",
"o  c #0B0B0B",
"O  c #080706",
"+  c #110F0C",
"@  c #1C140E",
"#  c #17110B",
"$  c #0F0F10",
"%  c #131313",
"&  c #171718",
"*  c #1C1C1C",
"=  c #181717",
"-  c #231A11",
";  c #2B1D13",
":  c #211F1D",
">  c #22201E",
",  c #2C241B",
"<  c #2C2016",
"1  c #332316",
"2  c #35271B",
"3  c #1F1F20",
"4  c #1F2021",
"5  c #232324",
"6  c #282726",
"7  c #262629",
"8  c #28272A",
"9  c #27282A",
"0  c #2B2A2B",
"q  c #2A2827",
"w  c #312F2D",
"e  c #332D25",
"r  c #2E302E",
"t  c #33312F",
"y  c #3D3227",
"u  c #2E2E31",
"i  c #302F31",
"p  c #2F3034",
"a  c #333334",
"s  c #393635",
"d  c #3A3936",
"f  c #36363A",
"g  c #38373B",
"h  c #37383B",
"j  c #3B3B3C",
"k  c #373836",
"l  c #452C1A",
"z  c #463626",
"x  c #4A3A2B",
"c  c #483626",
"v  c #5B3D25",
"b  c #513924",
"n  c #413E3C",
"m  c #443B35",
"M  c #4C432D",
"N  c #56432C",
"B  c #43413E",
"V  c #4D493B",
"C  c #594836",
"Z  c #595338",
"A  c #684428",
"S  c #744D2E",
"D  c #634B37",
"F  c #6B5738",
"G  c #72583E",
"H  c #745838",
"J  c #7C5A2D",
"K  c #3D3D41",
"L  c #403F42",
"P  c #3F4044",
"I  c #434343",
"U  c #494644",
"Y  c #4B4945",
"T  c #454549",
"R  c #48474A",
"E  c #47484B",
"W  c #4B4B4B",
"Q  c #514E4B",
"!  c #524F46",
"~  c #4F504D",
"^  c #5B5243",
"/  c #53514E",
"(  c #575344",
")  c #4C4C52",
"_  c #4B4B56",
"`  c #514F51",
"'  c #4F5052",
"]  c #535253",
"[  c #595653",
"{  c #595855",
"}  c #55555B",
"|  c #58565A",
" . c #5B5B5C",
".. c #675744",
"X. c #795D42",
"o. c #775B44",
"O. c #635E5B",
"+. c #796246",
"@. c #65605E",
"#. c #5C5B63",
"$. c #5A5968",
"%. c #615F65",
"&. c #5F6062",
"*. c #646364",
"=. c #6A6667",
"-. c #62616B",
";. c #6B6B6D",
":. c #686769",
">. c #6F706F",
",. c #6D6E71",
"<. c #626170",
"1. c #726E76",
"2. c #6F7072",
"3. c #737475",
"4. c #747678",
"5. c #7B7C7D",
"6. c #77797B",
"7. c #736A60",
"8. c #875B37",
"9. c #886B38",
"0. c #99633A",
"q. c #907533",
"w. c #B77729",
"e. c #FF621E",
"r. c #FF751F",
"t. c #8A6A4A",
"y. c #806245",
"u. c #956B46",
"i. c #91704E",
"p. c #88755E",
"a. c #9B7753",
"s. c #86734C",
"d. c #A46E41",
"f. c #AA7549",
"g. c #BC7D4A",
"h. c #B47847",
"j. c #A47E59",
"k. c #A77E56",
"l. c #8A786A",
"z. c #FF861D",
"x. c #FD9F1D",
"c. c #FCA21F",
"v. c #C09033",
"b. c #D9912D",
"n. c #F39724",
"m. c #EF9438",
"M. c #C5A031",
"N. c #FAA823",
"B. c #E2AB2B",
"V. c #AC845C",
"C. c #B6885C",
"Z. c #AA8F40",
"A. c #9C8769",
"S. c #A48E6D",
"D. c #BB8E63",
"F. c #B18E66",
"G. c #BE9265",
"H. c #B29874",
"J. c #C2824C",
"K. c #C78B57",
"L. c #CC925F",
"P. c #DDB456",
"I. c #CD9562",
"U. c #CE9D6D",
"Y. c #CB9867",
"T. c #D09966",
"R. c #D29E6B",
"E. c #CB9F70",
"W. c #D5A16F",
"Q. c #D6A472",
"!. c #D8A573",
"~. c #DCAF7E",
"^. c #7D7F81",
"/. c #7F8182",
"(. c #828486",
"). c #858689",
"_. c #8A8B8D",
"`. c #87898B",
"'. c #928A84",
"]. c #8D8E91",
"[. c #908F90",
"{. c #8F9193",
"}. c #929395",
"|. c #959799",
" X c #97989B",
".X c #999A9C",
"XX c #989492",
"oX c #9C9EA1",
"OX c #9FA1A4",
"+X c #A2A3A6",
"@X c #A4A6A9",
"#X c #A7A9AC",
"$X c #A9ABAE",
"%X c #BABABA",
"&X c #DDB283",
/* pixels */
"W  .| | | #.#.k T -.| -.] k I W ] | %.,.1.*.T  . .W a T  .*.=.Q R >.;.:.:.-.1.a K $.| #.] u f T ) } $.<.<.$.E $.$.T q j #.$.$.T ",
"K #.-.-.| W ] k a R E I I 0 n E Q / W U U ` ` ;.] U 0 T [ [ W I j [ *.=.[ W T B i T T T I t f I W W ^ Y K g K } K f 5 j W T P T ",
"j T W ) ) T E K 5 W E / W k k I E U I n g a a I U d 0 j  . .] T g R W ] / E W I 5 T E / W f a I I Y 9.F a a a n I k 9 K _ _ ) j ",
"g T I I T T T K 5 I W / W a 0 I j j g L I n d B U I a W O.[ Q U a E T I T T I j 5 B R W E a 0 B f H b.9.j g k g K j 0 K E E T K ",
"0 j K j j j k 9 * a g j g 5 5 t 0 9 q j s a t a k t 5 0 j I I j 5 g g g g g u 5 & 0 a k k 5 5 N M w.n.J 0 u 0 0 0 9 * 9 k f f a ",
"u 0 u f u 5 0 g f a g j a i 0 a #.] ` E R W 0 j U t k a a a a k k a a L j 9 u I I K T T j B V M b.n.N.q.+.} 0 j T a a a a a f K ",
"R T T | } a a I I W ] W E I K j  ./ W I R } j { =.W I j j n U W W / ] *.*.k a j j I T I j Y s.Z N.x.c.B.9.E k T } E K j j j j j ",
"I R W W T 0 a j K T R I I K g a ] ] ] Q E T a n W I g B T B B B U Q / / R 0 0 g j T T I I j V B.N.z.z.v.( ! u g I K g j P j j g ",
"I R E W I a j a g j K I K g k 0 E W ] ] W I 0 g I U g 9 9 5 * = = = = * : 5 a u f g j j j f a 9.r.e.r.N.M.Z 0 f K I K a j j g g ",
"j j n j g 0 f 9 0 u a g a u 9 5 g I K K j a * * % X                           $ 5 0 a k a 0 9 5 Z.P.m.q.j f 5 0 a k a 5 0 f h k ",
"k a a 0 0 5 9 0 3 5 9 a u 0 9 5 0 a a 0 * $ X                                   * 5 0 u u 0 0 5 t Z F t a f 0 u f f a 7 0 f f i ",
"j W E T g k g a a I W I K 0 j R T i = X                                       X a W ) T T u K j j a 0 5 K _ $.$.} E T K T E E K ",
"W W E E T I T j 9 I ) ) T g I T 0 X                                           * 0 I ) ) T j j *.] /.k 0 K E ) ) W T T E ) _ T j ",
"d B T T I I B g 0 K T W T j a 5 X                                           % g 0 K T E T j 9 5.*..Xk 7 j K P T I K K I P P K f ",
"a j I T I I j g 0 K K K K g 5 X                                         # - 5 g 0 K K K j k 5 { 5.4.0 4 j j K K K h f f a h j a ",
"a g g j j I g 0 5 k a f k 9 o                                     # l 8.g.u.> 7 5 k k a a u j / *.9 * * u f f u 0 7 7 7 7 0 0 5 ",
"g j j i 0 K j a a K T j 9 o                                   1 8.g.J.K.R.D.y g j T W W a 9 *.] %Xa K K j a f ) _ * f $.$.E I L ",
"E T I j k j I W W E E W u X                             . b 0.J.K.I.R.Q.Q.U.F / [ / / E j a }.[ .X0 K I K K f a j 7 j _ W T W E ",
"I B B g k j I W W E W E 5                             @ S h.K.I.R.Q.Q.Q.Q.Q.i.B / W Q W d T %X~ T k I T T I K f 0 4 u K W T T I ",
"I j j k 0 g j T I j B I *                         . l d.K.T.W.Q.Q.Q.Q.Q.Q.Q.G.w U I I R k :.%X3.E j I I T T I K 0 * 0 K K I T I ",
"I j j k a j j I I n j d =                       . S h.I.Q.Q.Q.Q.Q.Q.Q.Q.U.t.X.e I I B B a 5.}._.a g j j j j K f a 5 0 f j j j j ",
"k a 0 0 0 f g f a a a 0 %                       v K.T.Q.Q.Q.Q.Q.Q.Q.Q.Q.a.. # , g k 0 a 9 j / .Xa a j K a 0 u a a 5 0 f h f a i ",
"a K f a a g K f ) T 5 q =                     . d.T.Q.Q.G.t.a.Q.Q.Q.Q.Q.F   z G W I 5 a a j | }.K ) | #.) 9 g E W T I ] | } W j ",
"k j j f j K P K I g 0 0 *                     1 K.Q.Q.a.@     a.Q.Q.Q.Q.i.. - V.0 j t k r I 3.=.a R E E R k k I W W T T T I B j ",
"k f g f u f f f f h 0 a 3                     v L.Q.Q.j.C.N   c !.Q.R.R.U.G y.U.6 g 0 r ;.:.@X{ k g j g k 0 k I E E T I U I j g ",
"a k f a u 7 0 p a a 9 7 3                     A L.Q.Q.Q.Q.G   x Q.Q.Q.T.I.Q.!.!.z a 9 r }.>.%X[.q a k a a 9 0 j j g a a a k d k ",
"a u p a u 9 5 5 7 a 5 4 * X                   b L.Q.Q.Q.Q.D.G j.Q.Q.Q.W.I.Q.U.!.C a 9 I }.@.[ n 6 9 6 a a 5 5 0 5 0 u u u f g a ",
"W _ ) ) _ } $.E a | E I a o           1 v -   ; K.Q.Q.Q.Q.Q.W.Q.Q.U.D.C.k.x 2 +.+./ B  .`.*.s p.A.U w n R U I a 5 T ) _ ) ) E W ",
"W _ ) E P I W E 6 / ] / I =         ; h.J.S O . f.Q.Q.Q.Q.Q.I.Q.C.y - - ;     . c B a W | *.o.Y.~.S.d a d n n j 0 T W E T T T T ",
"T I P I K j K j 5 I E R j *         2 g.J.d.-   v R.Q.Q.Q.I.I.Q.2       l A c + o } k T 0 E c Y.Q.&X..t d d n j 9 K I T T I P K ",
"I K P T P j j f 5 I I j j 5 o       1 g.J.g.b   @ K.Q.Q.I.L.W.D.O     1 0.K.R.X.= oX3.a E k s f.Q.&X..t m j j s 9 I I T I P K K ",
"j a a g g a 7 u * j g j g u *       . S d.h.8.    b C.Q.Q.Q.Q.t.  X D U.Q.Q.Q.+.5 ,.+X| ).;.W x I.F.y a d g j a * 0 a u p a u u ",
"j T K K j L I 9 5 E ) E T 5 * o           ; d.0.8.8.d.T.Q.Q.!.x   G U.!.Q.j.C W +XI ].`.#.}.T ,.N m W ] ` E h _ | I 5 d #.#.| R ",
"j ] ] ] ) E ] K 5 I L B I a 6 9 %         . A J.J.J.J.J.L.Y.t.+ 2 V.j.p.O.k 9 T $X} ,.+X]  X#.K w / Q ! Y I I  .W j 0 j W W P f ",
"j I T ) E T T I 5 g I E E g 0 k 5 o         - h.g.g.J.g.h.f.X.^ 7.'.[.}. X*.5.T $X,.#.+XW ;.R 0 Y Y Y B n a a Y Y d 0 g E E W K ",
"g T T I T T T I 5 j I Q W g 0 j k * X         , C z D l.'.XX.X@X#X#X$X$X.X;.oXW +X6.I 2.a 5 0 Y B B n n I U n U Y B t I W E T j ",
"k j L K j j g a * a g B j 0 5 a a * X * 0 T #.6.*.0 j ).].{.}.{._./.3.] a I ,.p } j * 9 t 5 6 s t w 6 a d d s s d a 5 9 g K j k ",
"f 0 a a a 9 5 0 9 0 k g a 9 9 5 ) g & 9 R ] ] W ;.4.9 k a a a a a g T &.(.I 5 9 a a g I g k a 0 %.} ] W W W 0 g I a t k k a a h ",
"R I K I T a 9 K j I W ) T I I i | j *  .].(.).oX$X(.] OX.X|.}.|..X@X#X$X#X .0 B I Y / Q Y U U k  .[ [ / Q Q k W [ E B B B n n T ",
"T T E W T k 5 g K I T I L I j i E j * } +X$X$X#X).T a OX@XOX@X#X@X|.(.*.0   5 B I Q Q Y Y U B a [ [ [ [ / Q a B Q I j B R I B j ",
"T T T E I k u u f j K K L j f 0 I I 5 5 T T K f |  X .o X   o % X   & W ,.k 5 k j B I U I B d w Q [ [ [ / U 0 n I E I k I n n g ",
"I j I j g u 0 u 9 u a g k u 0 5 f K 3 5 ^.+X@X$X$X^.j g :.5././.).oX@X.X6.a > 0 9 a d n d a 0 5 B I I I I j 5 a d j j 9 a j j d ",
"j k k a a 9 5 0 5 5 9 a a u 0 5 0 a * * 4..X|.`.#.W 3.&.OX@X.X X_.2.] j j * = 0 5 6 t s k a 0 9 a a k a d a 5 0 g g g q 9 f f a ",
"j j g k k a a f 7 j K K j 0 a T j a * X 0 W ]  .(.OX`.g T j k W *.*.4.].OX} * j 0 I W T I 0 L W I n a 5 I E W ] [ W T I W Q W L ",
"I I T T I I I I 5 j T T T f k I I j 5 % P ].+X}.3.E I E k `.|.@X+X}.^.#.I 5 * I 0 I W ] W j U Q Y U B t U / [ } [ W W ] [ ] Q j ",
"g j B I I I K j 9 j K T T K a j I j 5 = * g R ] I m N 8.z ]  .' T h g ' ;.E > B 0 B R W W I s I Y Y B 9 I T E W E I T W E T T g ",
"k g j I I I j j 9 j j K K j u k j g 5 = * j 3.| c u.K.Q...] *.2.(.(.^.*.g o * j 0 B I I I j a j I U n 5 B I R E I j I j j L L f ",
"k g g g j K K a 5 a f f f f u u 0 7 * = 6 * 2 u.R.Q.Q.~.^ j g 9 * * * 5 5 o 5 0 5 s d g g k 9 i 9 7 5 * g j n k u 0 0 0 0 i a q ",
"g a k a 9 j j f u h K f u 7 f a a 0 * & 9 : < E.!.!.&XH.> : = 9 9 9 9 5 X % j j g j I I u a R L j a L R B k j ` ) * a $.$.W I j ",
"R I I K u g j R E R R E K u j I I k 5 = 9 9 5 , p.S.+.: 5 % % 9 5 * + X * % n [ [ / / W g d I Q R I R Y Y U n g I 9 j } ] W W W ",
"T j L g a j K E W E E E j 0 j T I k 5 = 9 9 9 5 : 6 : 5 6 o X % o o % 5 5 = B / / Q / / g d U / T I Y / Q Q R j 0 5 t T W E E T ",
"T j j g 0 k j I I j j T j 0 j I j k 5 = 9 9 9 9 6 6 6 6 5 X % * 5 5 9 6 5 % j R U I I W g g I R g B Y Q Q / Q T a * t I T T E T ",
"T j j g u g j j K K j j j 0 a f 0 k 5 = 9 9 9 9 9 9 9 6 5 o 5 9 9 9 9 9 5 % d I I I I I k a g j w n I I U U U n g 5 t j I I I n ",
"I f a p u f f f a a a a 0 5 9 5 * 0 * % 9 9 6 9 9 9 9 6 5 o 5 9 9 9 9 9 5 % a j j k a a 5 9 0 5 5 g j j g u a g f 5 0 j j j g a ",
"j g f u p a h g K K 9 5 i g h 7 5 a 5 % 6 6 6 6 9 9 9 9 5 o 5 9 9 9 9 9 5 % 0 j I j 5 0 j T T 5 U / @.O.I 9 d Q / R R [  .| Q K ",
"j f h f f j K K j j u 0 K I I f a j 5 % 6 6 6 6 9 9 9 9 5 o 5 9 6 9 9 9 6 % 9 I I g a k U W T a n Y Q W R s d Y / [ Q W W R I j ",
"g f f f p p f f f f u u j K K u a a * % 9 9 9 9 9 9 9 9 * o 9 9 9 9 9 9 9 % 5 g g j u k T I L u s j n n j a s Y / / Y U R I I g ",
"j u f a u 7 9 u p a u 7 a f f 5 u q %   o o o o o o o o X   o o o o o o o   % 0 k k 0 0 g j g 3 0 a s d k 0 0 U I n s k k g g k ",
"j u a a p u 7 5 5 p 0 5 0 u u 3 q * X   X X X X X X X X X     X X X X X X     = q k 9 5 a a a 7 0 0 5 a a 6 6 0 5 u a a a f j a ",
"R I I I I T E P 5 T T I I R R W T 5   o % % % % % % % % %     % % % % % % % X X 0 [ / Q Q / W / / I a n U Y B d 6 E Q ] ) W E T ",
"W W E T P K I P 9 T W W W T I I g =   X o o o o o o o o o X   X o o o o o o o   = Q / / / R R Y I B d a j n B j 0 E W ) W T T T ",
"R I P P K h K j 7 P T T T I I T j * o X X X X X   X X X o o o X X X X X X X X X % U W R R I U Q U B s a s j j n 0 I T T T T T I ",
"T K K P P K j h 3 K T I K I I T I a 5 3 5 5 5 5 * 0 0 u u u u 0 0 0 0 u u q 9 0 5 U U I I I R R R I k a d g j g 9 I T T T I P K ",
"T g g K K g 7 p * h j j f j K K K K 0 q i i a f 5 9 f g K j f f j j h j h a 3 0 * f a a a a a g f a 5 0 a a k a 5 9 g f j g f f "
};
