/* XPM */
static char *c036f6b1b8df48cbfa411cf16f6168b9T08SJ9gPih6O6FtT[] = {
/* columns rows colors chars-per-pixel */
"64 64 187 2 ",
"   c #050505",
".  c #080707",
"X  c #0B0907",
"o  c #0C0B0B",
"O  c #120E0A",
"+  c #14110C",
"@  c #1C140D",
"#  c #0F0F10",
"$  c #100F10",
"%  c #131313",
"&  c #191714",
"*  c #191816",
"=  c #171718",
"-  c #1C1B1C",
";  c #231A0E",
":  c #231911",
">  c #291D13",
",  c #211F1D",
"<  c #2D2319",
"1  c #2A2118",
"2  c #352416",
"3  c #3A2718",
"4  c #362919",
"5  c #30230B",
"6  c #1F1F21",
"7  c #201F21",
"8  c #1F2021",
"9  c #232324",
"0  c #282726",
"q  c #2A2827",
"w  c #262629",
"e  c #28272A",
"r  c #27282A",
"t  c #2A2A2B",
"y  c #322F2B",
"u  c #3D2E20",
"i  c #31302F",
"p  c #3E3022",
"a  c #2E2E31",
"s  c #302F32",
"d  c #2F3134",
"f  c #333334",
"g  c #383635",
"h  c #3B3936",
"j  c #36363A",
"k  c #38373A",
"l  c #37383B",
"z  c #3B3B3C",
"x  c #363937",
"c  c #432D1B",
"v  c #4B331F",
"b  c #443425",
"n  c #483828",
"m  c #563C25",
"M  c #403E3C",
"N  c #463C33",
"B  c #6B3F20",
"V  c #5A4A19",
"C  c #55422F",
"Z  c #43413E",
"A  c #4E433A",
"S  c #5C4833",
"D  c #6B492D",
"F  c #664529",
"G  c #734D2E",
"H  c #624C35",
"J  c #674B33",
"K  c #6C5239",
"L  c #675038",
"P  c #7B5231",
"I  c #745A3F",
"U  c #70563E",
"Y  c #3D3D41",
"T  c #403F42",
"R  c #3F4044",
"E  c #434344",
"W  c #494643",
"Q  c #4C4946",
"!  c #45454A",
"~  c #49474A",
"^  c #47484B",
"/  c #4B4B4B",
"(  c #474846",
")  c #514E4B",
"_  c #524D47",
"`  c #4C504D",
"'  c #54514E",
"]  c #58544D",
"[  c #4C4C52",
"{  c #4E4F59",
"}  c #464551",
"|  c #524F52",
" . c #4C5052",
".. c #535353",
"X. c #585653",
"o. c #56565E",
"O. c #54535C",
"+. c #58575A",
"@. c #5B5B5C",
"#. c #575958",
"$. c #7A5E42",
"%. c #635E5B",
"&. c #7F6244",
"*. c #69605E",
"=. c #595660",
"-. c #5B5A64",
";. c #5A5969",
":. c #615F65",
">. c #636366",
",. c #63626A",
"<. c #6B6B6D",
"1. c #696769",
"2. c #626170",
"3. c #6E6E72",
"4. c #726E76",
"5. c #6E7073",
"6. c #737475",
"7. c #757679",
"8. c #7A7B7C",
"9. c #76787A",
"0. c #8F6B1D",
"q. c #885C38",
"w. c #93623A",
"e. c #886628",
"r. c #A36C20",
"t. c #A67929",
"y. c #8B6B4A",
"u. c #846546",
"i. c #956B46",
"p. c #92704E",
"a. c #987552",
"s. c #A16D42",
"d. c #AB7244",
"f. c #AB774B",
"g. c #B77C4B",
"h. c #BC7D4A",
"j. c #B37746",
"k. c #A27D57",
"l. c #8E7C60",
"z. c #C07F4B",
"x. c #FD931E",
"c. c #CE9322",
"v. c #E19121",
"b. c #E88031",
"n. c #BE804D",
"m. c #AD855D",
"M. c #B1885F",
"N. c #B88A5E",
"B. c #B98E63",
"V. c #A78E6C",
"C. c #C2824D",
"Z. c #C78955",
"A. c #C88B57",
"S. c #C98E5A",
"D. c #C58B59",
"F. c #CC925E",
"G. c #CE9662",
"H. c #CF9966",
"J. c #C49668",
"K. c #CC9C6D",
"L. c #C39365",
"P. c #D09966",
"I. c #D29E6B",
"U. c #CB9E70",
"Y. c #D4A16E",
"T. c #D6A472",
"R. c #D8A673",
"E. c #DDB07F",
"W. c #C2A57E",
"Q. c #7D7E81",
"!. c #7F8183",
"~. c #828384",
"^. c #8A8C8E",
"/. c #86878A",
"(. c #8D8F92",
"). c #8E9193",
"_. c #919395",
"`. c #949699",
"'. c #97999B",
"]. c #999B9E",
"[. c #9D9EA1",
"{. c #9FA1A4",
"}. c #A1A2A5",
"|. c #A5A7AA",
" X c #A7A9AC",
".X c #A8AAAD",
"XX c #DDBB8F",
/* pixels */
"/ o.o.o.o.-.-.f ! ,.o.,...f E / ..+.:.3.4.>.! o.o./ f W %.>.1.) ~ 3.<.1.,.,.4.f Y ;.o.-...a j ! [ O.-.2.2.;.} ;.-.! e z -.-.-.! ",
"Y =.,.,.o./ ..f f ~ ^ E E t M / ' ' / W W | | <...W t Z / / W z f / +.@./ W E Z s ! ! ! E f j E / / ! E Y l Y O.Y j 9 z / ! R E ",
"z ! / [ / ! ^ Y 9 / ^ ' / f f E ^ W E M k f f Z h 9 = & * = % o % % = * = - 9 9 = k M / / j f E E E z k f f f Y E f r Y { { [ z ",
"k ! E E ! ! ! Y 9 E / ' / f t E z z k T T g 0 = o                                 X o - t t t z j f f z z k f k Y z t Y ^ ^ ! Y ",
"t z Y z z z f r - f k z k 9 9 i t r r g q % X                                             X = r t r w a t t r t t r - r f j j f ",
"a t a j a 9 t k j f k z f s y f -.[ ! 9 X                                                     % O.{ [ ^ [ { t z ! f f f f f j Y ",
"~ ! ! o.O.f f E Y / ../ ^ E Y z @.! f o                                                         Y / / ! E ~ f ! O.^ Y z z z z z ",
"E ( / / ! t f z Y ! ~ E E Y k f ^ t O                                                         $ / / [ / ! E a k E Y l z R z z k ",
"E ( ^ / E f z f k z Y E Y k f t f o                                                         X 9 E / / / ! Y t j Y E z f z z k k ",
"z z M z k t j r t a f k f a r - =                                                         o - 9 j z z z z j 9 t f j f 9 a j l f ",
"f f f t t 9 r t 6 9 r f a t e = X                                             X @ > 3 v : - t w a a t t f j t a j j f w t j j s ",
"z / ~ ! k f k f f E / E Y t k e X                                     + 2 m G w.d.g.n.A.H 9 Y E E z f 9 Y { =.;.O.^ E Y ! ^ ~ Y ",
"/ / ^ ^ ! E ! z r E [ [ ! j z 9                                 @ n P s.h.C.Z.A.F.P.I.T.U t Y ! E Y k t Y ^ [ [ / ! E ^ [ { ! z ",
"h Z ! ! E E Z k t Y ! / ! z t =                           . @ F d.C.A.F.P.I.Y.T.T.T.T.T.$.t f z E Y k w z Y R ! E Y Y E R R Y j ",
"f z E ! E E z k t Y Y Y Y k 9 %                           2 q.C.S.P.Y.T.T.T.T.T.T.T.T.T.u.9 r f k Y f 6 z z Y Y Y l l j f l z f ",
"f k k z z E k t 9 f f j f f - o                         c g.A.I.T.T.T.T.T.T.T.T.T.T.T.T.y.9 w e w 9 6 = a j j a t r r w w t t 9 ",
"k z z s t Y z f f Y ! z t f z #                       : f.G.T.T.T.T.T.T.T.T.T.T.T.T.T.J.y.a ! Y z j Y Y z f j [ [ - j =.;.^ E T ",
"^ ! E z f z E / / ^ ^ [ z f t %                       D S.T.T.K.$.4 b m.T.T.T.T.T.K.C X u 0 z ! E z Y E Y Y j f z 9 z { / ! / ^ ",
"E Z Z k f z E / / ^ / / j f t %                     X w.P.T.T.u.< +   H T.T.T.T.T.y.+ + < 9 E ^ z z E ! ! E Y j t 8 a Y / ! ! E ",
"E z z x t k z ! E z E ( j f t %                     @ f.I.T.T.J.J.H . > J.T.T.Y.T.H . 4 p.0 E E f z E E ! ! E Y t - t Y Y E ! E ",
"E z z f f z z E E z z M f r 9 o           @ c 3 X   > g.Y.T.T.T.T.S . 2 K.T.T.H.T.a.: n k.9 f f t k z z z z Y j f 9 a k z z z z ",
"f f t t t j k j f f f f 9 9 6 o         O w.h.h.3   : g.T.T.T.T.T.M.S y.T.T.T.I.G.Y.k.B.m.1 t 6 w f z Y f t a f f 9 t l k j j s ",
"f Y j f f l Y j [ ! 9 t Y ~ j o         > j.C.C.m   @ f.T.T.T.T.T.T.Y.T.T.T.T.T.F.T.T.T.m.f | 9 ! [ =.-.[ r k ^ / ! E ..o.O./ z ",
"f z z j z Y R Y E k t f E ! Y =         3 h.C.C.F   X i.T.T.T.T.T.Y.H.T.T.T.Y.I.F.T.T.T.M.y E j z ~ ^ ^ ~ f f E / / ! ! ! E Z k ",
"f j l j a j j j j l t f E E k = X       ; d.C.C.P     D I.T.T.T.Y.S.I.K.I 4 2 D u.& : $.m.q z a f k z k h t f E ^ ^ ! E ! E z k ",
"f f j f a w t d f f r r j j f = %         @ c P w.    < D.T.Y.G.S.I.T.C         X     O I 0 f 9 t f f f f r t M z k f f f f f f ",
"f a f f a r 9 9 w f 9 9 t f t = = X           : d.m 2 : i.T.Y.I.I.T.M.&       O B 2 O   1 9 t w s r 0 f f 9 9 t 9 t a a a j l f ",
"/ [ [ [ { o.-.^ f +.^ ! W / ^ +.E - X         O g.C.h.d.d.H.T.T.T.T.L   . < H s.C.L.p.: X W ..@.@.^ f M ~ W E f 9 E [ { [ [ ^ / ",
"[ { / ^ E E / ^ 9 / ..' ' ! E E z q = X         q.C.C.C.C.Z.P.T.T.p.: . C L.T.T.T.T.K.C + 0 Z Q Z Z g g h M Z z t ! / ^ ! E ! ! ",
"! E R R Y z Y Y 9 E ^ ( ! E E ^ E h 9 % X       ; q.w.j.z.C.C.S.u.1 + n J.T.I.K.B.y.m y M Z Q ' W Z f g h h M z t R E E E E E R ",
"E Y R E R z z j 9 E E z Z E E ( ! Z i = + X .   - h h b G P P P F u p K &.I K S N % o h W Q Q Q Q Z f g M z z g r E E E E R Y Y ",
"z f f l l f w a - z j z z z z f j j w 9 - % % <.|._.>.d 9 @.8.9.6.9.9.8.!./.(.].|.(.f f h f f f f f 9 i h k z f - t f a d f a a ",
"Y ! T Y z T E r 9 ~ [ ~ ! r 9 t f z ! E 9 = j k k ^ 5.}.9.@..X X X X X X X X X X X X^ E ..t t M E ^ | ..[ ! k [ o.E 9 k -.-.o.~ ",
"z ......[ ^ ..Y 9 E T Z E f t E ( / ( z - r 7..X.X.X X.XQ.E }..X.X.X.X.X.X.X.X.X].o.9 Z _ f g ) ' ' ) _ Q Z E @.) M t z / / R j ",
"z E ! / ^ ! ! E 9 k E ^ ^ k t E ( ! ! f * 9 3.|..X X{.8.R a 8.^.)._._.).^.!.6...f r 9 ) ] z g Q ' / Q W M f f Q Q h t k ^ / / Y ",
"k ! ! E ! ! ! E 9 z E ) / k t z z z k t = % f / ....^ +.~.r t t r r r r r f k  .7.]...) ] k i Q Z Z M M E Z M W Q Z i E / ^ ! z ",
"f z E Y z z k f = f k Z z t 9 f f t r r = 9 5.`.^.).]. X[.! (.].'.`.`.'.].{.|..X|.^.E M M 9 0 g i y q f h h f g h f 9 r k Y z f ",
"j t f f f r 9 t r t f k f r r 9 [ ^ E f = 9 5. X.X X}./.@.t 9.}.}.}.{.[.].).~.>.E t = k k g f t :...../ / / t k E f i f f f f k ",
"~ E Y E ! f r Y z E / [ ! E E s +./ ^ z - = ..Q.6.>...k #./ f [ ../ / ! f t 9 9 l ~.! Z Q W W g @.X.X.' ) ) f / +.^ Z Z Z M M ! ",
"! ! ^ / ! f 9 k Y E ! E T E z s ^ / / E 9 o d o.<.8.^.|.|.+.= <.8.8.9.7.6._.'.(./.<.r h Q W Z f ..X.X.X.' ) f Z ) E z Z ( E Z z ",
"! ! ! ^ E f a a j z Y Y T z j t E / / E 9 # / '..X.X|.Q.R ..E 6.Q.>.@./ f f - % % 9 = g E Z h y ) ..X.X.' W t M W ^ E f E M M k ",
"E z E z k s t a r a f k f a t 9 j T E z 9 . = k E z k .._.|.1.X 9 9 t k ..3./.'.].].z f h f t 9 Z E E E E z 9 g h z z r f z z h ",
"z f f f f r 9 t 9 w r f f a t 9 t j f f 9   X / 6.!.^.[.).o.R 9 ^.^.^._.[.[.`.^.8.>.t t f f t r f f f f h f 9 t k k k e r j j f ",
"z z k f f f f j w z Y Y z t f ! z f t - - X % [ ^.~.5...z ! / , 9.`.~.7.-.! f r f ! 9 f E t T / E M f 9 E / / ..+./ ! E / ) / T ",
"E E ! ! E E E E 9 z E ! ! j f E E E k t 9 X - = f ..o.! n K i.N ..8.z f z ^ ..>.<./ - E / z W ) Q W Z i W ' +...../ / ......) z ",
"k z Z E E E Y z r z Y ! ! Y f z E E z r 9 X - - ! ) A q.N.Y.K.A @.~.R #.>...! f 9 o + ! / E g E Q Q Z r E ! ^ / / E ! / ^ ! ! k ",
"f k z E E E z z r z z Y Y z a f z z k 9 9 X - q % m f.I.T.T.U.%.^.7.a = = = - 9 9 X - M E z f z Z W M 9 Z E ( ^ E Z Z z z T T j ",
"f k k k Y Y Y f 9 f j j j j a a t t e - - X - r , K K.T.T.E.XX` 8.x t r r r r 9 X   9 k z g r s r w 9 - k M z f a t t t t s f e ",
"k f f j r z z j a k Y j a w j f f a s j -   = r q * n V.W.l.Q  .7.z t r 0 - %   = X e E a f ~ T z f T ~ Z f z | [ - f =.-./ ! z ",
"( E E R a k z ! ^ ^ ^ ^ Y a z E E k z k 9   - r r r 9 * & - r d 8.~.9 o   X % 9 r X r / k h E ) ( E ( Q Q W M h E r z ..../ / / ",
"! T Z k f z Y ^ / ^ ^ ^ z t z ! E z E z - X - r r r r 0 0 r r t 1.~.9 % = 9 9 r r o 9 ' k h W ) ! E / ' ) ) ( z t 9 f W / ^ ^ ! ",
"! z z k t f z E E z z ! z t z E z k E z - X = r r r r r q r r t 6.1.f r r r r r r O - Q k k E ( k E Q ) ) ' ) ! f - i E ! ! ^ ! ",
"! z z k a k z z Y z z z z t f j t k z f = . - r q r r r r r r a 7...t r r r r r r % * Z f f k z y M E E W W ! M k 9 f M E E E M ",
"E j f d a j j j f f f f t 9 r 9 6 s j f =   = r q q r r r r r f 7. .t q r r r r r = % s 9 r t 9 9 k z z k s f z j 9 t z z z k f ",
"z l j a d f l l Y Y r 9 f l k w 9 j z z =   = r q q q q r r r f ~.o.t q r q r q r & X r z ! ! 9 W ] *.%.E r h ) ' ( ( ..@.+.) Y ",
"z j l j j z Y Y z z a t Y E E j f Y E z , X = r q q q q q r r r k l r q q q q q r = o f W / W f M Q ) / ( g h Q ' X.) / / ( E z ",
"k j j j d d j j j j a a z Y Y a f j z f =   & r r r r r r r q e.b.t.n r r r r r r - o f ! E T a g z M M z f g Q ' ' Q W ( E E k ",
"z a j f a w r a d f a w f j j 9 a s f t %     . . . . . . . ; 0.x.c.V + . . . . .     7 k z k 6 t f g h g t t W E M g f f k k f ",
"z a f f d a w 9 9 d t 9 t a a 6 t w w 9 o   X X X X X X X X o V v.0.4 o o o o o o X   X r f f w t r 9 f f r 0 t 9 a f f f j z f ",
"^ E E E E E ^ E 9 ! ! E E ^ ~ / ^ E a - X   % % % % % % % % % % r.5 X % % % % % % % o   - / / ' ' E f M W Q Z h 0 ^ ) ..[ / ^ ! ",
"/ / ^ ! R Y E R r ! / / / ! E E E z f =     o o o o o o o o o o 4 +   X o o o o o o o X   t W Q E Z h f z M Z z t ^ / [ / ! ! ! ",
"^ E R R Y l Y z w R ! ! ! E E ! ! z f =                                                   - E ) W Z g f g z z M t E ! ! ! ! ! E ",
"! Y Y R R Y z k 6 Y ! E Y E E ! ! z f - = % % % o % % = = = = % % % % = = % % % o = = = - f W ( ( E f f h k z k r E ! ! ! E R Y ",
"! l l Y Y l w a = k z z j z Y Y Y Y t 9 r r t a 6 9 a a f f a a f s a f a t = 9 = a t t a f f l j f 9 t f f f f 9 r l j z l j j "
};
