/* XPM */
static char *Featured_Image11__1__fotor_bg_remover_2024031520395_resized[] = {
/* columns rows colors chars-per-pixel */
"64 64 199 2 ",
"   c #050505",
".  c #080706",
"X  c #0C0907",
"o  c #0B0B0B",
"O  c #120E0A",
"+  c #15100C",
"@  c #1A130D",
"#  c #121212",
"$  c #1B1612",
"%  c #1A1816",
"&  c #1C1C1C",
"*  c #271506",
"=  c #341D08",
"-  c #241C15",
";  c #2A1D12",
":  c #392109",
">  c #2E2217",
",  c #322315",
"<  c #31261B",
"1  c #37281B",
"2  c #1F1F21",
"3  c #201F20",
"4  c #1F2023",
"5  c #242324",
"6  c #2A2726",
"7  c #262629",
"8  c #2B2A2B",
"9  c #312A24",
"0  c #3B2D21",
"q  c #302F2E",
"w  c #32312E",
"e  c #3B332B",
"r  c #2E2E31",
"t  c #302F32",
"y  c #2F3033",
"u  c #333334",
"i  c #393736",
"p  c #3A3936",
"a  c #363639",
"s  c #383739",
"d  c #37383C",
"f  c #3B3B3C",
"g  c #452D1A",
"h  c #503413",
"j  c #4C3A2A",
"k  c #533A25",
"l  c #443C36",
"z  c #413E3C",
"x  c #3F403F",
"c  c #64441B",
"v  c #454228",
"b  c #56432E",
"n  c #42413E",
"m  c #4C453C",
"M  c #5A4A36",
"N  c #664529",
"B  c #744D2E",
"V  c #735129",
"C  c #674D34",
"Z  c #66543B",
"A  c #775537",
"S  c #6F6637",
"D  c #3D3D41",
"F  c #403F42",
"G  c #3F4042",
"H  c #434343",
"J  c #494744",
"K  c #4A4946",
"L  c #454549",
"P  c #48474A",
"I  c #474848",
"U  c #4C4B4B",
"Y  c #514C45",
"T  c #514E4B",
"R  c #53514E",
"E  c #5B5649",
"W  c #4D4D52",
"Q  c #4B4B56",
"!  c #504F52",
"~  c #535253",
"^  c #585654",
"/  c #595957",
"(  c #55545B",
")  c #595559",
"_  c #5B5B5C",
"`  c #655947",
"'  c #7A5D41",
"]  c #605E59",
"[  c #676348",
"{  c #796A4A",
"}  c #7B744B",
"|  c #676554",
" . c #726853",
".. c #5C5C62",
"X. c #5C5B68",
"o. c #5F6062",
"O. c #646364",
"+. c #676669",
"@. c #6B6B6B",
"#. c #706E6F",
"$. c #646370",
"%. c #6D6C72",
"&. c #736E74",
"*. c #6F7072",
"=. c #747374",
"-. c #777779",
";. c #7A7B7C",
":. c #855A36",
">. c #8C6C35",
",. c #95633B",
"<. c #9A6339",
"1. c #95773B",
"2. c #A36C3F",
"3. c #A57936",
"4. c #FF5A1E",
"5. c #FF691D",
"6. c #FF701D",
"7. c #FF7B1D",
"8. c #FF7925",
"9. c #83664A",
"0. c #8C6B4B",
"q. c #986B45",
"w. c #80774B",
"e. c #897558",
"r. c #987756",
"t. c #A66E40",
"y. c #AA7345",
"u. c #B67947",
"i. c #BB7D4A",
"p. c #A27F5C",
"a. c #83797D",
"s. c #C17F4C",
"d. c #7F807F",
"f. c #97843B",
"g. c #A58238",
"h. c #B88B37",
"j. c #FF891C",
"k. c #FE921C",
"l. c #FC9C1D",
"z. c #FBA31E",
"x. c #FDAB1B",
"c. c #FDB71D",
"v. c #C9952F",
"b. c #F78A25",
"n. c #F79826",
"m. c #F69136",
"M. c #CEAB3E",
"N. c #D9A735",
"B. c #ECAE2B",
"V. c #F9A926",
"C. c #E7AB33",
"Z. c #E5B938",
"A. c #FFC31D",
"S. c #F3C22D",
"D. c #ECC33B",
"F. c #958446",
"G. c #918958",
"H. c #B79944",
"J. c #AC845C",
"K. c #B9A44D",
"L. c #ADA155",
"P. c #958C6A",
"I. c #AF8F6C",
"U. c #B48A61",
"Y. c #BB8F64",
"T. c #BB9268",
"R. c #C4824D",
"E. c #C88A56",
"W. c #CC925E",
"Q. c #CEB24A",
"!. c #FEB14D",
"~. c #CE9663",
"^. c #CF9866",
"/. c #C69769",
"(. c #D09865",
"). c #D39D6B",
"_. c #D09F70",
"`. c #D5A16F",
"'. c #CBAA7F",
"]. c #D6A473",
"[. c #D9A674",
"{. c #DCAA78",
"}. c #DECC5C",
"|. c #CEC56A",
" X c #7F8083",
".X c #838485",
"XX c #86888A",
"oX c #87898B",
"OX c #8D8F94",
"+X c #8F9093",
"@X c #95979A",
"#X c #9B9DA0",
"$X c #A1A2A6",
"%X c #A4A5A9",
"&X c #A7A8AC",
"*X c #A9AAAE",
"=X c #ACADB1",
"-X c #D0AD82",
";X c #E3B887",
/* pixels */
"8 8 8 u r 2 8 D f a F D u u 7 F O.) ) I U W 6 z H q z t q t u a 8 & % # X .           . . o # D X...( Q X.Q 7 Q Q u D y y t D F ",
"L H L ( ( u u H H L U L H H s P _ R ! I U ~ s / O.T z z z f q - # X                           o # y L D L L y Q Q D d D D D L F ",
"H H U T U r y f D L L H F F u s ~ ! ~ U I I u H U H f H u # .                   .           .       4 G G D 7 D H D a D D f f D ",
"H J U ! H 8 8 a f H H H H f u u U T ~ ! U H 8 f J J i q o                     .                       & D D 7 D D G y D D f s s ",
"x H K J f s D 8 u a f f s u r 8 H T U U P f 8 s z H z #                                     .           2 a 8 a D D u r f s s s ",
"f f f s s 8 y 8 7 r u a u r 7 7 s f f f f a 3 q u f u & .                     .   . .                     & 4 7 r y r 2 r u u s ",
"u u 8 8 8 5 7 8 2 3 r r t 8 8 5 8 t q t u a 5 t u s t 5 % .     .     .                                   . 7 D D a r 7 y a u 8 ",
"f P U L s u s 8 t H P F f 7 H P H f 7 3 U +.-.a.O.! H H H #                         .     .                 8 $...L G H Q W U u ",
"U ~ ! U J H I s t P ~ Q L u L J J F p q H U ) / ) U U R ! P 9 ; $ o                       .                 # L L D G Q ( Q G D ",
"z H H H J H H u r D P Q U f F H J H f 8 F U ~ U U H P ! ! ! 9.i.y.,.B k ; O                                 . D Q D G D Q G D r ",
"u f H I H n G u r D L L P f u f H H a 7 f f L P H H H H H H e.`.W.E.R.R.u.<.N ; .                 .           r D D D D D D D r ",
"w f H H H H G y r s d D f u 8 u f f 8 3 z H H D D s s u a s r.[.].].).^.~.E.R.u.:.1           .               7 D r r r r y a 7 ",
"u u s s f f u 5 5 r y u u r 7 7 5 5 & & u s s 8 8 8 7 7 7 7 e.[.].].].[.].]._.~.E.u.B @                       2 7 2 4 4 7 7 7 2 ",
"u u s 8 8 s u 8 8 a f a 7 u F u u 8 s s s t f J f & r U U z r.[.].].].].].].[.].`.(.E.:.+                     2 D 7 L X.Q L G D ",
"W U U s u H P U U ~ ) ~ f z U J H H P J H z H ! ! u _ &.O.) I.[.].].].].].].[.].[.[.).E.B .         .         2 D y ( X.! P Q Q ",
"H x x s s f I U ~ U U P a t H J H f J P J H f u s 7 f U ~ T 0.0./.].].].].].].Y./.[.].).u.,                   # y 7 d L W L L G ",
"x x x u w x x I I x I U u y I I f x K U T U I f 7 2 s H U T 9   Z ].].].[.[.9.@ < 0.].].W.N                   # 7 4 d F L L F L ",
"x f x u 8 p x H n x x J s u x x s x H J K U I x r 2 p H H K M + - T.].].[./.< o j C T.[.(.,.X                 # r 4 d D D F H D ",
"x x x y u f x x G x f x u 8 a u 8 f x x n H n x u 7 i z H K r.@ - Y.].`.[.U.O @ U.].].].).y.O                 % y 5 u d s D f f ",
"s y q 8 q s d a u u u u 5 2 7 4 5 w i u a u y q r - u s i z J.< j ).).).]./.- O U.[.].].).u.@   ; k -         % y 2 y u a u t r ",
"y d y y u s f d G G 4 y D H x & s P ) ) G 5 p H J p n Y ! ^ T.J.U.).~.].].].' Z _.].].].].y.@ X ,.R.<.+   .   5 U f L U Q W F u ",
"y D G a d x G G Q G 8 u U ( W a T T ~ / o.f H Y T T Y T T ^ T.[.[.~.).].].].].].].].].].].y.O O t.s.i.,       8 R P H J P H s u ",
"y d d a a D G D D d 8 a G L G a a F H H n u l K R ^ Y Y T E /.]._.^.(.).].[.].^.].[.].].`.:.. @ y.R.s.g       s ~ U I I H H f u ",
"y d d a 8 y y y u y 8 s G f d 8 u u s s i w p J T T K J K Y I.A < C q.k j 0.].^.^.].].[.).b   ; u.R.u.,     o P I H f f n f s u ",
"r y d y 7 4 7 r r r 7 7 d d 8 5 t q u u y 7 u n n x w i u m { O     O     o 0.].W.~.).].W.;   ; 3.A g .     5 J d u 8 y y y u 8 ",
"8 8 r r r 7 4 4 7 r 4 4 8 8 5 & 7 7 7 q 8 > 7 q 7 q q q u i <   X g *       < /.].).).].q.+ ; B B         o s 7 5 8 y r a d d s ",
"Q Q Q Q X.X.X.D a ..G G I T R _ ..H 6 T R U x q 5 G W W U U % @ 0.s.<.k O   o r.[.].[.).q.,.u.R.N .       8 n q 8 L W Q Q Q L P ",
"W ~ W Q G G X.G y W ~ ( R U G U J n u w w x x p y I ^ ^ ~ P % { {.`.).`.r.-   b ].[.].E.s.s.s.s.g       % K n u u P W Q G L L L ",
"U L G G G D D r 8 I T T U x n J H f w q w p x p q I W U U _ =.| U.`.[.[.[.r.O O 0.^.~.s.R.R.R.,.+     O z n n u D Q G G G G G G ",
"G G G G D D D D 8 H I G I x I K H z 8 w w u p p q x I I U U _ R 9 C 0.r.p.J.N ; j ,.t.2.2.A j <     O i J p l w r G G G L G G G ",
"G G G G D D D r 5 J ] d x x n n n f q q u i i w q G H H I H G u 8 *.+.) T U Y m m m J l $ 6 ;.oX..% u H f f d r r D D D D D G D ",
"G y y d D r 2 4 4 d } [ u d d y u r 5 6 w w u q 3 8 a y a p d 4 +.=X=X*X*X&X$X$X$X$X%X%.U o.H O.@.8 6 u a a y 7 & r 7 r r D D y ",
"f f d d y a y 2 2 G R L.Y 5 7 q u s f F F f q i s p 7 f _ _ o.L +.=X*X*X*X*X*X&X*X*X*X_  X=XOX@.o.o.W W U D a L L y 7 H ..( W a ",
"G ( ~ ( ! ~ O.x 8 ~ U H.K.x q n U U ~ ~ ! ~ ) =.+.W 9 n ^ ) XX*.& _ OX%X*X=X*X=X=X*X*XG o.*X=X=X=X@X_ ~ T U ..$.) D q H U U F t ",
"d H W W U H E L.S d p { S.f.i n J P J H z u p U H p 9 x T U +X=.H u 4 u H ~ o.o.o./ I 8 G /  X#X@X*.G K n q H Y J u 8 H P P H u ",
"f G G U U L I } Z.H.} ] M.S.} H H H z f u a i n K p 8 x o.@.) @.;.%X Xo.U x a a u x G a @X*.U G G x x x f x n Y K i q U W U D u ",
"d H H G G G H G f.V.C.H.Q.A.Z.[ s f s i f x i x m x q U _ %X_ u U #X=X=X=X&X%X%X%X&X$XR #X=X%X#X$X+XU x m x n m K p w H P I H u ",
"u s G D D G x a v N.z.x.S.c.x.M.m 8 8 p p f i i f u 8 ;.W  X#Xs # 8 ~ -.OX#X$X%X&X&X+Xq ( oX%X=X=X+XU x i x w p i 8 2 u G G f 8 ",
"E S >.f.1.g.h.h.v.C.z.k.l.l.5.V.K.H s H I P U U U P I o.) ~ &.] ~ G 3 5 8 o.d. XoX.X/ ( *.H L ( o.~ I x G x 7 d i 7 8 q r r y y ",
"| F.K.v.b.b.j.b.k.l.z.k.8.5.4.8.}.| x f P J J P K P U K U T ! R / / / / @..Xd.d.d. XG W %X$XXX;.@.U U R ^ K i T R H z n z n H H ",
"J m [ f.B.n.b.n.x.x.l.j.j.5.4.!.|./ H o.-.=.-.=.=.=.=.=.#.#.#.@.+.+.o.o.*.@./ ] _ / x G U XX&X=X*X;./ ~ R J w Y U n p K J n n n ",
"P.L.K.M.C.b.b.b.l.z.l.j.7.5.4.!.|./ =.+.=.=.=.=.=.&.=.=.=.=.=.=.=.=.-.=.d.O.~ / / G x %X;.L U ( _ f M >.` J w n K H p H n n f x ",
"U R R [ { F.H.M.C.B.z.k.j.7.4.m.|.^  XO.O.O.O.O.O.O.O.O.O.O.O.O.O.O.| O.@.O.~ ~ R x y o.@X$XXX=._ 5 c 3.q.J q z J J s f n x f p ",
"x x x x s u u l Z N.z.V.B.k.4.6.}.Y ;./ n J H K F l f f i p J J H u 4 2 u o.*.@.O.8 G G G O.oX$X Xq c V >.m 7 p p z u 6 p x p p ",
"x u i y y 8 5 q 3.V.B.f.g.V.b.Z.} a H H f s 7 8 Y I.p.U.B H J u ~ =.( y 3 q q x 7 9 A j i L P G 8 , c c c v - 8 u u r > 8 u w q ",
"s u y y q 7 8 S Q.L. .Y v.A.D.G.a r 7 5 u f D H ( P.-XI.e.~ H u 8 a / *.d.-.o.I G Z ].K.9.j _ +.5 h c c c C W Q ) U G n U W P y ",
"x G I H G G E L.[ L W } c.Z.w.U H D u 8 f L W ! ~ W ~ ) ~ T T n p 5 & & 3 q 8 x / Z '.].`.E.B 9 , h g = : b / / ) U W R ~ R K s ",
"x x G H H G Q G 7 d G F.D.} a H H H f 8 f U Q W W P H U ! T K f p & 5 8 5 5 5 & 8 x '.{.].[.^.1 * = * * * 0 / R W I U R ~ T J w ",
"s f x H H G f s 8 d U K.G.G y x H D s 7 s D L L L D G P H H H f x & o & 5 8 8 % # & [ -X;X{.} $ $ > e * * 1 U U J H P I H H H r ",
"u s x H H D D s 7 a | e.G D r y d f u 4 s f D H D D D f a D H u 5 8 # o o & 5 % + 5 & e [ m & 5 6 w y < 1 m P H x x f d f D f 8 ",
"u s d f D D f r 7 u H f y a 8 8 8 r 5 & u f f u r r r r r u u 7 6 8 7 3 # o . . # 7 7 3 & 3 5 8 7 8 4 5 f n s u 8 8 8 7 8 r r 2 ",
"s 8 u y r y r 7 2 7 y r 8 7 y 7 7 7 7 8 y r y a r 2 2 u f u w 7 6 8 6 8 6 7 5 # o 6 6 8 6 8 8 5 7 8 G x f u f H u & u Q L D a r ",
"H x x G 8 x L I P P W W G 8 D G H f G I G s d U Q y W &.@.) ) R x 5 5 6 5 8 8 3 o 7 6 8 8 5 8 6 8 8 T K K x J ~ L u X.%...~ ~ T ",
"H x x f q d G U Q U U I D 8 D L H f G H H H s u f r s P U P U Y x x 6 6 8 8 6 3 o 8 6 7 8 5 5 8 8 w T T T K x u a 8 z R U P P J ",
"H f x d y s G I I H I I d r D L D s H U I I H s 8 2 u H U U J J x 5 6 8 6 5 6 5 o 5 8 6 8 6 8 7 7 w R R R T K p 5 5 f P U P P H ",
"I x f s 8 u f G G x f G D 8 D G s s H H L I L G r & y G L H P J x x 5 6 8 5 8 5 o 5 5 8 6 7 6 6 7 q K T T R Y G 8 - z J L H J H ",
"D D D D 7 D y D G x f D d 8 a a r a f f H H H f a 7 8 x x x x x x 5 8 6 8 8 6 5 o 5 8 8 8 5 8 6 7 u J J J J H n y 7 f F H H H n ",
"D D y y r y D D d d d d 8 4 8 7 7 y a a s a a u y 5 8 d x w x x x 5 5 6 5 5 5 5 o & 5 7 5 6 7 7 7 8 D s p s s u r 2 u i p u u u ",
"D D y r r y y D y a 7 7 7 r r 2 4 y D D y 5 r s x 8 w x x G x w & o o o o o o o   o o o o o o o X % _ U u 5 n J L p J U ~ U F t ",
"D y D a y D D D G G 8 7 D P L r y G G L H a f I I I I K T T x x % o o o o o o o   o o o o o o o X # | E J i J T R U K T R K f w ",
"D y D y D D y y D D r r D D D a y G G G x a w I U R K I U K x x # # # # # # o o o # # # # # # # # # I U n w n Y ^ R Y K U H n u ",
"D 7 y D r 7 r D r D 7 r D D D r y y D a x w u x U U K x x x x 8 # # o # # # o . o o # o o # + # # o p H i w n Y R T H H J n f q ",
"D y D y D 4 4 D r D 7 7 a D r 3 y y u u q 8 w x G x x u x x x 5 o o     o . . . . o o # # # o o o % W H u 8 p m n n u s s s p 8 ",
"y 4 y 7 r 4 # 4 4 4 2 2 7 r 7 # 4 5 8 8 8 4 3 u q 8 5 6 8 8 x x q x x x y w 8 5 8 y y G I H H G H U J 8 5 & 7 8 5 6 8 8 8 u u 8 "
};
