/* XPM */
static char *thife_l_resized[] = {
/* columns rows colors chars-per-pixel */
"64 64 147 2 ",
"   c #050101",
".  c #0A0504",
"X  c #0E0807",
"o  c #0F0908",
"O  c #140D0B",
"+  c #17100E",
"@  c #19110F",
"#  c #1D1411",
"$  c #1D1C1D",
"%  c #201714",
"&  c #231916",
"*  c #251C1A",
"=  c #281F1B",
"-  c #27201E",
";  c #2A211D",
":  c #31271E",
">  c #34291F",
",  c #1E1E20",
"<  c #201F21",
"1  c #1F2021",
"2  c #242325",
"3  c #2B2523",
"4  c #2D2827",
"5  c #262629",
"6  c #292729",
"7  c #27282B",
"8  c #2C2B2C",
"9  c #302521",
"0  c #342B24",
"q  c #382D22",
"w  c #322D2C",
"e  c #3A2E29",
"r  c #3C3224",
"t  c #33302F",
"y  c #3D322B",
"u  c #2E2E31",
"i  c #302F31",
"p  c #2F3034",
"a  c #333334",
"s  c #393534",
"d  c #3A3937",
"f  c #353639",
"g  c #383739",
"h  c #37383C",
"j  c #3B3B3C",
"k  c #413626",
"l  c #40342E",
"z  c #453928",
"x  c #4A3E2B",
"c  c #423631",
"v  c #453932",
"b  c #483C31",
"n  c #413E3C",
"m  c #4C3F38",
"M  c #4E412D",
"N  c #51452F",
"B  c #42413E",
"V  c #4E413A",
"C  c #534730",
"Z  c #564A31",
"A  c #5A4D33",
"S  c #53453D",
"D  c #5E5135",
"F  c #625437",
"G  c #635638",
"H  c #665939",
"J  c #6B5C3B",
"K  c #6F603D",
"L  c #71623F",
"P  c #373C41",
"I  c #3D3D41",
"U  c #403F42",
"Y  c #3D4045",
"T  c #3D464C",
"R  c #3F484E",
"E  c #3F4950",
"W  c #434344",
"Q  c #484644",
"!  c #4B4946",
"~  c #454549",
"^  c #48474B",
"/  c #47484D",
"(  c #4B4B4C",
")  c #574840",
"_  c #5B4D45",
"`  c #514E4C",
"'  c #5F5146",
"]  c #54524E",
"[  c #414D54",
"{  c #4D4C52",
"}  c #4D4D5A",
"|  c #514F52",
" . c #435057",
".. c #445159",
"X. c #4F505A",
"o. c #535253",
"O. c #595552",
"+. c #595854",
"@. c #54535B",
"#. c #5A565A",
"$. c #5A585D",
"%. c #64554B",
"&. c #67584B",
"*. c #6C5D53",
"=. c #645E5D",
"-. c #746641",
";. c #776842",
":. c #7C6D44",
">. c #7F7046",
",. c #726257",
"<. c #756359",
"1. c #565563",
"2. c #5C5B63",
"3. c #5C5C6B",
"4. c #635F64",
"5. c #646165",
"6. c #6B6666",
"7. c #63626A",
"8. c #6A656A",
"9. c #6E696D",
"0. c #716C6F",
"q. c #636271",
"w. c #6F6B73",
"e. c #716C72",
"r. c #817147",
"t. c #857549",
"y. c #88774A",
"u. c #8C7B4D",
"i. c #907F4F",
"p. c #826F63",
"a. c #837165",
"s. c #877569",
"d. c #8C796C",
"f. c #917D70",
"g. c #91804F",
"h. c #938150",
"j. c #998476",
"k. c #9E897B",
"l. c #A18C7E",
"z. c #A79182",
"x. c #AB9585",
"c. c #AF9989",
"v. c #B49D8D",
"b. c #BDA594",
"n. c #C0A897",
"m. c #C5AB9A",
"M. c #C8AF9E",
/* pixels */
"o.$.$.$.@.2.@.u / 2.@.7.( a W ] o.#.7.w.e.5.| 4.$.^ i ` 5.5.6.W o.0.9.9.7.7.2.w / 3.@.4.{ u I / | @.4.q.q.3.} 3.1.I 5 ~ 1.1.@.h ",
"/ 3.q.q.$.o.| u j o./ ( W u Q ! | ] ] ` o.#.4.8.` v 4 Q O.o.] j ^ =.8.8.$.] | a g / ~ Q W 8 I W / / ~ U U I } 1.~ f 6 I / { ~ g ",
"n ~ ( { ( Q ! a p ! ( ` ( a j W Q Q B j d w 4 < & & & 3 U #.( j U Q ( ] ( ! ( d 7 Q ( ] ! a h W W U I f a a a U I a 6 ~ X.{ ~ f ",
"j ~ Y ~ ~ ~ ~ a 7 B ] ] ! p s B j j j U t = % # O O O # & c ` n j ! Q ~ ! Q Q i 7 B ! ( ~ i f j g f i I P g s j I h u U / [ Y a ",
"p j j h j j a 1 , a d j j 2 8 w 8 7 8 e & # O O . X . X # & c a 7 d j j j d u $ , i s j a , 8 8 8 6 8 a u u 6 u u 7 $ u g h g u ",
"7 8 p f 8 5 u a p s j j a 7 2 Y @.! s % o O o O X O X O O # < i p i a n a 5 p j h h I I f p 8 P } { / Y / / 6 I U u i i i u a h ",
"~ ~ Q @.{ u f W W ! ( ~ W ~ f ! #.` 3 @ @ # @ # # # @ # # # = Q ! ! ` =.+.i a B W ! / W I W s I { ( ( ~ ~ / i ~ { U h j I h U U ",
"n Q ( ` ~ 7 u j I ~ ~ W W j a j | n & @ O X . .       . X # = n S ` ] ] Q 8 p h j ~ ~ W W j p f { / { / ~ I u h U I a I U I j j ",
"Y ! ( ( n a a a j j I Y I j 8 s Q 3 +     . .   .         O = d Q ! ] ! B a d a d h Y Y j s 8 u U ^ / ^ U P 6 a I U f f P h g g ",
"j B B j g p g 7 8 p s j a u 5 8 a & X   O @ @ # # # + O & ; & s n B B d d u d 7 7 8 a s a u 2 7 I I I P I f < u a P f 7 i f f s ",
"i a p 8 7 1 8 5 1 2 8 u p 8 5 5 4 % o @ 0 9 & & w 4 & % *.l.r 3 a a a t 8 - 7 7 1 5 u u u 7 7 4 8 u 8 8 f P u f P f u < i i a 8 ",
"n ( ! ~ d f f 8 s T / U j 7 W ~ n = @ 3 ( 3 % 3 ` 3 & & s.M._ - n O.o.` B d B 8 f W ! Y W 8 ~ ~ U f 6 5 U } 1.3.} { U U { { / h ",
"{ ( ( ( W W Q t a / o.{ ~ g ~ Q Q s & 3 4 # e m w & & & d.v.V 3 Q ! ! S d 4 ; - * - - ; 4 8 j W U U f i I U } } [ ~ U } { } ~ g ",
"d n W ~ W B W a u I / / ! h j B Q W 4 c V S l.f.9 % % = %.r ; s s d 4 - ; r C H K H D M q ; - ; s j i 6 I P U ~ U I I I U U I a ",
"i n W ~ ~ W I u a h I Y I s 8 d j U 3 %.b.b.m.m.l.<.%.a.,.- d 4 - ; r A L g.g.h.g.g.g.g.u.:.D r * * < 3 I I I P P f P a a h h i ",
"8 s f j j I a 2 5 a p a a a 2 7 5 6 * %.m.M.m.m.M.v.d.n.' # ; q Z L g.g.h.h.g.g.g.g.g.g.r.r.u.u.-.x * * 8 f p u u < < 5 5 6 6 , ",
"a j h 8 u n a 8 p g j j 7 g Y a a 8 2 S n.c.b.v.k.&.*.k.; q H y.h.h.i.h.h.i.i.h.i.i.y.t.A x u.i.i.i.L q & 4 P / U < I 1.1.U U U ",
"( Q Q a d Y / | ` o.o.| g j Q Q W Y w 0 z.<.V %.&.%.d.V M y.g.g.i.i.h.i.i.i.h.i.i.i.y.Z k x u.i.i.i.i.t.z & w I I u / 1.} / / } ",
"Y B B a a n Q ( ( ! ( Q a a ~ ! B n B = S l.d.,.*.*.v M L H L g.h.i.h.i.i.h.h.i.i.i.i.x k H D u.h.i.i.h.y.z & 4 7 < a U / ^ U U ",
"Y d n u i j Y Q Y n W ! a a W W f B ! j ; q S S y ; D J w a t D i.h.i.i.h.i.i.i.i.i.r.x F A G K h.h.i.h.h.r.q = 7 , f I U U ~ W ",
"n j n i a j n Y U n j Y a 8 g g w j W B B 3 2 8 0 K t.r Y ..[ 8 K i.i.i.h.i.i.h.h.h.r.x u.Z K x A Z N r.g.h.L = 3 5 i h P U j j ",
"p a i 7 i j j a a a s a 2 2 7 1 2 a d g s 3 = y C C r 4 E ....T q t.i.i.i.i.h.i.i.h.t.z F Z > r q Z A x i.g.i.N & < i g h f i i ",
"i P a a a j j j { h 2 a ~ I 3 * Q | #.$.a ; v ; 3 p f 5 E ......t Z i.i.i.h.i.i.i.i.i.:.F D D x ;.Z -.z u.g.h.:.= 4 W ( | { U f ",
"a j P h j Y Y Y ~ h 6 g ~ w ; = Q ^ ! s = %.b.s.t  ...p Y ......~ k y.i.i.h.i.i.i.i.i.i.i.i.i.D F J q A i.g.g.i.x < W W Q W I s ",
"i P h a u f P f f f 7 h h ; a 2 w j i 9 *.z.m.m.%.P ..I u  ..... .i J i.i.i.h.i.h.i.h.h.i.i.i.u.C x : L h.i.i.h.K * s U Q U j a ",
"7 a f p 7 5 8 u u p 5 8 3 & 3 * = 4 < S m.m.m.M.l.w h [ 8 Y ......P x i.h.i.h.i.i.i.i.i.i.h.i.i.D = A x i.h.i.h.r.: w i i s s i ",
"7 p p p i 8 < < 6 u , & S ,._ l S & & S n.m.m.m.c.0 3 3 3 4 [ ....~ e t.h.g.i.g.i.h.h.i.h.h.i.D k x G J t.i.i.h.i.k < f a P h f ",
"| { | ..@.1.3.h I #.n = f.b.x.S %.4 h e f.m.m.m.k.w E T p - f ....[ w :.h.i.h.i.i.h.i.i.i.i.i.H r.y.m u.i.i.i.h.i.x 0 | { / ~ / ",
"{ { ( / Y ~ { P a ` ] 4 0 S S y f.%.g w y ,.v.n.p.3 T ....E E ......w ;.h.i.g.g.h.i.h.h.i.h.i.h.i.i.y.i.i.i.i.i.i.x 4 } ~ ~ ~ ~ ",
"~ T Y Y I h P u 8 Q ! d 0 d.l.S *.j.< x r.Z b m e 6 3 a T ..........8 J h.i.g.g.i.i.i.i.i.i.h.i.i.i.i.i.i.i.i.h.i.k w U U U I I ",
"j Y Y Y I h h u 8 W W f = y ) %.S p.e K h.h.J 4 E  .T u 3 p E ....[ w J h.g.g.g.i.h.i.h.h.i.h.i.i.i.i.i.i.i.i.i.t.9 s U I P P P ",
"f p a h h u 8 2 2 g s f 3 9 _ %.e m x u.i.h.J a ........R p 6 h [ ..4 Z h.g.g.g.i.h.i.i.h.i.i.h.i.i.i.i.i.i.i.i.J = a p P P f P ",
"I Y I h j I j 2 6 / W ( W ; ; %.V ; D g.h.h.G a ...... .....T 8 8 i & r u.g.i.g.g.g.g.g.g.g.g.g.g.g.g.g.g.g.g.g.r ; t n @.+.{ P ",
"Y o.o.@.( { o.s w / ~ ! W w - 3 ; ; :.g.g.h.G p ..............[ Y i & = :.h.g.g.g.g.g.g.g.g.g.g.g.g.g.g.g.g.g.K - d i Y / / Y a ",
"j W ! ( ! ~ Q j 5 j W ( ! f s j w ; H >.u.h.J a ..................P & & A h.g.g.g.g.g.g.g.g.g.g.g.g.g.g.g.g.>.> 0 B 4 B ( ! ! g ",
"f W W Y ~ ~ ~ h 2 j ! ] ! f t B t ; - ; r C M t [ ................a = ; q t.g.g.g.g.g.g.g.g.g.g.g.g.g.g.g.y.k ; ! B w Q ( / ~ a ",
"a j W j j I j 8 $ a j B j 7 8 a t 8 2 8 3 * & # 3 h T ..........T - 0 t & F g.g.g.g.g.g.g.g.g.g.g.g.h.h.g.M - v n t 1 i Y B j p ",
"8 7 u p i 7 5 7 2 8 s f i 5 2 8 ! W j t - & O . . O * 8 T ....[ p = t t 3 : :.g.g.g.g.g.g.g.g.g.g.g.h.L r - s B n 8 8 i p a a a ",
"~ n n ~ W i a I I Y ! ! W U g h #.! s ; # o         . o # p E I = y ` ` B = r r.g.g.g.g.g.g.g.g.g.g.K > ; B d ! | Q n B B B W Q ",
"Y ~ ! ( W a 7 h j Y ~ Y U I g a d 3 % O                 . O 3 3 ; ( ] O.Q 4 & q K y.g.g.g.g.g.g.L M - : ! ` t B ( B d Q Q B j n ",
"B Q ! ! Y p u p P I I U U I w = & O .                 . X O # % 4 ) ] ] B s t * - > N D G F N r ; - B +.] Q 8 B Q ! j s B n j j ",
"j n Y B n u a 7 8 f a h a < & # o               . O O # # O . O - B B B n i s 8 - - - - - & - ; d Q S B Q n 2 s j n j 5 d n d d ",
"j a p i u 5 7 8 < < 8 4 = % O             X O # % % O .       X - 4 s t 8 - 8 8 1 7 t t t w t t a s a s d p 1 u d d p 2 8 a a u ",
"p j j a a u a p 8 h 4 % + .       . o + # & ; w n 4 O         . # t Q B B d B a d Q ( B Y 8 ! ! B d 8 2 Q / | +.+.| ~ Q ] ] ( j ",
"j Q ~ Q B Y B j 8 I w #       O # % * * w U ! { | h #           + : B ` ! ! ! d i ! { ] ( j ] ` ! ! n t Q ] +.+.] ( ( o.+.o.! j ",
"j j B Y Q B Y a 6 h i # .     + & i d 8 j ~ / / ! j * O         o # 4 n ! ! Q s a B ( ] ( n B B ! S d 8 Q Q | ( ( ~ ! ( ! Q T a ",
"u j B Y W Y Y a u h a & X     X & s a < g I W W Y j 3 +         . o # - y B B s s B Y B B d a d B B t 2 B Q Q Q B B n j d Y B i ",
"i a j j j j d 7 2 i u = O     . # 3 < $ a h P a p 8 2 # .           X + & ; t 2 7 a d s h a 7 8 8 7 1 1 j n h i u 7 7 7 u u i 1 ",
"a i a a 7 g f u 8 a j 4 @ .     O = a s a u a I I 1 7 = X               X @ & & * 4 j j 8 a W B d a B T B a Y ] Y 5 I 1.@./ W h ",
"Q Y Y j p j ~ ( { ( ( n * .     X = j ~ W h s Y ~ p Q w O .                 X O # & = w d j ! ( ! B ! ! ! Q B B W 8 | $.+.( ` ( ",
"Y B B d p j Y ! / Q / Y - O     . & j ! ~ ~ B s 8 2 a w @ .   .                   X # = 8 d ! ] B B ] ] ] ! Q d 8 2 d Q ( ! ! ~ ",
"Q j j a 8 j j ~ Y n B ~ 4 +     . # w ~ ! / ~ I 8 $ a a - # @ + O X .             O = = = d Q W B B ` ` ] ] ( B 8 , d ~ ! ~ Q ~ ",
"Y n j a p j h j I I j I 8 @ .     @ 3 j B W Y j g 2 p j d s w ; = & % # O o .   X * 3 6 = a d g t B B S Q Q Q n a 1 d j W W B B ",
"j a f p u a h h g a a a 2 % .     O ; s a p a a u , 8 f g g d f a a 8 3 ; * % @ # * 3 3 * 8 8 * - d n B a u s d a 2 s j j h s a ",
"h h p p p h P h P h 2 7 8 & X     X * j j 7 f B W j n ! ! ( W f a I j j j j w 3 & 3 * & 3 W n 5 ! +.=.O.B 8 B ` ( ! Q ] o.( W g ",
"a h h f f h Y h I h 8 i j = O O O @ % t ~ a f Q ! { Q ! ( ! B d a j j g j B ~ a * 3 * = B ( Q a B ! ` ! Q a B ` O.] ` ! ` ! Y s ",
"u P P u p p p P g f 8 8 3 * * * ; - = = d 8 s B ( ( Q ~ Q W W g 8 j j g p a j u & 3 ; - B B j u d d B B d w n ! ] ] Q Q Q Y B a ",
"u p p P u 5 6 u 8 6 & & & < 3 3 7 3 2 & w 8 u B B n f s d j d d 2 s g g 8 5 8 4 * 3 - - j d 8 5 t a a s a 8 a S B d s a s d d i ",
"P 6 P P p 7 < * * * * < < 4 3 3 3 3 3 & 8 3 2 8 5 8 u u w a a i u a s h g 5 $ # - ; - ; s g p p a 8 5 d s 8 8 4 2 a g a a P h a ",
"U U U U U U ; & & 3 3 3 3 3 9 < & - 4 * w j j a 5 n / / / ! ^ ^ / ( / ( ! ; * - 2 - * B ] ` ` ` ( B i B S ! B s 8 ! | | ` ( / ! ",
"U U } U I < % * ; < < * = * * & & & * & t j j g p Y { { / / / / { ( ^ ^ Y ; & = * * y O.] ! Q ! B B d s d n B d a / { { / ~ ~ / ",
"} U U U I 4 ; * = & = = = 9 4 t t - 3 w d a j j 8 j ~ ~ ~ ~ ~ ~ W ~ W ^ Y s w 4 t B ` ! Q Q ! ! B B t s s j n d u U / ~ / ~ ~ Y ",
"U I U U I P I f 3 n U U U U Q ^ W n s p a a a a 8 h Y ~ U ~ W U U U W ~ ~ j j a w ! T B B Q Q Q Q n u d d j j a 8 I U ~ Y Y Y I ",
"I P P I I I < < < I I I f f I I P j 5 8 i i f h 1 8 f h I P f h h h h P h u 2 2 2 g a a a d h h h a 1 u a i s i < 8 P h P h a f "
};
