/* XPM */
static char *Featured_Image11__1__fotor_bg_remover_20240315202728_resized[] = {
/* columns rows colors chars-per-pixel */
"64 64 208 2 ",
"   c #050505",
".  c #080705",
"X  c #0C0907",
"o  c #0B0B0B",
"O  c #1A0E04",
"+  c #120E0A",
"@  c #15110D",
"#  c #1B140D",
"$  c #121212",
"%  c #1A1716",
"&  c #1C1C1C",
"*  c #291404",
"=  c #281609",
"-  c #251B12",
";  c #2B1D12",
":  c #211E1B",
">  c #3D240B",
",  c #26211B",
"<  c #2C241C",
"1  c #362617",
"2  c #3B2B1B",
"3  c #1F1F21",
"4  c #1F2022",
"5  c #242324",
"6  c #282726",
"7  c #2C2826",
"8  c #262629",
"9  c #282728",
"0  c #27282A",
"q  c #2B2A2B",
"w  c #3A2D20",
"e  c #312E2D",
"r  c #32302F",
"t  c #3C3A2F",
"y  c #2E2E31",
"u  c #302F31",
"i  c #2F3034",
"p  c #333334",
"a  c #393735",
"s  c #373837",
"d  c #3B3936",
"f  c #363639",
"g  c #383739",
"h  c #37383B",
"j  c #3B3B3C",
"k  c #462F1C",
"l  c #4A3118",
"z  c #553917",
"x  c #663C1E",
"c  c #473728",
"v  c #553B25",
"b  c #433C37",
"n  c #413E3C",
"m  c #5E401A",
"M  c #66461C",
"N  c #554229",
"B  c #42413E",
"V  c #4B4638",
"C  c #4B443D",
"Z  c #574835",
"A  c #595538",
"S  c #644528",
"D  c #744D2E",
"F  c #694F36",
"G  c #6B5330",
"H  c #6C533B",
"J  c #615C3C",
"K  c #795739",
"L  c #6C6237",
"P  c #786934",
"I  c #7C7237",
"U  c #3D3D41",
"Y  c #403F42",
"T  c #3F4042",
"R  c #434343",
"E  c #494644",
"W  c #4B4945",
"Q  c #45454A",
"!  c #48474C",
"~  c #474848",
"^  c #4B4B4B",
"/  c #514C44",
"(  c #514E4B",
")  c #585444",
"_  c #54514D",
"`  c #59554D",
"'  c #4D4C52",
"]  c #4B4B56",
"[  c #514F52",
"{  c #514F58",
"}  c #4F5052",
"|  c #545354",
" . c #595653",
".. c #5C5954",
"X. c #55545C",
"o. c #5A575A",
"O. c #5B5B5C",
"+. c #635A45",
"@. c #7A5E41",
"#. c #615C56",
"$. c #6A6548",
"%. c #766A4A",
"&. c #78714B",
"*. c #6E6955",
"=. c #786852",
"-. c #565561",
";. c #5C5B62",
":. c #5D5C68",
">. c #605F6F",
",. c #5F6062",
"<. c #636364",
"1. c #656668",
"2. c #686769",
"3. c #6C6B6C",
"4. c #706E6F",
"5. c #686771",
"6. c #6F7173",
"7. c #727374",
"8. c #757779",
"9. c #797778",
"0. c #777978",
"q. c #7A7C7D",
"w. c #835D28",
"e. c #865935",
"r. c #8F6D32",
"t. c #9B673D",
"y. c #897736",
"u. c #A46B3E",
"i. c #FF591E",
"p. c #FF671D",
"a. c #FF731D",
"s. c #FF7D1D",
"d. c #FF6F2B",
"f. c #876849",
"g. c #946D49",
"h. c #94714F",
"j. c #94785A",
"k. c #A56D40",
"l. c #A77348",
"z. c #B57A49",
"x. c #A37C56",
"c. c #C07F4B",
"v. c #9A8632",
"b. c #A4883A",
"n. c #B29331",
"m. c #FF811C",
"M. c #FE941D",
"N. c #FC9B1D",
"B. c #FCA31D",
"V. c #FDAB1D",
"C. c #FCB21C",
"Z. c #D0962C",
"A. c #F58827",
"S. c #EE932E",
"D. c #F79725",
"F. c #C7A82A",
"G. c #DEA62D",
"H. c #C6A539",
"J. c #D5AC3A",
"K. c #D5B437",
"L. c #F9A723",
"P. c #F5BA27",
"I. c #E7B132",
"U. c #FEC11E",
"Y. c #F8C329",
"T. c #9E9048",
"R. c #AA9843",
"E. c #BC9146",
"W. c #A9835D",
"Q. c #B4875B",
"!. c #AFA047",
"~. c #AD8762",
"^. c #B58C63",
"/. c #BB8F64",
"(. c #C4834D",
"). c #C8854F",
"_. c #C88B57",
"`. c #CB915E",
"'. c #D3BA49",
"]. c #F4A841",
"[. c #C49567",
"{. c #CE9663",
"}. c #CB9C6C",
"|. c #D09764",
" X c #D29D6A",
".X c #D4A16E",
"XX c #C6A378",
"oX c #D6A472",
"OX c #D9A673",
"+X c #DCA976",
"@X c #DBAA78",
"#X c #EDD767",
"$X c #F1D460",
"%X c #7D7F81",
"&X c #838584",
"*X c #888A8B",
"=X c #8C8E91",
"-X c #8E9093",
";X c #97999B",
":X c #9C9EA1",
">X c #9FA1A3",
",X c #A4A6A9",
"<X c #A7A9AC",
"1X c #AAACAF",
"2X c #ACAEB1",
"3X c #AEB0B3",
"4X c #CCAD83",
"5X c #E3BB8A",
/* pixels */
"q q q p q 5 q U j f U U p p q q y o o           . o     o o % 5 p p a R a 5 g ! R R ! Q j j y ] :.X.X.' :.] 0 ] ! f U i i i U Y ",
"Q R Q X.X.i p R R Q ^ Q R U 5 o o   .                         o % 5 n <.O.u p n B Q ! Q Y Y f Y ' ! ! T Q Q i ] ] U h U U U Y Y ",
"R R ^ ( ~ u y j U Q ~ R y $ . .                                     o q R q p n R Q Q Y R j p h ' } ' ~ U U 0 U Q U f U U j U U ",
"R E ^ [ ~ q q g j R R y o                                               : y u g j U R R U j y p ! ! ' ! Q U 0 i U U i U U j g j ",
"n R E ~ n g U q p g y o .                                       .       o p U q p p j j p p 8 y T Q Q Q T p 8 U U U f y j j p j ",
"j n j g g q p q 8 0 o                       .         .                 o q p 0 5 q p p p q 4 8 p f h p h y 3 8 y p q 3 y p p p ",
"p u q q 0 4 0 0 4 $         .                                         . & 5 9 9 3 5 y y y 9 y 8 y y 0 0 h U y U h f y 8 u f p q ",
"j ! ' Q g p s y 8 o                                     o           . 6 n n R y U [ ] ! Y q ! Q T h 5 0 Q -.>.>.X.] T R ] ' ! f ",
"^ | } } E R ~ g %                         . .                 . X + 5 R E E W r p ! ' ^ Q h Y R R U f y U ] ] ] Q Q ] ] ] ] Q p ",
"B R T R R R E p o                                     X - k S e.t.@.E W W E E p p U ! ' ! h U R R U i y U U ] Y Q U T T Q Q T i ",
"p j E R R B n i o                   .         . + 1 D t.z.z.(._.{.x.W W ^ R R p f U R Q Y f y h T j y 0 U U U U U U U U U U j y ",
"p d T R T ~ T q           .                 # v t.z.).).`.`. XoXOXx.E E E E n q i j h j j u 0 y p g 4 3 f U U U f i y y y p p 0 ",
"r p s g j j p 4 o   .         .         X v u.).`.|.|..XoXoXoXoXOXW.a a g a q 3 5 y q q y q 8 8 4 3 & 3 y i y 8 8 3 4 4 8 0 0 3 ",
"p p f y 0 g p 4                       + D (.`. X.X.XoXoXoXoXoXoXoX~.E u y Y j g j R Q R q U Y U h f Y U U i U ] U 5 Q :.{ T U U ",
"' ^ ^ g p ~ ! p           .         X D ).|.oXoXoXoXoXoXoXoXoXoXoX^.| d j E (  . .| | | f j R R U h Q U U U U U U i -.:.| ! ] ] ",
"T n B s p U Q p o               .   k (. XOXoX+XOXOXoXoXoXoXoXoX}.^.W a n R ( _ | _ _ ~ p f R ^ j U Q Q U U U i i 3 h Q ! Q Q T ",
"T n n s p j B r o                 . e.|.OXOX/.@.@.[.oXoXoXoXoXx.1 Z V p t B W ( E E W ^ p j Q R f U R ! Q Q Q f 3 3 f U Q ! Y Y ",
"T j j p 0 j j y .                 - z. XOX~.2 o   K OXoXoXoX}.c   : B r s B B W B B B E p p Y d p U Y R T R U h y 5 f U U Y Q Y ",
"R j n p p j B q .                 2 )..XoX/.x.@.. < }.oXoXoX^.# @ f.V r j B B B E B C j q y p u q j j j h U j p y 5 f f h j j j ",
"p p y q y s j 0           .       k `.oXoXoX@Xg.  ; }.OX XoX}.< + W.V q s j j j s r p q & q 9 & 8 y f f y y y y 0 3 y f f f y y ",
"i h i i p h j 0 .       = e.e.-   v {.oXoXoXOXx.X c .XoX X|. XH c ^.V j j T T T X.j 5 s ^ { Y 8 Q ] -.X.R q T R Q j ~ ^ ] ' U y ",
"p T j h j U T y .       D (.(.z   k `.oXoXoXOX}.h.~.oXoXOX|. X}.}.[./ j B R E E ^ j e n ^ | ! p ! ^ ^ ^ { p n E ^ ^ R ~ ^ E j p ",
"i h h h h j T p o     X t.z.(.S   1 _.OXoXoXOXoXoXoXoXoXOX X{.+XoX}.A g j n T B n s q B R ^ R p j U R R g q j W ( ^ R ~ E R j p ",
"i h h i y i i i $     O g.).(.D   # Q.OXoXoXOX X{.oXoX[.`.{.[.W.}.}./ f r p s s j p q B B j p q a j s p p q j E R ~ j j j j j r ",
"y i p i 0 4 0 y &       D (.(.D   . g..XoXoX X`. X[.Z ; 1 K w + c ^.C p q 5 q q p r , y d j 5 0 q p p p y 5 p n j p y y y p p q ",
"y 0 y i y 8 4 4 4 o     + k e.e.    S  XoX X`.{.oXZ       o .   . H C g j p 0 , r p 5 q p p q q p 6 6 p y 5 q 5 4 q p p p h h f ",
"] ] ' ] -.:.-.U f f         ; u.x 1 1 Q.oX X XOXW.+     . > x #   , _ O.;.2.3.j ^ #.` _ `  .o.<.O.R p ^ ^ ^ j e q Q ] ] ] ] Q ! ",
"} } } ' ] T -.T y Q 3       # l.(.z.t.z.oXOXOXOXH     # F u.).x.<   T ^ ! ( O.j B ......` W W W C j r t d B d t p ! ' ! T ! T Q ",
"! ! T T U U U y y Q p o     X e.(.(.(.(.{.oXoX[.1   2 ^.oXoXoX+Xf.o q R C R E e b ` ` ` / W / ^ C n r d d j B r U T T T T T T T ",
"T T T T U U U U q R E 5   .   k z.c.(.(.(.{.[.F   - ^.+XOX+XoXW.c u B ^ R R E q d _ ^ C W W / / E B r d b d B r y ] T T ! T T T ",
"T T T T T U U i 5 R j p $     o c v e.u.u.k.K 1 < K W.x.h.f.N % q R R ^ R d j 9 s W C B W W E E W d q b n j h i y U U U U U U U ",
"T i i f U y 3 4 4 f f p u $ g %X=XX.$ : C C C C R W W ( ..2.6.y 0 s f f j q 6 3 7 p p s s p u r r q 5 r p f B 0 3 0 0 y i U i U ",
"j U h p p p p 5 4 U U Q T % } 6.} T 3.T ;X>X>X>X>X>X1X>X1X1X2X3.& R R ~ U R T 5 p ] Q [ W 9 e n n R ^ { Q ) A Q Q f 5 R :.X.} p ",
"U X.X.} ] | ;.s q X.' ( ~ | ;.o.8.>X1X,.%X1X1X1X1X1X1X1X1X1X2X3.B 1. ...| ..O.r C [ ^ ( / e C (  ._ [ ( $.T.1.3.X.j q R ( ! T i ",
"j R } } ^ R ~ j 6 p n R ~ 7.,X2X1X2X>XT 3.2X2X1X2X2X2X2X>X;X1.4 1.*X .| / ^ ( b r C / ` ( u n ( _ ( W / !.y.C ^ C p q R ! Q Q p ",
"j R R ! ^ ~ ~ R 5 s R } ^ ,.;X>X>X&XT i h ,.3.6.6.6.<.| T 4 q s 3.;X^ ( _ ( ` j 6 W ` #.` a n / W E C b.I.+.j / $.I t ^ } ! T p ",
"g R R T T ~ T U 6 s E ( ~ s T ~ T T %X8.4 s 0 4 4 4 y s } 6.:X0.3.,.O.,.E W W s e C _ ` / p b C b d I P.H.B ) b.K.L i R ^ ~ B p ",
"p j U U U U g q & p s n T 3.;X*X-X>X3X%X1.>X>X>X>X>X>X>X1X3X,X,.U ^ >X1.B B s 4 : d n B d 5 r r r L P.Y.!.b.G.L.v.q 3 p U U j q ",
"u 5 y y y q 5 5 & 0 u p u 1.<X2X1X<X=X^ ~ 1X1X1X1X1X1X>X-X3.j $ 5 -X;XR %Xs q q 7 p g g q q 5 j *.K.V.U.Y.L.B.J.A 5 q u y 0 u p ",
"~ U j j T y q U T T ! ^ T X.q.8.3.} T O.j 8.*X*X&X0.O.p 3 $ r ~ X.%X,.^ 3.^ ( _ [ [ | [ ^ E s ) '.M.a.C.B.N.L.K.E.b.b.y.P L L $.",
"R R ~ ^ ~ s q h U Y Q R U p Q ' O.8.>X>Xh 1.*X&X&X&X&X....O.O.O.O. .| | ^ ^ ^ Q Y Y n n j 9 e &.P.i.p.s.m.N.B.D.D.D.A.A.S.G.F.v.",
"R R ~ ^ R p 0 g j Y Q Y U X.;X2X2X2X-X} i T 1.<.,.,.0.1.| | O...O.O.,.<.>.:.2.3.4.3.4.4.3.e q $.$Xd.i.a.m.M.B.V.B.N.m.L.G.y.A B ",
"R R ~ ^ R p p i f g j B E R 6.&Xq.O.T 6.*Xr | ....| 3.%X0.0.0.0.9.0.0.0.j.%X9.9.9.9.9.9.7.a q A #XA.i.a.m.M.B.B.B.D.A.M.D.F.n.v.",
"n U n U j u i q 8 y V r.r.w y Q } 1.;X>X3.3 T } } W <.6.3.3.3.3.3.3.3.3.3.3.3.3.3.3.3.3.2.p 3 A #Xd.p.a.s.N.B.D.D.S.Z.u.r.P A N ",
"n p p p u 0 0 q 5 5 G r.w.2 O.>X2X>X%X^ T j T 6.3.3.3.~ B T B ~ W W ! ^ ! W W ^ ( ( ( [ ( e 8 J ].i.d.D.M.N.L.J.P A t , , y i q ",
"g u p y y 0 q q 0 r S M M l p 1.o.R j j B w 6 W } ^ j $ o 5 } ^ e n f w H H +.V a Y Y g u 8 ! +.J.A.a.P.H.G.V.G.&.} T B ( } ^ i ",
"n T ~ R B U R j q B M M M m # p 1.O.d S T.Q.< r T j } ,.8.%X,.s n ( R K .X5X4X#.p ( [ [ ! p ( ( &.K.V.P.T.&.E.I.K.$.^ ` | _ W s ",
"n T T R T R R j 0 t z l z M 1 T R N l. X.XXXV 1.~ <.<.} s 4 % q n W E / =.=.#.a p Y ( [ ( n / ( W $.K.C.K.#.` *.R.R.` } | ( R r ",
"s s T R R T U j q e * * * > l # G `.oXoX@XXXs ~ 4 % & & 4 5 & q t B W ~ E E E s p R ^ ^ ^ d a C W E A F.P.&.' ~ ~ ) ` ~ R ~ j y ",
"f g T R R T j g q e * * * = * O G @X@X@X5X%.& % : 0 0 7 0 % + y e B W ~ E ~ B i p R j R R a p n B E 7 V J.R.~ ~ n n j h j U j q ",
"s p j j U U h y 5 7 * * 7 q : : & %.XXXX=.: 5 o 4 7 0 4 $   & 5 7 j n n B B p 5 7 a g a a p q q 8 8 & 5 A !.V u y q 0 0 q y u 3 ",
"s y i i y i y 8 3 9 7 6 q 8 7 9 0 & 7 < % 5 5 o $ % o . $ , 0 5 q s s u y s p q q a j p 8 u j p y q j j j A ) Y p & p ] Q U g q ",
"R U B T 0 T ~ ~ ! ^ ' ! Y 8 9 9 6 6 6 6 q q 5 o . $ $ : 0 7 y W W E W s s W _  . .| | _ f R ( ^ R E ^ ( E n W  .Q p :.5.;.| | ( ",
"~ n B j y g T ^ } ^ ^ ^ j 0 9 9 q 6 6 0 6 q 5 o 4 0 0 0 0 0 q V E B E s n B W .. .| ` ^ f d E ( E E / ( ( E j p g 0 C ^ ' ^ ! E ",
"R n U j y s T ~ ~ T Q ! U 9 7 9 q 6 6 6 6 q , o 5 7 0 7 7 0 q B B C C s d B W _ W E _ ^ p d W ( j E ( _ _ ( ^ f 5 5 j ^ ^ ^ R E ",
"R U j s q p j T R j j R j 9 7 9 6 6 q q 6 6 4 o 7 0 7 0 0 7 q n R B B p y n B E E C E W p g E R s E ^ / ( ( ^ C q 3 R R R E R R ",
"T U U U 8 U i U T U h U f 8 9 9 q 6 q 7 0 q 4 o 5 0 7 0 0 7 q j B B B s s B B E R R C E p p d g p B C E W E E j u 5 d R R E R j ",
"T i U i 0 i U U h p h U q 5 6 q 5 0 7 0 5 7 : o 7 7 0 7 7 0 7 r s j s i s j n j j g s p 5 8 q 5 6 p g g j p f p q 4 p j a p p p ",
"U U y 0 y i i U h h 5 0 q 8 q 6 q 7 q q q q & o 0 q q q 0 q q q u s g p p U U s Y f 5 q p j p & n ( ..( p 5 B E ~ s R ^ | ^ R y ",
"U i U i U U U i U T 0 0 U j 5 5 7 5 5 5 5 5 % $ 0 , 5 5 0 , 5 r p U U s B R T R R j q j E ^ Q p ( ` #.` ^ p W ( _ _ ^ / ( E B u ",
"U i U U U U U U U f y y U 5 . o   o   o o o     o o o . . o 4 r i j U s s T B T n g q n E ^ R u n Q W W n r C (  .` / ^ ^ R R r ",
"i i U y y i 8 U i U 0 y j 3 o o o o o o o o .     o o o o o 4 q i j j h i p s s g g q n Y n g u a d j b j r j / _ ^ E E E B j y ",
"U U i i i 8 0 i y i 0 0 f 3 $ $ $ $ o $ $ $ $     $ $ $ $ $ $ $ 4 s p p y 5 q p f p 9 u d n q 9 u p a a t 5 s E B d s p p j s q ",
"y 4 i 0 0 3 3 3 0 0 3 3 5 $ $ $ $ $ $ $ $ $ $ o   o $ $ $ $ $ $ $ 0 y y 0 4 & & 0 q & 4 q y 3 & 5 5 5 9 0 & 5 q 5 q q q q p p q "
};
