/* XPM */
static char *thief_r_resized[] = {
/* columns rows colors chars-per-pixel */
"64 64 150 2 ",
"   c #050100",
".  c #0A0504",
"X  c #0E0807",
"o  c #0F0908",
"O  c #140D0C",
"+  c #17100E",
"@  c #18110F",
"#  c #1C1412",
"$  c #1D1C1D",
"%  c #201715",
"&  c #221917",
"*  c #251C1A",
"=  c #281F1B",
"-  c #27201F",
";  c #2A211D",
":  c #30261E",
">  c #32281F",
",  c #1F1F20",
"<  c #201F21",
"1  c #242324",
"2  c #2B2423",
"3  c #2D2826",
"4  c #262629",
"5  c #2A2729",
"6  c #27282B",
"7  c #2B2B2C",
"8  c #302622",
"9  c #352B24",
"0  c #392E23",
"q  c #322E2C",
"w  c #3A2E2A",
"e  c #3C3225",
"r  c #34312E",
"t  c #3C322D",
"y  c #2E2E31",
"u  c #302F32",
"i  c #2F3033",
"p  c #333334",
"a  c #393534",
"s  c #3B3936",
"d  c #353639",
"f  c #38373A",
"g  c #37383C",
"h  c #3B3B3C",
"j  c #413627",
"k  c #433827",
"l  c #443928",
"z  c #493E2C",
"x  c #433732",
"c  c #443933",
"v  c #493D35",
"b  c #413E3C",
"n  c #4C3F38",
"m  c #3F403E",
"M  c #4D422D",
"N  c #51452F",
"B  c #43413E",
"V  c #4F423B",
"C  c #524630",
"Z  c #564A32",
"A  c #594D34",
"S  c #52453E",
"D  c #5D5136",
"F  c #615437",
"G  c #625538",
"H  c #66593A",
"J  c #6A5D3C",
"K  c #6E613E",
"L  c #70623F",
"P  c #373C40",
"I  c #3D3D41",
"U  c #403F42",
"Y  c #413F48",
"T  c #3D4045",
"R  c #3D464B",
"E  c #3F484E",
"W  c #3F4A50",
"Q  c #434344",
"!  c #484644",
"~  c #4B4946",
"^  c #454549",
"/  c #48474A",
"(  c #47484D",
")  c #4B4A4C",
"_  c #554740",
"`  c #574841",
"'  c #5B4D45",
"]  c #514E4D",
"[  c #54524E",
"{  c #5F5148",
"}  c #424D54",
"|  c #4D4C52",
" . c #4D4D5A",
".. c #514F54",
"X. c #435057",
"o. c #445159",
"O. c #4F505A",
"+. c #535252",
"@. c #595654",
"#. c #595853",
"$. c #54535C",
"%. c #5A5659",
"&. c #5A595D",
"*. c #64554C",
"=. c #67584E",
"-. c #6C5C53",
";. c #615D5D",
":. c #736541",
">. c #766843",
",. c #7B6D45",
"<. c #7F7047",
"1. c #726157",
"2. c #746359",
"3. c #565563",
"4. c #575861",
"5. c #5D5B64",
"6. c #5C5C6B",
"7. c #625E63",
"8. c #646165",
"9. c #6C6466",
"0. c #63626A",
"q. c #6B676A",
"w. c #6E696D",
"e. c #716C6F",
"r. c #636271",
"t. c #6F6B73",
"y. c #716C72",
"u. c #84754A",
"i. c #87784B",
"p. c #8C7C4D",
"a. c #816E63",
"s. c #847165",
"d. c #887569",
"f. c #8C7A6D",
"g. c #917D71",
"h. c #90804F",
"j. c #918150",
"k. c #998476",
"l. c #9E897C",
"z. c #A28C7E",
"x. c #A48F80",
"c. c #A79282",
"v. c #AC9586",
"b. c #B39C8C",
"n. c #BDA494",
"m. c #C0A796",
"M. c #C1A897",
"N. c #C5AC9A",
"B. c #C8AE9D",
"V. c #C9B09E",
/* pixels */
"+.$.4.&.$.5.$.i ) 5...0.| p ! ] +.&.0.t.y.8.| 5.%.Q r ) 8.9.9.! | e.w.w.8.0.5.7 ( 7.3.7.( y I / ..$.6.r.r.6. .6.3.I 4 ^ 3.4.$.I ",
"| 5.r.r.&.+...y h ..) ) B y ^ ~ [ [ ] ] +.%.8.q.@.! y ~ +.+.[ h ) ;.w.9.@.) Q r f / ^ ^ Q 7 U Q / / ^ Q Y I  .3.^ d 4 I / ( T d ",
"m ^ ) | ) ! ) p y / ) [ ~ p h ! ^ ! m m s p s ! B p 7 ) ;.#.) s m ^ ~ b 3 * & & = u Q ..) u h Y Q U h d p p p Q I p 6 ^  . .^ d ",
"h ^ T ^ ^ Q ^ p 7 B ] [ ) i a m m s s T Q s h B ~ b p +.;.#.[ m h ) r * @ + o + # & ; x ! u d h f p p I h h p h I f 7 ^ ( ( Q d ",
"y h h g h h p < < p s B s 1 7 y 7 7 7 h a r r p a 7 < i h m B p 5 p * # X . X . O + @ & 2 < 6 6 7 5 6 p i y 6 7 y 4 , 7 d d g 7 ",
"6 7 i p y 4 y p p p h d i 7 4 T +.) ~ m ^ Q 4 B b 7 r r i r p p r = # O O X O X O . + o % 2 7 I  .| ( T ( | 4 I I y p i y i p h ",
"^ Q ~ $.| 7 d Q Q ^ ) ^ Q Q a ) &.+.[ ~ ] | p %.;.~ B B m m B ~ Q ; # # # # @ # @ % % @ @ < u Y | ) ) ^ ^ ( p ( | ^ d h I h T Q ",
"B ^ ] ] ^ 6 y h m ^ ^ Q Q m p d | ] +.] ^ ! y B ~ ! d Q ! B B B B 2 # X .       . . . o % * 2 d ) | | ( T I 6 h I I d I I h h h ",
"B ~ ~ ~ m p p p h h m T h g y p ) ] ] ] ) T 7 s Q ^ s s B B s m b = O         .     .   . @ * u Y ( ( / ^ I 6 p I I d p I h h d ",
"h T B m d i g 4 7 i d h p r 1 7 h Q Q T B d 4 p g m s 6 a m B m a = ; & O + # # # # # X   X % 7 f I I I P i 1 y p d p 1 y d g p ",
"i p y 7 7 1 7 4 < 1 7 y i 7 6 4 7 p i r d p 4 r p s i < 5 r r r 2 t z.-.% & 2 < & & < 1 # o % 5 y y 6 6 d P y d P d i 1 y p p 7 ",
"h ) ) ^ d p d 7 d ^ / T h 7 Q ! Q h 4 1 ) &.9.9.@.) Q Q ] ] ) s = ' B.d.& & = 3 & & = s = @ * U Y f 6 4 I  .3.6.$.( Y Y ( | ) h ",
"+.) ) ) Q Q ! p p / | | ^ d Q ~ ! s q - ; ; ; ; - 2 q B ] [ ] m 2 V b.f.& & & * w w # q 5 & p Q Q b f y I ^ | | ( ^ ^ ( |  .Q p ",
"s B Q ^ ! Q B i i I ( | / h s a 3 * ; 0 M F J L H C 0 - - r s a q ; t =.= % % 9 g.x.n _ x < d U U b p 5 P I Y ^ Y I Y R Y ^ I p ",
"y m Q Q ^ B T y p h h T h 3 * * e D ,.p.h.h.h.j.h.h.p.L A 0 ; , 3 r * 1.s.=.1.x.N.N.n.n.=.* 7 p g h 5 1 P I I I d d d i p d g y ",
"7 a d h I h p 1 4 i p q - = z L p.i.<.<.p.h.h.h.h.h.h.h.h.h.L Z 0 * & ' M.f.b.V.N.N.N.B.*.* < 6 1 1 $ , i d i y 6 1 1 6 6 6 6 , ",
"d s h 7 y h p y 7 h 3 & 0 :.p.j.j.i.z Z u.i.j.p.h.h.h.h.h.h.h.h.i.J > 3 l.-.=.l.n.n.v.m._ 3 ^ h d p I I f p I ( I < Y 3. .^ Y U ",
") ^ ^ a d B ) [ ] b * l u.p.j.j.j.i.C e M i.j.j.h.h.h.h.h.h.h.h.h.h.i.M V f.*.=.' S 2.c.9 q Q Q I I ^ I I f P I I 7 ( 3. .) ) / ",
"m m m p p m Q | Q * l i.j.j.j.j.p.D H j C p.j.p.h.h.h.h.h.h.h.h.p.L G :.M l -.-.1.f.x.` * p Q ^ h h ^ ^ ^ Y I y 6 < d Y / ^ Y Y ",
"m m h y y m m m ; 0 u.j.p.j.j.p.J G A G z u.j.j.h.h.h.h.h.h.h.h.D r d q H A ; t S S w < 3 d Q U p I Q Q ^ ^ ^ I 6 , p I Y Q Q U ",
"m m m i p m m 7 = L h.h.,.Z Z A C J Z p.M >.j.p.h.h.h.h.j.j.j.H q } o.T t u.J 0 u 1 2 s y y f p y h h h I I h p y 1 p h h h I h ",
"y p y 6 y s a - N h.h.p.z A Z 9 j 8 Z G j u.j.j.h.h.h.h.h.j.<.0 R X.o.} 2 j C Z t = 2 u 1 3 6 $ 4 p f f u 6 p u y 1 y d f f p u ",
"y m p d p h 7 ; ,.j.h.p.l :.Z :.M Z D D >.j.j.p.h.h.h.j.h.h.Z i o.o.o.W 3 g p 2 : c ; q | $.^ 6 d a | 3.| 7 U Q ^ Q Q | ..| Y p ",
"i g g d h h - M p.h.h.p.A e J G A h.j.j.j.h.j.j.h.h.h.j.j.<.w E o.o.o.T 7 X.} a s.n.*.& t ~ / y 2 w 2 ! / p h ! ) ) Q Q ! Q b p ",
"i g g p u u * J p.j.p.j.:.; M C i.j.h.h.h.p.h.h.h.h.h.h.h.H y o.o.o.X.7 T o.T #.M.B.c.-.: a h 2 c d.- s s 7 d ! ) ) T Q Q m m p ",
"6 p d i 6 < : u.p.j.j.p.N Z = A j.h.h.h.h.h.h.h.h.h.h.h.h.M g o.o.o.T y E g r z.B.B.B.M.S = 3 = c =.& ; 5 4 r m s d i i p p p y ",
"6 y i i u * j p.p.j.j.u.H D z j D p.h.h.h.h.h.h.h.h.h.h.i.w E o.o.W 7 2 2 4 0 b.N.M.M.M.S * * S l { 2.S ; 4 7 5 1 7 p p d g g d ",
"| O.O.O...2 z j.j.j.p.p.i.C u.u.G p.h.h.h.h.h.h.h.h.h.j.,.9 } o.X.p 1 p R W 9 l.B.B.B.g.t b 8 *._ v.n.f.; s m r 7 ^ | | } ( / / ",
"| | ) ( I < z p.j.j.j.h.p.i.h.j.h.h.h.h.h.h.h.h.h.h.h.j.:.q X.o.o.( } o.o.E 2 s.M.b.1.t t a *.g.a S S 9 3 s b a y ( | ( ^ ^ ^ ^ ",
"^ T T T h 2 k p.j.p.j.j.p.j.h.h.h.h.h.h.h.h.h.h.h.h.h.j.K q o.o.o.o.X.R i 2 5 r S v Z ,.z ; k.-.S z.f.9 r s B a y I Y ^ ^ T I I ",
"T T T T I 2 8 i.j.j.p.p.j.h.h.h.h.h.h.h.h.h.h.h.h.h.h.j.J 7 o.o.o.E p 1 p R X.E 3 H j.j.L 0 a.S *.S x = s c s p y I I I I I I g ",
"d i p g d 7 * J j.j.j.j.j.h.h.h.h.h.h.h.h.h.h.h.h.h.h.h.Z 5 X.} g 5 i E X.o.o.X.p J j.j.i.z c t *.' 3 3 s a p 6 1 6 y i P P d p ",
"I T I I f h 2 k p.h.h.h.h.h.h.h.h.h.h.h.h.h.h.h.h.h.h.i.e * i 6 y R o.o.o.X.o.o.p H h.h.j.D & M { 2 q | ) ^ I | | h 1 B $.$.| h ",
"T +...+.| ] a & K j.h.h.h.h.h.h.h.h.h.h.h.h.h.h.h.h.h.,.; $ y T W X.o.o.o.o.o.o.i H h.h.h.,.; ; 3 9 B ] ~ ! ..5...b 7 Q ) ) ^ p ",
"h Q / ) ) Q Q 2 > u.p.h.h.h.h.h.h.h.h.h.h.h.h.h.h.h.h.A % & T o.o.o.o.o.o.o.o.o.p H h.p.<.H ; r ~ ~ ! V s d c ~ ~ s 3 T ) ^ ^ d ",
"g Q ^ Q ^ Q ! h % k p.j.h.h.h.p.h.h.h.h.h.h.h.h.h.h.i.0 ; ; r o.o.o.o.o.o.o.o.X.r M C e ; - ; c V B b h ! B B ~ ~ b r ^ | ) Q a ",
"q h Q I h I f 6 # & z u.p.h.h.h.h.h.h.h.h.h.h.h.h.h.F * a 7 - E o.X.o.o.X.R d 2 & & * 3 r - r p r 7 7 s s s t s m 7 , y m m m i ",
"7 6 y i u 6 6 5 4 2 * j u.h.h.h.h.h.h.h.h.h.h.h.h.<.> ; r y & p o.o.X.R y $ + . . @ & - 5 y 5 h %.] ^ ! ~ ! 5 h m 7 q r y y p d ",
"^ m T Q ^ u y I b U a * > K p.j.h.h.h.h.h.h.h.h.u.e * s B c r * R E i # o .         o @ - r s B #.#.#.[ [ [ p ~ [ Q m B B m B Q ",
"m ! ) ) Q u 7 f h Y ^ h 2 = M :.p.h.h.h.h.h.p.J > ; p B B B b ; - 2 +                 . O % - r [ @.#.#.[ ~ p B ) B m B ! B m m ",
"B ^ ~ ) T p y p d I I Y h q * = e N F H F N > ; 8 Q h s Q B B ; # # + X                   X + & 9 ! [ [ [ ! 7 m ~ ~ h s B B m h ",
"h m B m h y p 6 y p d f p u 6 2 2 * * * * * * r h I h 5 h s a ; + X + # @ + o X               o # * t B ! s 4 a s m s 4 d s s d ",
"d p p 7 y 4 4 7 < < 6 y u y y 1 7 p p 7 p 7 1 5 p p p 1 4 p 7 * X       . + & & @ + X             O # - 7 r 1 7 d g p 1 7 p a y ",
"p h h d p y p y y h I I f 6 I Y h p 5 1 h T ^ / ..) Q h ! ~ r #           + : 7 - - * # + o . .     X + # r +.$.#.[ ! ! [ [ ] h ",
"m Q Q Q B m Q g 6 I ( ( ^ d s ^ Q m h 6 h ) | | | / / ) [ ~ 3 @           # c h r m m a 2 * # @ o       @ t #.#.+.) ) +.+.[ ~ s ",
"d m T Q Q Q B d 6 P ^ ( ^ h d Q Q m h 6 h ^ ( ) ( Q ^ ) U q % X         o - B a p Q ) ] ~ a 2 - @     . % p ] ] ) ! ~ ) ) ^ Q d ",
"r h m ^ Q T m p y d g I I g 7 p h h p < g I T Q I I h q = % O           + 7 B p a B m Q B m 3 & X     X & s ~ ! B m T h h T m p ",
"y p g h h h g 6 1 i p p d p 6 y 6 6 < $ i h h p u 3 = % + .             # r d 1 4 p d a d p - #       O - s g p 7 6 5 6 6 i 7 1 ",
"p i d p 7 d p y 7 d g d 7 6 p i u 7 p p p 6 6 = & % # X               o - s m h s Q Q B 3 u 3 O       # q p Q ] Y 1 I 3.$.( Y h ",
"! m Q g y h / ) | ) ) ) h i I ^ Q h Q Q 3 * % # + .                   + 3 B ] #.#.+.+.) h a * O     X * c B B B Q 7 ) 5.@.] ] ) ",
"m m m d p h T / ) ^ ) ) g y T Q U h Q a * % O                       . @ q B ~ #.[ ~ [ [ d 3 & .     O - ~ ] ! s 6 1 s Q ) ) ! Q ",
"Q h m d 7 g h Q T h m Q g 7 I Q a h U 2 = = O             . X O @ # # * r B B ~ ! ! ! ~ g 2 # .     @ 3 ] [ ) B 7 1 h ! Q ! ) Q ",
"B m I p y g h I I I h I d 5 p d 7 f a * 3 2 & X   . o O @ & * 2 3 q a p s B B B B B B ! p * @     . % q ! ~ ! m p 1 d m Q ! Q h ",
"T p d i 7 d g d d p p p 4 1 6 1 < u u * 2 2 = # # # * 2 8 r a p a h f q p h m g h p p r 1 & O     . % q p q p a p 1 p s h h a p ",
"p g d i i g P I I g 1 6 p I g 1 7 f U < % = 1 & 3 s Q ) ) ] ! p i I h g g m Q m ^ g 1 p p * X     . & ! ! 7 B ] ] ~ ~ [ +.] Q d ",
"p g g p d P P g I g y y I ^ T p a U Y b < = 2 * Q ] ~ ~ ) ~ Q s p h h s m B T T B s 7 m q & + O O O * B ! p B ] [ [ ] ~ ) ~ Q a ",
"i P P d y P d P d d 6 i I I P y p d h d = < 2 & B ) ! ! ! ! Q s p h h h i d h s s g 7 a - * - ; * * & 3 t 7 h ` [ [ ~ ~ ! ! s d ",
"i y i d 6 < 6 i i i 4 6 d d p < 7 i p p = = 2 * a m s s d h s p 4 p g p 7 1 7 y p p 1 5 * ; 3 3 2 3 = * & * q b B s p p p s d p ",
"p y d i i y < < 4 y 1 1 y u 6 4 5 6 4 7 < * 2 & ; 4 4 7 y p p p 5 p p g g i 6 1 7 h 5 1 & 2 5 2 2 2 2 1 1 * & * ; 7 h p p h h p ",
"( Y Y Y } Y Y P y ^ ^ ^ Y / ( ( ) T 7 p q & 2 2 - & ; ^ ) ^ / ^ ) ) ) ) | ] | g h #.[ t * 2 - & 1 2 2 2 2 3 2 = & 2 Q [ | ) / / ",
"( | ^ Y I I I I 7 Q | ) ) ^ U Q Q h p y p 2 * * - & ; ) / ( ( / ) | ) ^ T Q / d p [ [ c & * * & & * * * = = < = * & 2 ( ) ^ ^ ^ ",
"Y Y Y Y I d I P 6 Q / ^ Q Q Q Q Q h i y p p r 3 - 3 h / ^ ^ ^ ^ ^ ^ Q ^ m m Q p p ~ ] B w 2 = t q 2 = * * * * * * = u ^ ^ ^ ^ T ",
"I I I I I P d u 1 h ^ I I I Q Q T h i i p p p g y h T ^ Y ^ Q T I Q Q ^ ^ g h y 3 / Q U Q ! U ) ! U q p a u a q 6 s Y ^ R T T I ",
"I P P I I P 6 y , h f I f d I I I g 1 7 r y p d 1 6 g g P I d d h d g h g i 1 1 1 f p d p d d I f u < u p u d u < y P p I g p d "
};
