/* XPM */
static char *Policeman_Robert_2D_Character_Sprite_for_Indie_Game_Developer_fotor_bg_remover_2024031821547_resized[] = {
/* columns rows colors chars-per-pixel */
"64 64 181 2 ",
"   c #161515",
".  c #191616",
"X  c #1D1916",
"o  c #171619",
"O  c #191718",
"+  c #171A1E",
"@  c #1C1C1C",
"#  c #211B17",
"$  c #211D1B",
"%  c #25211D",
"&  c #2A231D",
"*  c #1D1E21",
"=  c #201F20",
"-  c #1E2124",
";  c #1E252B",
":  c #232324",
">  c #2B2523",
",  c #2D2825",
"<  c #242629",
"1  c #282729",
"2  c #25292C",
"3  c #2B2B2C",
"4  c #312A25",
"5  c #342B24",
"6  c #312E2C",
"7  c #3D3226",
"8  c #32302E",
"9  c #3C332B",
"0  c #262B31",
"q  c #2D2E31",
"w  c #302F32",
"e  c #2D3135",
"r  c #2E3339",
"t  c #333234",
"y  c #393735",
"u  c #3B3936",
"i  c #353539",
"p  c #38373A",
"a  c #36393C",
"s  c #3B3B3C",
"d  c #42372E",
"f  c #453A2E",
"g  c #453B33",
"h  c #4A3F33",
"j  c #413E3C",
"k  c #4A3B38",
"l  c #3F403E",
"z  c #4D4134",
"x  c #43413E",
"c  c #4C443C",
"v  c #524536",
"b  c #594836",
"n  c #54473A",
"m  c #55493B",
"M  c #5B4C3B",
"N  c #63523E",
"B  c #343A42",
"V  c #3D3D41",
"C  c #403F42",
"Z  c #3E4144",
"A  c #3F4349",
"S  c #434344",
"D  c #484645",
"F  c #474847",
"G  c #4B4946",
"H  c #454549",
"J  c #48474A",
"K  c #47494D",
"L  c #4B4B4B",
"P  c #514C47",
"I  c #514E4C",
"U  c #54524E",
"Y  c #58534D",
"T  c #464E51",
"R  c #4C4C52",
"E  c #4D4D5A",
"W  c #514F53",
"Q  c #4F5050",
"!  c #4F505A",
"~  c #535353",
"^  c #595553",
"/  c #5B5853",
"(  c #54535C",
")  c #595659",
"_  c #555A5B",
"`  c #5B5A5C",
"'  c #655542",
"]  c #695742",
"[  c #6C5A46",
"{  c #63564C",
"}  c #725E45",
"|  c #725F49",
" . c #665B54",
".. c #645E5C",
"X. c #776147",
"o. c #75624B",
"O. c #7A654C",
"+. c #7F694E",
"@. c #62605F",
"#. c #7F6A51",
"$. c #565563",
"%. c #565864",
"&. c #5C5A63",
"*. c #5C5B6A",
"=. c #625E64",
"-. c #5F6262",
";. c #656263",
":. c #696666",
">. c #6A6867",
",. c #63626A",
"<. c #676969",
"1. c #6B6A6B",
"2. c #736865",
"3. c #706E6F",
"4. c #71706F",
"5. c #79716F",
"6. c #636271",
"7. c #6F6B73",
"8. c #716C72",
"9. c #737273",
"0. c #797574",
"q. c #7B7B7B",
"w. c #836B4E",
"e. c #836D52",
"r. c #867155",
"t. c #8B7356",
"y. c #8C7559",
"u. c #8F785C",
"i. c #907655",
"p. c #947A56",
"a. c #957B5B",
"s. c #997E5B",
"d. c #8A7C6C",
"f. c #977F60",
"g. c #827A77",
"h. c #9E825F",
"j. c #A2855F",
"k. c #9C8262",
"l. c #93806B",
"z. c #8E8379",
"x. c #938370",
"c. c #A38662",
"v. c #A58966",
"b. c #AC8E65",
"n. c #AB8E69",
"m. c #B08F66",
"M. c #AE926B",
"N. c #B69467",
"B. c #B2946C",
"V. c #B8976B",
"C. c #B6986F",
"Z. c #BB9A6E",
"A. c #BF9D71",
"S. c #C19E6F",
"D. c #C19E70",
"F. c #C5A171",
"G. c #CAA674",
"H. c #CFA976",
"J. c #D3AD77",
"K. c #D4AE79",
"L. c #D7B07A",
"P. c #DCB47D",
"I. c #E0B77E",
"U. c #E1B87F",
"Y. c #848484",
"T. c #888584",
"R. c #8B8B8C",
"E. c #939393",
"W. c #9A9797",
"Q. c #A19B96",
"!. c #A2A2A2",
"~. c #B0AEAE",
"^. c #B5B3B3",
"/. c #DFB780",
"(. c #E1B780",
"). c #E5BB82",
"_. c #E9BE83",
"`. c #EEC286",
"'. c #F0C386",
"]. c #F2C688",
"[. c #C9C6C5",
/* pixels */
"~ ` ` $.` &.( t K &.( =.I t F I ~ ` ,.7.8.,.W ..` D w I -.<.>.Z Z a e ; ; - - ; ; 0 B %.R 0 V K E _ *.6.6.*.E *.$.V 2 H $.&.( B ",
"K *.6.,.$.~ W 3 s W L L S 3 D G U ~ L U ~ ^ =.1.^ S 3 J Q Z e - - + $ * @ * % @ 1 1 1 : 2 0 V H K J S S C V E $.H i 1 V K K C p ",
"Z S R R K F K t w G L ~ L t s D J G x s y w u D S i 3 0 - @ X * - : : % : : : @ ^ ` ;.~ ;.2 2 Z S C s i t e t C C w 1 C E E H p ",
"s H S S F S J t 3 C I I L w t C s u u S C j u S S q * @ : - % - - % - * - : : @ S 7.E.>.;.1 O - r i t V s p y s C a q H K K H t ",
"q s V p s s t = = t s j y : 3 6 3 3 3 s 8 l e e : @ @ : % - % : : $ * % % - : 1 >.Y.!.9.` % : @ * ; 2 w w q 1 q q 1 * 3 i a p 3 ",
"2 3 w t q < q t w t s p t 3 1 C ~ L G l x Z ; @ @ : : : : : * @ @ * * : - , : l q.R.!.0.;.: : : * * B S K R 1 V C w w q w w t p ",
"S S J _ R q y C S J L H S S t L _ U U G T a @ - : : @ : @ @ O - = : - 2 1 , 1 y Y.q.R.>.9.1 : : - @ < A H H w K E C a V V s C H ",
"S F L I S 1 w s V F F S C C t p Q Q U T 0 @ % : : : : @ O @ - % : @ % % * @ @ + I 1.>.0.L : , : : @ - A H V q p C V t V V s s s ",
"S G L J V t t t s s C C V p t t T I Q e @ - : - : @   + - : @ O   @ , l x , : l / U I 3 O : 1 1 = = = C C V 3 t V C B t V s p p ",
"u x S s p e a 1 3 w p p t q : 1 l l r @ % : @ @       @ @ @ O O @ : G @._ 8 : I q.0.>.u F % @ 1 = * 0 V V i = w w i t = w p y t ",
"t t q 3 1 : 1 1 = : 3 q q 3 1 : q e * : - X @       O   O @ : : : < G / U q % l @.:.>.s >.u @ @ = * 0 2 i B 0 t B i w < q t t 3 ",
"C K K D i y u 1 i H K C s 3 F J l ; % * + X           - % : : @ @ @ , : : : 1 8 y y u 3 s 3 : @ o * q = C E *.*.( R C C K R R p ",
"I L K L D S D t w K ~ R H i S G l @ - @             X - : @ O O + X @ * 1 3 6 8 t s S G L l 3 % o < p q V C R E K H H R E W H i ",
"p j S D S S S t w V K K J s s S 0 * @ @         + X X + O O @ - : : : : % : : : , , 1 1 t s L F 1 0 t 1 V C C H C V C C C C V t ",
"t u S D S S V q t V V V V y 3 p 2 X X +     X + + X   + $ : : : : - : % - * : : : : 1 1 , 1 1 t H p 2 < V B V V B i B t w a s q ",
"3 y i s s V t : 1 w t t t q 1 1 ; +   @     X +       $ : : : : : % : * : : : : : : : : : : 1 1 1 t q 2 e i e w 0 = = < < 1 3 * ",
"i p u 3 e p y 3 w i s i 1 p V t t t 2 o o O O o X X X X . % : $ @ $ * % $ : @ $ @ @ @ @ @ @ @ O = * = * 0 i V C C = C *.E C C C ",
"L F F t p S J Q Q ~ ~ ~ p s F F S V S e o o O X # X X % # o.i.f X $ X . $ 9 h g f h z v b N ' v 2 q i i B V B V C q C $.E R R R ",
"Z x x t y l F L L F L J y t D F j s G H O X X X # X # & & e.C.[ X # # # # g i.n.B.n.n.n.c.O.v d q V H H H C V w 0 = i C K K C C ",
"s s s t w u Z F x x S F t t S S i S G J e X X # % & & 9 > r.B.n.i.j.X.7 # X # h o.B.#.v 5 # # X 0 V H C H K C V 2 = i V C C H C ",
"l s l e t s s Z C C s V t 3 p i w l x l u f , % & & & 7 4 f.M.G.'.].'.S.} d & d s.U.w.  # $ $ O q s C s s V s t w < w B V V V p ",
"t 8 e 1 t y s y t w y t : : 1 : : t a s a.v.p.] , # 4 , m M.M.L.'.(.n.d.{ { i.I.'.'.G.b 4 | } = 2 t p p w 3 w w w : w t p p w w ",
"q s t i i a s V K V : t H R V : S I T { k.M ' k.t.& & > ] B.A.)._.u.^.[.k 5.x.J.'.U.S.d. . .c 3 K E ( ( K w C S H C S L W L C t ",
"t s s i p Z V Z H s 1 p F R K y D J A [ p.O.b m v.z % & ' B.H.`._.c.Q.[.g.E.z.H.'.b.w.~.2.P 1 t C J F F K w s D L I S D H S C p ",
"q a a t w i B i i i 2 p S Z s q y s a c h.r.m m o.r.% % M B.P.'.'._.D.f.x.d.D._.'.p.j.l.z. .3 e u s s p y 3 u S L G S S S C s y ",
"3 t a e 1 < 1 w w t < w i i 3 1 q t t e +.n.y.o.[ v.7 X n C.).'.'.'.].'._._.'.'.'.b.p.).G.Z.u 1 8 t t t 8 1 t j s p w w w t y 3 ",
"1 q q q w 1 = = 1 w = : 3 t 1 : 3 1 1 t x h.C.+.e.M.[ # ' B./.`._.'._._.]._.'._.`.L.X.P.].L.u t t 3 1 p t 1 3 1 : q w e i p a i ",
"E W E ! ( $.*.s V ) F F G Q L _ ` S 3 J Z m c.k.+.a.h.u.n.M.K.`.'.'.'.'._.]._.].`.`.w.N.].Z.l ` ` S 8 S J D j 6 3 H R R R K K K ",
"R R K K V H E B t I U U U S x D x s t 6 t y c r.k.O.a.C.M.M.A._.]._.'._.]._.].).N.p.X.S.`.w.l G c x 8 9 u j j y e K R R H H V H ",
"H S V V V V V w 6 F J F S S F G x s 3 8 8 y l u 1 % n c.M.M.M.H._.]._._._.'.'._.P.J.P.`.H.x G Y S x 8 u u u j y q C C C V H A V ",
"V V V H V B s q 1 S S s l x D D S l 3 8 t t u 0 o : : z k.M.M.C._._.'.I.j.i.p.s.j.N.V.U.e.u G G D x w u g j u w 3 V C C C V V B ",
"i t t B i 0 1 = : i y y i p t e t t : , 8 t a -   o : @ 9 e.M.C.D._.'._.U.G.V.s.i.h.j.Z.u r 8 t 8 8 : 8 j t t q = 3 w w B B p e ",
"s H V V a V s : < L S K C 1 3 t p V S F H V :   O @ @ O $ : M k.V.D._._._.]._.] 7 j.P.M Z 3 9 l x F Q Q L F V E R s : x _ _ R s ",
"V W ~ ~ R R ~ y 6 K H G S 6 y S L L L L F l o @ : , 2 @ $ 3 : 4 ' a.D._._.].s.$ X b [ l I 8 x P Y Y U L G S W &.W j 1 S L K C t ",
"p S K K J D F s < u S L L y y j G D S l u -   - : 2 1 : O e u @ # = d ' e.w.$ # # : l / Y u l P U G D x s y x G D y , S L J H p ",
"p S S A D S S s : s G U J y w C l u u i r @ O % % 1 1 1 % @ @ o O = # = = V = = : l Y / U t l c x x g j x c x c P j 3 J L K S p ",
"t s V V V V p 3 $ w s C j 1 3 w 3 3 1 y 0 @ @ - + @ : , @   @ % $ : :   = C 3 - 0 l l x l : 8 y 8 8 6 u u u t u u e @ 8 s S s t ",
"3 3 q q w 1 : 3 : q y p w < = 6 K S p p < - @ @ - @ @ * M M % : t s @   w K L V 0 0 l l t w , r ^ L F D D D , s j 3 8 8 t t t t ",
"S S S S H w w V V V J J C C i i _ Q Q F : : : + @ @ & X.P.B.9 % : 1 y e @ l R.W.Y.<.r l S D l Z ` / ~ Y U L t L ~ D j x x j S S ",
"S F J J S w 3 p s S F C C C p i J L Q K : : : % X 9 o.C.L.`.S.[ 4 : t Q l ~ 1._ 9.Y.l l r l l l L ~ / / U L t c L S u D D S j s ",
"l D F L S t w e p V V C V V i q D K K K - : : : : : } M.S.P.L.`.Z.M @ 9 #.n C D T.W.9.~ S Y.!.R.-.K A T Q Z , l D F s u S j s u ",
"l s S s p w t 1 q i t V w q 3 3 s S H V * 1 @ : 1 % 6 p.B.y.e.F.F.U.t.N.].m.9 u 3.E.q.E.R.q.q.Y.q.1.-.l T Z e l u j y 1 y s s u ",
"i y t q e : 1 3 = = 3 t w w 3 = q t t q * 1 : O - : - 9 r.k.+.e.L.'._.`.'._.V.w.c 3 1 i T ` q.~ Y.R.I F <.4.T 0 y p t : 3 p y 3 ",
"y i i y t 3 y e 3 B C V V = C C i t 0 - : : : @ + % % - , } k.k.G.U.`.`.V.G.].U.N N y Z ~ ; l t _ q.-.E.E.<.a Q ` I F D U ~ L u ",
"V S S S S x S i 3 V H K F i s S S l r - : : : % X O - % : % z y.b.D.(._.L.K.P.} ] ).j.u Z a P G Z l 0 T 1._ A ~ ~ L L ^ ^ U G p ",
"y s S S S S Z y 3 s C K H s i V S x a - : 1 : 1 : - - % < 1 2 8 k t.B.c.K._.w.e.m.j.k.i L l x D P G l 0 a Z Q I L D J L J J S y ",
"t p Z S S S s y 0 B V V V a 3 y s l t - @ - : : 1 , 1 3 8 8 8 8 : 6 } f.n.O.b D.(.O.x i x u t s x x 6 : S D F D x s s s s V s t ",
"w y a s s s i 2 = e t t t t 2 3 3 2 : + - @ O @ X @ - : , 2 1 1 : = $ 5 h 9 D.a.r.g 3 y y t 1 3 1 1 @ * p s p y 3 1 1 0 3 q q : ",
"t t y e 3 p i q 3 t s i 3 3 t w t 3 w t < : : : : @ @ @ @ @ * @ X ; 1 3 3 1 o.[ y S D V 3 y S V l t Z S x y j R C : V $.E K C s ",
"S Z S p 3 V F K R R R L s 0 V H S s S D i - 1 : 1 1 1 3 8 3 % , - 8 8 8 8 3 , 3 L ~ ~ U p s G P c S P P G S x S S q R ..) L W P ",
"S s s p t s C J L D K J p q V F V s S F H 0 : 1 : 1 1 w 8 e - X : , 1 8 8 e 8 0 A L I P t y G I D x I U U P D y 3 : s G L J J S ",
"S l u y 3 i s S S s s F p q V C i s S D F A < : 1 : 1 6 8 8 -   @ @ : 3 e 8 8 3 r D D L y p D D l Z P P U U L S 3 @ s S F F G S ",
"S s V i 3 a s V V V s C i 3 i i 0 p j V Z Z < : , : 3 8 8 e < @ - < , < 8 e 8 1 3 S x D t w s y 6 l D c G D S l t : u j S S x j ",
"s i t q 3 i a a i t t t 1 * 1 : : q t i i 2 @ : : < 1 8 8 8 1 @ - & : , 3 3 8 2 2 y t 8 : 1 3 * : y s s t e u p t : t p s s i t ",
"i a i e t i V s V B = 3 t V p < 3 a S H r @ : 1 1 1 q e e e * X : : < 1 w 8 8 1 r s : t j J j 1 G /  .^ x 3 c G L F L U ~ I S y ",
"y i a i a B s B V p 0 w V H C w t V S D 0 - , : : : 6 8 8 : @ @ @ 2 % q e 8 8 - r u 3 l G L F t x G U G D t x P Y ^ P G G F S y ",
"w i B r q i i B i i 0 w V V V 3 t i s V < * : 1 : : q e 6 - r - % : 2 q 8 8 8 - a i 3 s S S s t u s j j s 8 j P U P D D D S l y ",
"w w i q q = 2 e e t 1 1 t p e = q e t t < o : : : : 8 8 : - l ;   + % % 1 : - - t y : e p u 3 : 6 t y y t , 8 x x s t t y y y w ",
"i q B B q q = = < w = < 2 i q = 2 1 < ; @ @ O @ % q 8 8 : e e + * @ @ * * @ + + e u 3 3 t y e q t 1 > u u 3 6 3 : t p y y a a y ",
"C C C C R C K B 3 K K S C R C R L Z 2 - @ - : * @ @ % * ; A l + % % - 3 1 : - @ e U U P U U L U P x 6 j P D j y 3 J ~ Q R L K F ",
"E E H H C V C V 3 H I R R J C S l l r - : * : 2 , - : @ * l e @ % : : 2 , 2 1 1 @ B ~ / U D D G S x 8 y u j j s w L R W K H H H ",
"C C C C V B V i 1 C H H C C D H l a e o @ : : % 2 , 1 1 1 - 0 @ : : : 2 2 , 1 1 : 0 L G D D G L D x 8 t u u j u w C H K F H H A ",
"C V V C C p p t = C C C j C C S l l 0 + @ @ @ @ - : 1 % - - e X @ @ @ = = : * = * < S S x D D D S x w u u u s t 3 C C C H V V V ",
"C B V B B p 0 3 = B V p p B V V l l 1 : ; - - ; + + * - + - r 0 0 2 2 0 2 ; + + * 0 t t y y i s p e : w y t t w * q B i B B i t "
};
