/* XPM */
static char *Policeman_Robert_2D_Character_Sprite_for_Indie_Game_Developer__2__fotor_bg_remover_202403193658_resized[] = {
/* columns rows colors chars-per-pixel */
"64 64 167 2 ",
"   c #161616",
".  c #181616",
"X  c #1E1916",
"o  c #151619",
"O  c #191718",
"+  c #171A1D",
"@  c #1C1C1C",
"#  c #201B16",
"$  c #221E1C",
"%  c #25201C",
"&  c #2A221D",
"*  c #171B20",
"=  c #1D1F21",
"-  c #201F20",
";  c #1F2023",
":  c #1E2429",
">  c #232324",
",  c #2A2624",
"<  c #2C2826",
"1  c #242629",
"2  c #292729",
"3  c #26292C",
"4  c #2B2B2C",
"5  c #302722",
"6  c #332B24",
"7  c #302F2E",
"8  c #3B3025",
"9  c #32302E",
"0  c #3B322B",
"q  c #262B30",
"w  c #2E2E31",
"e  c #302F32",
"r  c #2E3134",
"t  c #2E3539",
"y  c #333334",
"u  c #393735",
"i  c #3A3936",
"p  c #353639",
"a  c #38373A",
"s  c #36393D",
"d  c #3B3B3C",
"f  c #41362B",
"g  c #44392E",
"h  c #433C34",
"j  c #413E3C",
"k  c #474037",
"l  c #4F4234",
"z  c #42413E",
"x  c #4A443C",
"c  c #544536",
"v  c #574A3D",
"b  c #5C4C3B",
"n  c #62503D",
"m  c #363C40",
"M  c #3D3D41",
"N  c #403F42",
"B  c #3E4044",
"V  c #3D4549",
"C  c #434344",
"Z  c #484745",
"A  c #4A4946",
"S  c #454549",
"D  c #48474A",
"F  c #47484C",
"G  c #4B4B4C",
"H  c #554B44",
"J  c #514E4C",
"K  c #5A4D4A",
"L  c #4F514F",
"P  c #5D5042",
"I  c #54524E",
"U  c #4C4C52",
"Y  c #4D4D5A",
"T  c #514F53",
"R  c #4E5153",
"E  c #4F505A",
"W  c #535253",
"Q  c #595654",
"!  c #5A5855",
"~  c #54535C",
"^  c #595659",
"/  c #565B5D",
"(  c #5B5A5C",
")  c #655543",
"_  c #695743",
"`  c #675846",
"'  c #6C5A45",
"]  c #62564D",
"[  c #6D5C48",
"{  c #725F49",
"}  c #645951",
"|  c #625E5D",
" . c #75624A",
".. c #79654D",
"X. c #7E6A4F",
"o. c #7A6753",
"O. c #7D6951",
"+. c #565563",
"@. c #575861",
"#. c #5C5B63",
"$. c #5C5C6B",
"%. c #625F63",
"&. c #636164",
"*. c #6A6666",
"=. c #676866",
"-. c #63626A",
";. c #6C6A6C",
":. c #706761",
">. c #716C6F",
",. c #75706F",
"<. c #636271",
"1. c #6F6B73",
"2. c #716C72",
"3. c #757474",
"4. c #787574",
"5. c #7C7C7C",
"6. c #826A4E",
"7. c #896F50",
"8. c #867054",
"9. c #8B7355",
"0. c #8D7559",
"q. c #907653",
"w. c #947B5C",
"e. c #9A7E5C",
"r. c #9D815D",
"t. c #A1845E",
"y. c #9E8362",
"u. c #9D866B",
"i. c #8F857E",
"p. c #948371",
"a. c #908579",
"s. c #A28662",
"d. c #A58965",
"f. c #AA8C65",
"g. c #AE9066",
"h. c #AF926B",
"j. c #B3956C",
"k. c #B89669",
"l. c #BB9A6E",
"z. c #C19F6F",
"x. c #C19E71",
"c. c #C5A06F",
"v. c #C5A272",
"b. c #CAA575",
"n. c #CCA877",
"m. c #D2AC77",
"M. c #D4AE79",
"N. c #D8AF7A",
"B. c #DDB47D",
"V. c #E0B77F",
"C. c #E2B87E",
"Z. c #838383",
"A. c #868887",
"S. c #8A8A8A",
"D. c #908988",
"F. c #9B948E",
"G. c #929292",
"H. c #9E9897",
"J. c #9B9B9B",
"K. c #A2A2A2",
"L. c #B8B4B4",
"P. c #E4BB81",
"I. c #E9BE83",
"U. c #EEC286",
"Y. c #F0C386",
"T. c #F3C889",
"R. c #D6D4D4",
/* pixels */
"W ( / @.^ #.~ y D $.W %.U y Z J W ^ -.1.2.&.T #.^ Z 7 J %.&.*.C W >.;.;.-.-.#.7 F $.~ $.G 4 M F U / %.<.<.$.Y $.+.M 1 N $.+.~ M ",
"F $.<.-.@.W R w d T G G C 7 Z D W I J I T ^ %.;.Q Z 4 Z Q Q J d Z &.;.;.^ T I y a G S Z C r M S F F S N N M Y +.N p 2 N D U M p ",
"M C U U G Z D y 4 A G W G y d Z A Z z d u e i Z Z i 4 D | ! G j N Z G I I Z G i 2 C A I G y d C S N M y e y y N N y 1 F Y Y S p ",
"M S C C S C S y 4 C J J G e y j d d i C C j i z Z j y T | Q J d d D Z C Z Z C 9 2 z G L Z 7 y d p y y M M d y d N M q N F F S y ",
"w d d d d d y - $ y d N i > 4 7 4 4 4 d u y 9 y 9 7 % y d C C y 4 s d i d u r @ @ r y s y = 3 7 4 3 3 e e e 3 w w 2 @ q p a s w ",
"3 4 w p q 1 w y y y d a y 4 1 N W F Z z C C 2 d j 4 y r 3 : : ; + = : 3 : : r d s i B j y y 2 m E U F N F U 2 N N e y w w w y a ",
"C C D ^ U 4 a C C S G S C C y G ^ W I D G W u ! | S p 1 3 3 4 @ ; @ @ @ @ @ = 3 r V F Z z B i B T F G S S S y D U N p d M d N S ",
"C Z G J C 4 e d N S Z C N N y a I L W L Z C y B d = S ( | | | > > > > > ; > ; @ @ = 3 s B B 9 t G U U D S M q a S M p M M d d d ",
"C Z G D d y y y i d N C M i w y G I U G G C 3 3 @ @ d | S.A.Q > > % ; > ; % ; % ; ; - @ 3 t 7 r U N Y N N M 3 r M M p p M a a p ",
"d z z d i e a 2 4 y p a y w > 4 d C C C B a : @ > ; i ;.G.G.3.d > > > @ $ ; ; > > > % ; - - : 3 p m M M M p - w y p p 1 w p u p ",
"9 y w w 4 > 2 3 = > w w e 4 2 1 4 9 4 y y q @ ; > @ C *.G.J.5.W > 2 2 > ; @ @ @ - ; ; > > ; @ : w w 4 4 p m w p m m w - w y e e ",
"N F F S i y i 3 p C F N d 4 S C C d 3 , F > ; > 2 > i 3.;.>.4.u > > > 2 > > ; % @ @ ; % % ; ; - - p w - N Y $.$.~ F N N U U G a ",
"J G D D C Z Z y y D U U S y D Z Z C i 7 B > > > 2 2 > i ( | Z 9 $ @ 2 > % @ @ @ ; - + @ - > - ; - q p w M N Y Y U S N Y U Y N a ",
"i C C C C C z y e M F U D d d C C z u 3 B 3 @ > 2 @ 2 4 C | 4.( 3 9 Q Q u @ + O @ @ -   . + - - - - 1 q m M N N M M N N N N N y ",
"y d C C C C M w y M M M j p 4 u j C 7 1 M a @ @ @ $ G I ! 4.,.I > 9 ! | j > > % @ . .       . @ - - = q M M M M m m m r y p M w ",
"7 i i d M d y 1 1 w y y y w , 3 1 3 = @ y s = o % > d i u j i 9 2 , 3 9 3 @ @ > - - -   .       O = - = r p r w 3 - - 1 1 2 3 = ",
"p a s 4 7 i p 4 4 i M i 3 a N y e e i i d y 3 O % 7 B Z C j i y 9 4 1 @ @ . O @ @ % @ @         O @ - - q p m N N 1 N $.Y N N N ",
"G C Z y a C D R L W W R p j Z D C j Z Z C B q 4 C A d 7 2 2 1 2 2 > > % > > ; @ + . @ @ @       o O O - = m m M M w N +.Y U U Y ",
"B j B y u j C L G Z L D y y C G N d D G S y d N 9 2 , 2 2 , > > ; % > ; > % > % > ; @ .   @ @     O @ O 1 M M y 3 - p N U F N N ",
"j d j y r d z C C z z C y y C C u N Z D t w 7 , 1 > > ; ; > ; > > ; > > > ; > > > > @ .     . @     O = m F N a 3 - p M N N N N ",
"d d d r y d d C N j d C y 4 p p 9 d C s = > > @ % % $ @ @ @ @ @ @ ; $ @ @ @ @ 6 0 @ X X X X . . O O = s M M d p e - e a M M M a ",
"y y y 3 r i a u y e y y 1 > 3 > > y p s w q w 4 n X.8.8.X. . .{ { c X @ % # $ 9.r.8 % X X # X .   ; M d w 4 y e e 1 e p p p e e ",
"9 d y p y d d m U M - y C U C > C T ^ ^ D 4 C w % 6 c 9.q.h.g.r.n & X % 8 f c g.s.0 6 & % # X X O m ~ ~ U 4 M Z D N C U T U N p ",
"y d s a d B B B S d 2 a D U G y Z D G J W u z r X X X % 0 c.7.5 X % l r.M.B.m.j.f.f 0 & & & % X > M D D S y d C G G C C Z N N u ",
"r s p p e a a p p p 3 a B B d 4 y d d d i 7 d M ; n 0 % n U.I.k. .c O.g.N.Y.I.l.h.) < 5 & % l  .8.H M d p 4 i C G G C C C d d y ",
"3 y p r 3 1 3 w y y 1 w a u 4 3 e y y y 9 2 u x i { ] } j.P.Y.I.u.:.K L.D.v.U.b.h.0.< 5 #  .y. .8.w.a y 9 , y j d u e w y y y 9 ",
"q e y w w 3 - = 2 e - - 4 y 3 > 4 2 3 u 7 > 2 7 3 0 H H.p.r.P.N.a.S.,.R.F.j.U.V.j.8.& % g d.b b ' w.d d y 3 4 2 > q y p p s d p ",
"T U U Y ~ +.$.a d ^ G D A G L / ^ N 7 A L Z j 9 > u *.i.y.7.C.U.l.p.p.u.z.U.U.U.v.6.& $ ....l _ 0.8.u C D Z j 7 4 S U U F U F F ",
"U U U S M S Y M y J I I I C x Z z j 9 9 y j j i 3 ` v.n.b.7.U.U.Y.C.C.I.U.Y.U.U.v...@ 8 y.` ..w.d.H 7 y u h j u r F S Y S S N S ",
"S S N M m M M e 4 Z G D C C C A z d 4 9 9 u j i 3 ` U.U.r.g.Y.U.Y.Y.Y.U.U.U.U.U.v.8.< n h...8.j.X.u 9 u u j j u w N N N N V M M ",
"M M M V M s a w 4 C C j z B C C C d 4 9 9 u u 9 q x B.I. .b.I.U.Y.U.U.Y.U.U.U.V.l.h.y.y.r.8.f.8.i d 9 i h j h e w M N N M M M m ",
"p w p s s w 3 - > a y y u a u r y e > 4 9 9 y 7 > 4 f.U.r.7.t.B.Y.Y.Y.U.Y.Y.Y.n.h.h.h.w.) O.` y y 9 2 9 a u e w - q w w m m m p ",
"d S M m i M M > 3 D S G C , 4 y i N C D S C i C C m P P.I.C.C.C.B.M.m.I.Y.U.V.j.j.j.r.k @ ; y z C A L R G S M U U M > j / ~ U d ",
"N W W W U T W y 7 G C Z C 7 y C G G G G D D W =.! A r r.z.7.9.X.6.q.k.I.Y.I.x.j.h.8.9 ; ;   y I I I I H A C T %.T d 3 C G D N p ",
"i C F U D C C d 2 a C G Z u y C Z C C d i y u C C i 4 k z.v.7.q.B.U.Y.U.I.b.j.s._ & @ - O   @ B H G C x j u j H A u 4 C G D S a ",
"p S C C S C Z d > d Z I G p y j j d i u i d i z x z 9 d ` r.% % g.T.Y.Y.n.s...0 % ; @ ; , ;   > z k j d z z k A H d 7 Z G G C y ",
"y d N d M N a 3 $ y d z j 2 2 e r 4 2 y u y 9 y i y > y s 9 # @ 8 f.k.w.P 0 O 2 i ; ; 2 2 > @   q 9 7 i i i 9 i i 7 @ 9 j B d y ",
"4 3 w y e 3 > 4 1 4 y y e 2 , 4 D C i i s B 2 9 s 2 % 7 9 r 3 & - e , - @ O @ - % @ , 2 2 ; %   3 G A z Z Z 2 d M 4 7 y y y y y ",
"C C M C C e w M M N G D N N a a W R L F F L y C L C d j j j m r 4 C - O - - @ @ @ @ 1 , ; @ @ @ > L ! I Q G y G W C k z z z C C ",
"C C D G C w 4 d d C S C N N a e D L G G Z Z 9 d C B i z z m 4 i G S , o , N - , 0 n & @ @ ; @ ; ; Z ! Q I Z y x J C i Z C z z d ",
"C C Z G z r 7 y a M N M M M p e S G G U F C 4 p B B s m t R Z.G.A.B > u 7 3 $ 2 6.C.q.8 $ @ O > @ M Q Q I Z 7 j Z Z i i C k d d ",
"d z B M d r y 3 w y y M y e q 2 d C C B C d 3 r V E B u i =.5.! =.W d F 2 , b g.U.B.l.O.0 @ % 3 > r Z Z C d > u i k d 3 i d i i ",
"i y y 7 7 1 3 3 - - 3 e e e 3 - w p p r t V R 5.J.J.=.^ 3.K.J.x i ) r.g 0 e.B.B.l.v.h.[ > , , > > 3 y y i y > 4 a y y > 4 y y r ",
"y d a a y 9 y 9 3 M N M a 3 N N s t V / F W ;.;.,.5.Z.Z.=./ 3.i v c.T.c.v.U.g.t. .g.8.7 > > @ ; > 1 4 , Z G W W ^ R Z Z W I G d ",
"B C C C C z C a 4 M D F S y j C V B &.=.&./ K.3.F R d C t < g f.B.U.B.U.Y.U.l.o.r. .< > > @ @ > > ; d 9 A I ! Q Q G J W Q I A i ",
"i d B C C C C y q a S S S d p j z t R J.Z.B F m m m m R k f. .r.U.l.z.U.U.v.h.w.v > > > @ . @ > 2 @ q 7 Z A J J G C D G G Z C y ",
"y i B C C C d p 4 a m m B a q u d M s r t s B V C d d r [ N.w._ r.U.B.x.x.w.' 0 > > @ @ @ % > , 2 ; : > C C Z Z z d M d d M N y ",
"r y a d d d p 3 1 y y y y t 3 7 3 3 ; @ r d s y w 4 4 3 j  .x.m.b t.k.r.o.9 4 7 7 7 7 2 2 , 1 1 ; @ @ ; d d i y 4 3 1 4 4 w w > ",
"y y y y 4 s y w 4 y i p q 4 y w e 4 y y y w y M M - w D R d w.t.g.k n k % ; > 7 7 7 , > - - - + @ q C C k y C G C > M +.E S N d ",
"C C C i w M S G U U U G d e M S C d C C C M p C F e F %./ Z y ` 9.6 < , > - @ % + - @ @ @ - - & ; s A J G z z C C w U | ^ J T G ",
"C j M a y i C D F Z F D i w M S N d C D S C C y 4 1 y C F G V 7 < 7 9 r 9 r - > > 9 4 > > , , 1 ; z H I I L C u 4 > i D G D Z C ",
"C d d y 4 p d C C d N C s 4 M C p i C S D D C M 4 @ y C Z A C r r r r r < % - @ , 9 9 4 > 1 1 > q x G L H I L C 4 @ i S Z D Z Z ",
"C d d y w i d M M j d N p 4 y a w p j N C C N d y 1 y M C C d 4 9 6 r 4 > ;   . r 9 r , 1 1 & : 9 z z Z Z A C M y ; a j C C z j ",
"d a p q w p a p y p e p 1 - 3 > - e y y y e y y y - 4 i y i q > r 9 6 1 1 , ; - r 9 9 7 & 1 : = 3 u d j u 9 u u p > y i d d p y ",
"y s p r y s M m M m - q p M M - 3 M C S d 1 y C N d d Z D G a 1 r 9 4 3 1 > - - q 9 9 q , 1 1 = t Q | Q z 9 z I G Z Z I W I C y ",
"a p s p p m s m M M 3 e M S N e y M C C S y i Z G T Z Z G G d > 9 9 r , , > @   1 9 9 7 1 1 , % ; Z H G C 9 z H I I H G G Z C i ",
"m e e m q m m m y p 4 e N M M 4 e s M M p e y C G L A C A A z ; r r 9 < 1 > + > ; 7 9 7 ; > , 1 @ p j j d 7 j A I I A Z Z z z y ",
"w w m w 2 - 1 w r r 3 q p p e - w e e y e 3 e j z j i i i i s 3 > 4 r < ; %   r 3 > 9 r > > 1 > @ r u u y , u x k j y y u i u y ",
"e w m m w q 1 - - e - 2 w e q - 4 2 1 4 e 1 > 7 2 4 7 q q y p q > + - -   @ + @ 3 1 7 9 7 > @ O @ = > d u 4 7 4 > y u y y d i p ",
"N N N Y N N N m w F F N N U N Y F M 4 y a d i 7 1 M F G F Z B 3 > > > > > - - * d p ; 2 ; $ $ ; ; * w x x A j u 4 F W R G F F F ",
"N Y N N N M N M 4 C T T U D N N d d y y y i d u 7 V G R F V : > 3 , < 1 > ; ; + r 1 @ @ > > > > > O 3 u i j j i e U T Y F F S F ",
"Y N N N m m M m 3 N D N N N N D C d y 4 y y d a 4 d S S F t ; 2 , < 3 < > ; % @ @ ; 3 2 2 3 > ; > @ : u i j j i e N S N F S S C ",
"N M N N M m m y - N N N N N C Z C M y 7 y y y a 3 M B C Z t + - ; ; ; ; @ @ + + + > 1 > > > = @ @ @ : i a i j e 4 M M N S M M M ",
"N m M N M p 2 2 = M M a p m M M M a > 3 y 9 p e 1 q p s m m 4 q r q q 4 q 1 + - + + + + O @ = 1 : > ; r e e u e = w m m m p p p "
};
