/* XPM */
static char *Policeman_Robert_2D_Character_Sprite_for_Indie_Game_Developer_fotor_bg_remover_202403182169_resized[] = {
/* columns rows colors chars-per-pixel */
"64 64 161 2 ",
"   c #161616",
".  c #191616",
"X  c #1D1916",
"o  c #171618",
"O  c #191718",
"+  c #1C1C1C",
"@  c #201A17",
"#  c #211E1C",
"$  c #24201E",
"%  c #2A221D",
"&  c #30281F",
"*  c #1D1E21",
"=  c #201F21",
"-  c #1E2023",
";  c #1F2428",
":  c #232324",
">  c #2A2624",
",  c #2B2826",
"<  c #242629",
"1  c #282729",
"2  c #26292C",
"3  c #2B2B2C",
"4  c #322A25",
"5  c #312F2D",
"6  c #382F2B",
"7  c #32302E",
"8  c #3D332A",
"9  c #272B30",
"0  c #2D2E31",
"q  c #302F32",
"w  c #2E3134",
"e  c #2D3239",
"r  c #333334",
"t  c #393736",
"y  c #3A3936",
"u  c #353639",
"i  c #38373A",
"p  c #36393C",
"a  c #3B3B3C",
"s  c #42372C",
"d  c #44392F",
"f  c #463C34",
"g  c #493E32",
"h  c #413E3C",
"j  c #3F403F",
"k  c #4E4236",
"l  c #42413E",
"z  c #49423B",
"x  c #514436",
"c  c #544738",
"v  c #554B3D",
"b  c #5C4D3D",
"n  c #5F503F",
"m  c #64533E",
"M  c #373E41",
"N  c #3D3D41",
"B  c #403F42",
"V  c #3F4144",
"C  c #3F434A",
"Z  c #434344",
"A  c #484644",
"S  c #4B4945",
"D  c #454549",
"F  c #48474A",
"G  c #47484C",
"H  c #4B4B4C",
"J  c #554C45",
"K  c #514E4C",
"L  c #5F5445",
"P  c #54514E",
"I  c #59534E",
"U  c #4C4C52",
"Y  c #4D4D5A",
"T  c #514F52",
"R  c #4F5050",
"E  c #4F505A",
"W  c #545253",
"Q  c #595653",
"!  c #5A5853",
"~  c #54535B",
"^  c #5A5759",
"/  c #565959",
"(  c #5A595C",
")  c #645542",
"_  c #6D5A44",
"`  c #6B5C4B",
"'  c #725E47",
"]  c #725F48",
"[  c #625E5D",
"{  c #75624B",
"}  c #7A674E",
"|  c #7C684E",
" . c #60605F",
".. c #7B6750",
"X. c #7F6A51",
"o. c #565563",
"O. c #575861",
"+. c #5C5B63",
"@. c #5C5C6B",
"#. c #635F63",
"$. c #636263",
"%. c #696464",
"&. c #63626A",
"*. c #6A6769",
"=. c #6C6A6B",
"-. c #716D6E",
";. c #636271",
":. c #6F6B73",
">. c #726D71",
",. c #747373",
"<. c #7D7D7D",
"1. c #826B4E",
"2. c #836D53",
"3. c #867055",
"4. c #8C7355",
"5. c #8D7559",
"6. c #917755",
"7. c #987C57",
"8. c #947B5B",
"9. c #867662",
"0. c #817775",
"q. c #817975",
"w. c #A4865F",
"e. c #9C8360",
"r. c #80807F",
"t. c #9F8A70",
"y. c #A38867",
"u. c #A68A64",
"i. c #AD8E63",
"p. c #AB8E68",
"a. c #AF9067",
"s. c #AD916B",
"d. c #B39267",
"f. c #B4946B",
"g. c #B7986F",
"h. c #BC9A6D",
"j. c #AB9171",
"k. c #B59872",
"l. c #BB9B70",
"z. c #C09D6E",
"x. c #C29F71",
"c. c #C6A273",
"v. c #CAA573",
"b. c #CEA875",
"n. c #D1AB76",
"m. c #D4AE79",
"M. c #D7B07A",
"N. c #DCB47D",
"B. c #E2B97F",
"V. c #838484",
"C. c #878888",
"Z. c #8C8C8D",
"A. c #958E8C",
"S. c #959696",
"D. c #9B9B9B",
"F. c #A29D9D",
"G. c #B9B5B3",
"H. c #E4BA81",
"J. c #E9BE83",
"K. c #EEC286",
"L. c #F0C386",
/* pixels */
"W ( ( O.~ +.~ r G @.~ #.H r A K W ( $.:.>.#.T +.^ A q K $.%.%.D T -.-.=.#.&.+.3 G @.~ #.U 0 N F U ~ #.;.;.@.Y @.o.N 1 D O.o.~ N ",
"G @.;.&.( W W 3 a W H F D 5 A F P W H W T ^ #.=.Q A 3 A W W P a F [ =.*.( T W t u G D A Z 3 N D G F D D B N Y o.D p 1 N G G B p ",
"V Z U U H D F u 3 S H W H r y D H A l a y q y S Z y 3 F [ ^ H h B S H P P S H t 3 Z H P F r a B Z B N u u q r B N r 1 B Y Y D p ",
"a Z C Z D Z D r 3 Z K K S q t l a y y Z B h y Z S h q T [ Q K a y H D Z A Z Z r 1 l H P A q u a u r q N a i r a B u 0 D G G B u ",
"w a a a a a q * = r a h i : 3 3 3 3 3 a t t 5 r t 5 : 7 a l l r 3 a i i u i w + * r r i r = 1 3 3 1 3 q 0 q 1 0 0 1 * 3 u p u 0 ",
"3 3 r r 0 : 0 r r r a i r 3 1 B W F F l Z Z 1 h h , 5 r r q r r 7 7 r h t : r a y i B a u q 3 N E U G B G U 1 B B 0 r 0 0 q u p ",
"Z Z F ~ U 0 r Z Z D H D Z Z r H ( W P H H T i ! [ S h h h l z S S S K [ ^ 7 r Z Z D F D B B r N U U H D D D q D U B i a N a B Z ",
"Z D H K D 1 r a N D D Z Z h r i H P W H F Z q B F Z i Z Z l l l A K P P Z 3 r i N D Z Z Z N r u U G U G D N 0 p D N u N N a a i ",
"Z S H H N r r r i a N B N i 7 r S K R K H V 3 y A j j j j j j j z K K S j t t w t a j j a u 3 q G B U B B N 1 u N N i e B y i i ",
"i l l a u w p 1 3 r u a r q : 3 j Z Z V V t : r j j r , j j j j h l l y t 0 r 3 1 0 r r r 3 : 1 N N N N M u = q r u e < q i r t ",
"r r 0 3 3 : 1 1 : : 0 0 q 3 1 : 0 w 0 0 r r 1 r w r w - $ 4 7 w w w 7 3 2 ; 3 3 : : w w 0 3 3 1 9 0 3 3 u M 9 e M N 0 = 0 q u 3 ",
"h F G D y r t 3 r Z G B i 3 D D Z y , < H $.>.>. .R A j S j j ; - - * - + - 3 2 N G U D B 0 D Z B i 0 = B Y @.@.Y G B B U T F p ",
"T H H G Z Z S 7 r G U U D i A A A l y 0 l R / / R G V w ; + + + = = * # r l j w 0 N U U D u Z D B B i q N B U Y Y B B U U Y D i ",
"y a Z D Z Z Z r r N G U F a i Z Z Z t 3 j Z G H V ; + * # : : : : $ : * y *.,.$.H * e G F p u M B B r 1 N N B B B B B B B B N r ",
"r j Z A Z Z N 0 q a N V a u 3 y l l w : j V j 9 * = = - - : - + = : : $ R <.D.*.u + + 2 p r 3 r i N 3 = N N N N M u M e r p p q ",
"3 r y a a N r : 1 r r r r 0 : 3 < 2 + + u u ; * = $ ; $ - + # # - : < , ,.C.D.-.Z - : + ; w : < = = = = 0 u e 0 9 = = < < 1 1 * ",
"r i i 3 0 i r 0 w a a p 1 i N r r 0 u u 9 - = $ = : # + + # : : : : 1 : %.<.<.>.Z : : - + e D a i r N N p e N G B = B @.o.B B B ",
"H F S r i Z F P K R W R i a A S Z h A u : : : - = * + # - * + # : > + : y [ #.K < , < : + e Z D B N B B N N i N N 0 B o.Y F U U ",
"j l j r t j A H H S H F r r D F B j p - $ - = O   O * # O O + r Q K , r -.%.K 5 > $ : > * e D A N N B G D B N q < = u B G U B B ",
"j a a r 0 a j D l j Z S r r Z Z i a < : * O         O + # - : j ( K 1 q %.-. .S H + + + - u Z a e B D B D D B N 3 * e B B B B B ",
"a a a w r j j j B a a Z r 3 i r w 2 - * + O     O O - - : = + : 3 1 > 3 y a a t y : = O - 0 u r 5 i i B a B N u q < q p N N N i ",
"r r r 3 0 y a r r q r r : : 3 : ; - # + O       O + * # . . + + # 1 3 5 7 r h Z A a : O * 3 3 + 1 q N i q 1 q q q = q i N u e 3 ",
"0 a r u u a a M U N : r D U V : r * + O       O O O X + = * - : - $ $ : : < 3 , 3 y D t p ~ D 3 F U ~ ~ U 0 N Z F B Z F T T B u ",
"r a p u i N V V D a 1 i F G G r j - O       + O   O : : : : : : : : : : : - > : 1 1 1 t i r D r B F F F F q y A H H Z A F B h r ",
"w u p r q u p u u u 1 a Z Z a w t e - O X O   X X X X $ $ $ = $ # : = + = + + + = + = = : : 9 w y a a y y 3 y D H S Z B Z a a r ",
"3 r u e 1 < 9 0 q q < q u u 3 1 5 r r ;   . + X X $ X n 3.4 X X O # g x k x c n m m k ; 3 0 ; < r r r r 7 : r h N i q 0 r r r r ",
"0 0 w e 0 9 = * 3 q = : 3 w < < , 2 2 5 X X X $ $ % > { f.n & & @ @ k 4.u.a.e.e.{ d 4 0 r a w w r 3 1 i r 1 3 1 : 0 q u u p a u ",
"U T U U ~ o.@.u a ^ A D S K K / / V 5 G , $ X % % & 4 | f.x.n.c.1.s @ @ b h.m % @ X X Z I P P  .^ Z 5 Z F A h 5 1 D U U U U D G ",
"U U U D N D Y N r K P P P A Z Z l j w l 3.} k $ % 4 6 e.s.N.L.M.p.` J 6.n.L.7.& s b > P I S S S z l 7 7 d h a t e G Y G D D D D ",
"D D N N M N N 0 0 A H F Z Z A A l j w { 4._ 8.' @ & k s.z.K.v.S.G.J q.k.L.B.l...! L l S S S J J A l 7 y y y h t 0 B B B N C N N ",
"N N N C N p p 0 3 Z l a j Z Z A l j 5 } | ) x e.s % g a.m.L.b.t.G.0.A.s.K.d.9.F.P w j z v A A S z l 7 y f h h q 3 B B B N N M p ",
"u 0 u p p 0 1 = : u u r t u r r r w ; v e.{ n { _ @ s a.N.L.L.N.g.j.g.H.L.u.u.t.5.z u p p t r r r 3 > t t t q 3 = 3 3 e M M u r ",
"a Z V p a N a : 1 F Z H B 1 3 r i a Z V 3.p.X.X.e.> 8 p.H.L.J.L.L.L.L.L.L.z.7.K.B.` V W S 3 7 z Z H H W H Z N U U N : a ( ~ U a ",
"V E W ~ U H W r q F D F A 5 r Z H K H A z e.e.2.y.{ 2.f.H.L.L.L.K.K.K.K.L.H.1.N.H.v A P S 7 l J P P P H K Z T #.T i 3 Z H F Z u ",
"y V F H F Z D a 1 t Z H S t t B A A Z a u z 3.8.| p.f.s.l.J.L.L.L.L.L.K.v.u.1.N.z.l P ! I y l S J S z z h r y J S t 3 Z H F D u ",
"i Z Z Z A D D a : y S P H r q h j a i u a a r 3 > ] p.j.p.H.L.L.J.N.B.H.N.n.N.J.{ j P ! P r f A z l a j Z z l S J h 3 F H H D r ",
"r a V a N a i 3 = r a Z B 1 , q 0 3 < r r y 9 O = 1 ) u.f.l.H.L.B.i.4.4.6.7.d.h.r t l z j $ 5 8 r 7 0 y y y 7 y y 0 = 7 j j a r ",
"3 3 0 w q 1 1 3 : 3 r i q > 1 3 F Z a y a p +   + + # g 5.f.c.J.L.L.B.h.{ i.c.) r t j j t 5 2 t / H S Z S D , i j 3 3 w r 0 r r ",
"Z V Z Z Z 0 3 N a Z F F B B i i / R K F D 3 O : : # + > , b 8.x.J.L.H.m . ) ..a A S P P A S j j ! ! ! P I K r K I D l z l l Z Z ",
"Z A F F D r 3 u N Z D Z B B i r G H H H p o = : 1 1 + 3 r O $ f ' 7._ X @ > u a l K K S S z j j W ! ! Q P S r l S Z y Z A l l a ",
"l D A H V r 3 r i N N B B N e q A H H U w o = = < , : O = O O + + 3 i : 7 w j j j j l S j j 8 7 P P ! I P S 7 a A S a y z j j a ",
"a j V j y w r 3 0 u e i e q 3 3 p D V V : + + O O > : % = $ 3 > O 3 j 2 9 9 7 , , 7 j j j 7 , , Z A A A Z a : y y j i : t a y t ",
"y r r 0 0 1 1 3 = = 3 e q q 1 = 0 r r w $ : O - + > 4.8., : r 3 + , / <. .C e 9 2 ; 7 t j 3 w 3 7 t r r i r : 3 y u r > 3 t u 0 ",
"r i a t r 3 r w 3 i B M i 1 B B u r 3 - - : = + 8 3.b.H.8.d : 5 R a / =.<.<.j j w j C j j 9 S C z y 3 , Z H W W ( K D A P P H a ",
"a Z Z Z Z V Z y 1 N F U D u a Z V j p 2 * : : : 8 8.g.M.N.M.1.4 8 } v l =.S.=.R  .S.r./ C j R R H S j 7 S P ! / P H K W W W S y ",
"i a Z Z Z Z Z r 3 p B G F a r Z l j j ; : * + , : c u.8.4.g.N.f.h.L.4.j ! <.=.r.r.r.<.,.*.C / C D A j , Z F K K H D F G F S Z r ",
"r a Z Z Z V a u 3 p N M M a 9 r j j u - : : + + : : k 8.3.w.H.K.K.N.K.v.{ 4 0 j j / G V.C./ =.=.V l 5 $ z A S Z l j a a a N V r ",
"0 r i a M a u 1 < q q r u r 2 3 1 1 2 * , : * X + - : 8 { u.c.B.K.h.M.b.m a.) D 9 w w j j / Z. .2 < = * i a i r 3 3 1 0 3 0 3 : ",
"r r r r 3 a u 0 3 r p u 3 2 r r w 3 9 - : < , : = = : : , x | g.h.N.n.{ e.f.4.u i j Z j 3 u F D a u V Z l t Z K B : N o.Y D Z a ",
"A j Z a 3 N D G H U H H a w N Z Z a Z 1 + $ : : : , w 7 w 0 , n 4.i.m 4.M.X.l R ! / Q K u i S K A l S K S Z h Z Z 0 U [ ^ K K H ",
"Z a j u r i Z F H D F F p 3 N D V a D V - = O + + + > : : $ * + , 8 m d.{ j j I P S P P t u S K Z A P P P S A r 3 = y F H F F Z ",
"Z j a r 3 u a Z Z a l D p 0 N Z t y D Z < : < : : = > : : $ : 5 0 0 7 x 5 y Z S A z A S t p A Z y z S S K P P Z 3 * y F F A A D ",
"Z a a r 0 i a N N N a B u 3 u r 3 u a a w > : < : 3 7 5 * $ , 3 0 7 w , r j j l Z l Z l r q y t 7 j Z A A A Z j r : t l Z Z l h ",
"a u r 0 3 u p p u i q e 1 = 1 : = 0 i u w < : > , 3 w 5 #   + : , w w 0 9 j j a a r r r : 1 3 = < t h a r 7 u t r : r i a a u r ",
"u p u e u p N p N p = 3 u N N = 2 a V D a - : < < 5 w w : + : : : 5 7 5 : V Z V Z p : r Z D B 3 S ! [ I z 3 Z P H A S P W K Z t ",
"r p p u u p p M N p 9 0 N D B q u V Z Z p - : < , 3 w 5 < + : , , 5 w 3 2 V j j l j , j S S D r l S J K A r z S P Q S K H S Z r ",
"r u N e 0 u e M u u 9 q N B i 0 r u a N ; : 1 : < 5 7 3 = O : : 2 w w , ; t j t a a 3 a Z l a 3 t h h h y 5 h K I K S A A Z l t ",
"q q e q 9 = < e r q < 9 e i e = 0 w r 0 * : : : : 0 w : ; + $ < , 7 w , ; < 2 5 r r > 0 i i 3 > 5 r t t r , 7 z l a r r r y y w ",
"r 0 N e e 9 < = = r = : 3 q 0 = 3 1 < 9 * + : : , 7 3 ; w + X = , 2 , ; u w 2 * 3 a 3 3 r t w w q 3 > y y 3 5 3 : r u r r a i r ",
"B B B Y B B B M 0 F D D B U B U G V 3 ; + + + : 5 w ; p V + = O * * + r G H R j y P P K P P H P K h 7 h S S h t 3 S W R U H G F ",
"Y Y G B N N B N 3 Z T H T B B Z j a w - = = - * + = * D e - - : , 2 : : ; V G t t K I Q P A A S Z h r t y h h y q U U U G F D D ",
"B B B B M u N M 1 B F D F B Z F j j w + = - , , , : - 2 9 + : : < 1 1 1 : 9 Z w 7 S H S A A S K A l 7 7 y h B y q B D G F D Z C ",
"B N B B B N i e = N B B N N B Z V j 9 + = = + : < : , - 3 + + = : : : : : ; a 0 3 A Z Z z D A A D h 7 y y y h q 3 N B B D N N M ",
"N M M N M u 3 1 * N N i i N N N p j ; - * * - - * * + - e 2 ; < < < ; < < ; < : : u u r r r p p i q : q q q u q = 3 M u M u u p "
};
