/* XPM */
static char *Policeman_Robert_2D_Character_Sprite_for_Indie_Game_Developer__2__fotor_bg_remover_202403193715_resized[] = {
/* columns rows colors chars-per-pixel */
"64 64 155 2 ",
"   c #161616",
".  c #191716",
"X  c #1E1916",
"o  c #191718",
"O  c #171A1D",
"+  c #1C1C1D",
"@  c #221E1D",
"#  c #26201E",
"$  c #29221D",
"%  c #1D1E21",
"&  c #211F21",
"*  c #1E2124",
"=  c #232324",
"-  c #2A2624",
";  c #2B2826",
":  c #252629",
">  c #28272A",
",  c #26282B",
"<  c #2B2B2C",
"1  c #322B24",
"2  c #302F2E",
"3  c #3D3227",
"4  c #31302E",
"5  c #3C332C",
"6  c #272A30",
"7  c #2E2E31",
"8  c #302F32",
"9  c #2F3034",
"0  c #333334",
"q  c #393736",
"w  c #343837",
"e  c #3A3936",
"r  c #353639",
"t  c #38373A",
"y  c #37383C",
"u  c #3B3B3C",
"i  c #41362C",
"p  c #43382E",
"a  c #453C34",
"s  c #493D32",
"d  c #403E3C",
"f  c #42413E",
"g  c #4C443B",
"h  c #504335",
"j  c #504338",
"k  c #56483A",
"l  c #5C4D3C",
"z  c #373D40",
"x  c #3D3D41",
"c  c #403F42",
"v  c #3F4044",
"b  c #434344",
"n  c #484745",
"m  c #4A4946",
"M  c #454549",
"N  c #48474A",
"B  c #46484C",
"V  c #4B4B4C",
"C  c #544C41",
"Z  c #514E4C",
"A  c #5C5046",
"S  c #54514E",
"D  c #5D514C",
"F  c #4D4C52",
"G  c #4D4D5A",
"H  c #514F52",
"J  c #4E5152",
"K  c #4F505A",
"L  c #535253",
"P  c #595654",
"I  c #595854",
"U  c #53535C",
"Y  c #5A5659",
"T  c #5A595C",
"R  c #645441",
"E  c #685641",
"W  c #6C5B46",
"Q  c #625748",
"!  c #6B5B49",
"~  c #725E46",
"^  c #715D48",
"/  c #625D5D",
"(  c #766145",
")  c #796347",
"_  c #72614B",
"`  c #7A664F",
"'  c #7E694E",
"]  c #726351",
"[  c #7F6B52",
"{  c #565563",
"}  c #575861",
"|  c #5C5B63",
" . c #5C5C6B",
".. c #635F63",
"X. c #5E6163",
"o. c #636264",
"O. c #6B6666",
"+. c #686867",
"@. c #63626A",
"#. c #6A6569",
"$. c #6C6A6B",
"%. c #716C6F",
"&. c #7A706F",
"*. c #636271",
"=. c #726C71",
"-. c #747474",
";. c #787273",
":. c #7C7C7C",
">. c #826B4E",
",. c #836D52",
"<. c #867054",
"1. c #8B7456",
"2. c #8D7758",
"3. c #907654",
"4. c #957B5B",
"5. c #887866",
"6. c #8D7D6C",
"7. c #9E815E",
"8. c #A2845F",
"9. c #A8885F",
"0. c #A58964",
"q. c #AB8D65",
"w. c #AB8F68",
"e. c #AE926B",
"r. c #B29065",
"t. c #B3946B",
"y. c #B7986E",
"u. c #BD9B6D",
"i. c #A79175",
"p. c #AB9373",
"a. c #B39773",
"s. c #C09D6D",
"d. c #C5A272",
"f. c #C9A574",
"g. c #CFA976",
"h. c #D2AC77",
"j. c #D5AE79",
"k. c #D7B07C",
"l. c #DAB37C",
"z. c #E0B77E",
"x. c #E2B87F",
"c. c #838383",
"v. c #88898A",
"b. c #988F8B",
"n. c #949394",
"m. c #9C9592",
"M. c #9A9A9A",
"N. c #A69684",
"B. c #A49A8F",
"V. c #B3AEAD",
"C. c #E3BA81",
"Z. c #EBBF84",
"A. c #EEC286",
"S. c #F1C386",
"D. c #F3C688",
/* pixels */
"L T T } U | U 9 B | U ..V 0 n Z L T o.=.=...F | Y n 2 Z o.o.O.b H %.$.$...@.| 2 M  .U ..F < x N F U ..*.*. .G  .{ x = M { { } x ",
"B  .*.@.U U L 2 u L V V n < n V S L Z H P U ..%.Y n < n P L Z d N / $.O.T H H q t B M N b < x M B N M c c x G { M r : x B B c r ",
"v b F F B n N 0 8 m V L V 0 t n n n f u q 8 e n n q < n / Y V d f n V J V n V q < n V L V 0 u c M c x r r 8 r c c 8 > B G G M y ",
"u M v b n n M 0 > b Z Z V 8 q d u u e b c d e f n d 0 H / P Z e u V n n n n n 4 , f m Z n 8 r u r 0 0 x u t 0 t x u 7 c B B c r ",
"9 u u u u u 8 & & 0 u d q = < 2 < < < u q 4 4 4 5 < @ 0 u f f q , u t e t t 0 + % 8 0 t 8 & < < < > < 8 8 8 > 7 7 > % < r y y 7 ",
", < 9 0 6 : 7 0 0 0 u t 0 , - c L N N f n M ; d u < 0 2 0 < 0 0 0 4 0 d w = 0 t u t c u r 8 < z K F B c B B > x c 8 8 8 8 8 9 u ",
"b b N U F 2 q b b M B n b M r N T S S V V H t Y / m f d f d f m m C Z / Y 0 q u b n N M c c r c F B V M M B 8 B F c r z u z c b ",
"b n V S M , 8 u x n n b c c 0 t F S S V n M 8 d V b e n n f f f n Z S S n , 0 u d b M M c x 8 r V F F B M c 7 t c x r x c u u u ",
"b n V V x 0 0 0 t u c c x t 0 0 V J S V N b < u b n t e f f f u g Z Z m f q r 0 e u u v u r < 8 c N B N c z > r x c r 0 x x r t ",
"u f f u t 8 t ; < 0 t t 0 2 = , u b b b v q = 0 w f e , e f e a u f d a e < q , > < q q 8 2 = > z z x x x r & 8 8 z z & 8 r 0 0 ",
"4 0 8 < , = , , * = 6 8 8 < , = < 0 7 9 q 0 = 0 q q < = < 0 0 4 8 q 0 < ; = < , = = 7 7 8 > < = 7 7 < > r r 6 r z z 7 & 8 0 r < ",
"d B B M q q e , r b B c u < M n b t ; ; B ..=.;.| F n f V S V e u P L Z f f f < y F F M c 7 M M c t 6 > c G  . .U B c c F F N t ",
"H V V m b n n 0 8 N H F M r n n n f e < b V L I L N V S L L Z u n m V m m m n 0 7 M F F M t b M c c q 8 c c G G G c c F F G c t ",
"e d M M n f f 9 8 x N F N u u c n b q , v M F N N b B V V N n e q g m n m n n q 0 x N N N t r x c c 8 ; z x c c c x x c c c c r ",
"2 u b M M c x 7 0 z z x x q 2 q d c 9 = u b n b v u u u t f f 0 0 f m m n n f < 0 u z x u 0 < 0 u x < & z x x x z z r r r r t 8 ",
"< q q u x u r = > 8 0 0 0 8 = > > , + + q t w 0 < < ; , : , 7 = < u e e e u 0 = , 0 8 8 8 < = > & & % & 9 r 9 6 6 & & 6 & > 6 % ",
"q t t < 9 u 0 < 2 t u t , u x 0 0 < t t t 0 u n u = q F F c f 0 , * * * + + % + * 9 v b 2 w v z t r x z t 9 x F x & c  .{ c c c ",
"V M n 0 e b N J J L L J r d n n b c N n n f b N B 2 L #./ L v v u b m = * * * @ * * , w 9 z b n x x c c c x t x x 6 c { G N B F ",
"u d f 0 e u n V N n V N 0 0 n N d u n V n n u 0 7 = u n B 7 O V $.c./ = # * # * * = @ @ * : z m x x c B M c x 8 : & r c B B c c ",
"b u u 0 2 u v n b f f N 0 0 b b t b N n V V N f < @ e v , + @ v -.M.-.u = = * * + @ * = * @ * 9 r c N c M M M u 6 % 0 x c c B c ",
"u u u 9 0 u u b c d d d 0 < r q 4 u f f n n f u 0 = u : + = & V -.n.c.J = , : # * + + @ * # * * & z z u x x z r 9 = 8 t x x c t ",
"0 0 0 , 0 w t w r 8 0 0 = = , = - 0 t t 0 0 0 0 < # 2 * = = - t +.$.o.2 @ # # * @ * + + + * # * & & r y 7 < 7 7 8 & 8 r z r 8 7 ",
"0 u 0 r r u u x F z & 0 M F c = M V Y T V , f n n f b : = = = & 4 L / m = w n < o + + * + . + * & & 6 U F < x n B c c F H F c r ",
"9 u u w t x v v M u , t M F B q n m V Z L e f m S S V 0 + # @ m n $.&.S = n / b # + + + .     . % % = 9 M 0 u n V Z n n M c d 0 ",
"7 r y 0 8 r z r r r > t b v t 2 0 u c u e 2 d m S S Z d O + = d e f d q = < 2 ; @ @ * * +         + @ * 9 < q b V N M c b d u q ",
", q r 9 > > 6 7 8 8 = 8 t w < , 8 0 0 0 9 ; q f g f e w + = e b d u q < < > & @ + o + + # o .       + # : - 0 d u q 0 8 8 0 q 8 ",
"< 9 9 7 8 6 & & > 8 & = < 0 : = < ; > 0 4 = ; < , 4 9 7 0 b w < , = - = = * = = = * @ + O o o .     O + % : < ; = < r 9 r z r r ",
"F G F G U { { z u Y N N n J V Y Y c 2 m V m f 4 ; b z 4 0 ; = - - = = = * # = = = = = = + . . + O     O 9 n d 2 < M B F B B N N ",
"F F B B v M G z 0 Z S S S n f n c u 4 4 5 u u e 9 v : : * - - $ # + @ # # # O @ X # i # X X X .   o + < e a d q 9 B F G M M M M ",
"M M v v z z x 7 2 n N N b b n n f d < 4 4 q d e 4 v b b v a W ,.1.<.<.>.W 1 X X X h 0.s @ X @ X X   : e q d d r 7 c c c c v x x ",
"x x x v x z t 7 , n f u f b n n n u < 4 5 0 e 0 7 f b B v # @ 3 l 4.8.R 1 @ 3 ( >.7.r.h 1 $ # @ X + < e a d a 8 6 c c c x x z z ",
"r 9 r r y 7 > & - r r 0 w w 0 9 0 7 = < 9 9 5 < * 2 w w w * 3 $ @ 9.h.) p k 0.x.D.h.t.E 1 $ # 1 h l 0 0 q r 8 < & 6 6 6 z z z r ",
"z v z x u x u = - B M B c , < 0 q u M n N c t b n u = d / N W A _ j.S.z.6.Z b.N.j.C.a.2.1 - i <.,.4.Q N B M x G F u = c T U F u ",
"c L L L F F L 0 2 N M n M 1 q b V Z V V n N L O.I n 2 f S Z w / m.4.k.j.i.-.V.B.d.A.d.2.- # ,.^ l ' _ M C b H ..H t < f N N v q ",
"u c B V N n n u > q n V m q r f n n b u u 8 w n n 0 : d J n g 5.i.7.f.A.d.p.a.j.A.A.k.1.$ i <.l _ 4.C u d 0 d m m t < c V B M w ",
"t M M b b b M u = u n S N q 8 d u u q q u u e f f f 2 n J V ! x.l.3.x.A.S.A.S.S.A.Z.C.<.@ ~ 4.) w.,.q f b n a g C d 2 N V N n r ",
"8 d c z u x t < + 0 u f d > ; 8 4 < , 0 e q 4 0 e 0 - 4 f b C l.d.4.Z.Z.A.S.S.A.A.A.f.w.<.4.4.4.4.e < e a e q q e 2 # 4 f u u 0 ",
"< , 8 8 8 > > > = 8 0 t 8 > = 7 N b t e t x : 4 e , - 2 4 4 0 t.l.4.r.z.S.S.S.A.A.C.a.t.t.' ! ] L V m n n M ; u x < < 0 0 9 0 r ",
"b b c M M 2 2 z u c N N c c t t U J V N B V 0 n V b u e d d u W x.h.f.s.u.u.l.S.A.f.t.e.` < + w I I I S L Z q m S n f f f f b n ",
"b n n V M 8 > u x b M b c c t 0 V V S V n n 9 u n b w f n f f e 8.9.4.3.q.f.C.A.j.t.0.R = @   = L L I S S m 0 f N n e f n f d u ",
"u n n N b 0 7 0 t d c c c x r 8 n V B V B M < q b n t w f f f d j y.l h l.D.D.l.w.[ p = + @ @ O 0 S I S S n < d n n u e b f u e ",
"u f b v t 2 0 , 6 r r t 0 7 > > u b b v b u = 0 w u u < e d d d u a @ X E s.q.^ 5 # 9 - # , = * O f m n n u = e e f t - e u e e ",
"w q 0 < < , : < & & 6 9 8 7 > & 7 0 0 0 r 8 & ; 0 w 4 * : 0 q 4 0 0 > @ * = # + o O # O = : = = . : 0 0 e 0 - < q r 0 = < q w 2 ",
"r t r q q < q 9 6 z c x r 6 c c r 0 , = y c M B L V v u n n n u 0 n 0 = 7 2 O # ; # + - = # + + + = < = n V L L T Z n n Z L V u ",
"x n b b b f b r > x N B M r u b b c t < x N F F J V B J J J m f v v I -.+.w * < 4 = a q.l @ + + = = u 0 n S I L L N Z L P S m e ",
"w u x b b v v q < x c B M u q x b f t > u b N F B v n B n v J z w J c.$.X.f f < ; R u.C.t.l $ % = = 0 < n n S J V n N V N N b q ",
"0 t b b b v u q 6 t z z z y 7 q u u 0 = t z v M v z z B X.v.n.+.+.c.M.n f 2.W h 9.l.u.s.w.j = = = = : : f n n n f f x u u x u 0 ",
"2 q w u u x r : & r 8 0 0 r > < < < & O 0 z y 9 v X.J T :.+.-.$.X.n I A 3.A.l.l.z.9.,.7.R = = @ * * * @ u u t 0 < : > < 6 7 7 = ",
"0 0 0 0 < u r 6 < r u r < , r 7 0 < 0 0 r 7 q z M :.:.X.-.b B v z g l t.A.d.A.A.k.0.<.k # # + + = = < b f q d H c = x { U B c u ",
"n v b w < c b F F V V N u 7 x b b u b b c u w x v J B z B V S V e r.9.~ d.l.g.g.7._ 5 = * + + @ = = : n m f d n M < H T L Z H Z ",
"b f x t 0 t c B N n N B r 7 x M x t b N M n v 0 < = 9 n V V n n u W w.y.~ y.7.[ e 4 4 < < : ; : = * < J S Z n q , = t N V N n M ",
"b u t q < t u c b u v n t 7 x b q e M M N N n x 7 + 0 v B n n n f w ! 7.1.h h # * # ; < # % + + + @ b m Z S V n < @ e n N n n b ",
"b t u r 6 w u x x x u x r < q r < r d u c M c z r * 0 u b b n f f f w g h , < < # @ * : % @ * = : : b n n n n u 0 = q f b f b d ",
"u r r 7 7 r u r r r 0 8 , & > * & 8 r r 0 8 0 0 9 * < w q e e 0 e e w 6 4 9 4 < < + # 4 4 : ; : = 7 u f q 2 w w 0 = 0 t u u t 8 ",
"r y r 9 0 y z z x u : > r x u = < u c M u > q d b u f n N V f e 9 u w 6 7 4 4 # +   : 4 9 ; : : 4 S / D f 2 f Z Z n m S L Z b q ",
"q r y r r y z z z y 6 7 x M c 7 0 u M M M 0 e n V V n n V m n w 9 u w : 4 4 , : : + < 4 4 < # # , m S m n 4 f C S S Z m V n f q ",
"r r 9 z 9 9 z z r r 6 8 x x u 6 8 u z u r 8 0 b Z V n n n n b t 4 u w * 9 2 , = = + = 4 4 , : : * 7 d d u 4 d m S S n n n f f q ",
"8 6 z 6 6 & : 6 8 9 > < r r r & 7 8 8 r 8 > 8 d b u q q e e u 0 : w w : 9 9 < ; # + + 4 4 < = ; = * q q 0 ; 0 g f u 0 0 0 e w 9 ",
"8 7 z z 9 6 : & : 8 & & 6 8 6 & > > = < 7 = = 2 = < 8 2 < q 0 0 < 0 w : , 2 < = * * 6 = 4 < * = = O = u e ; 2 ; - 0 r q 0 u t q ",
"c c G c c c c z 6 B N M c N N F B b 6 q t u t 0 : v B B M M N N V V V v = @ # + + * V , 7 4 ; * + + < d C m f q < n L L F V N M ",
"c G c c c x c x > n V F H M d c d u 0 7 0 t t t 2 v F F B B B B V J v : = = : = @ * b u * = @ @ = @ = q a u d e 8 B F G B B M M ",
"G c c c z z x z > c N N M c M n b u 0 < 0 q u w < x b M M N M M M v : = : < ; = = * w : = = : : = + * 0 q d d t 8 c M B M M M b ",
"x x c c x z t r = x c c c c c b b x 0 < 4 0 0 q 6 u v M M c v x v y * = = # = * + + , = : = = = # O % r e e t 0 < c c c M x x z ",
"c z x c z r > > & z z t u t z x z y : < 0 4 r r = 6 y r z z y y u w 6 , , * O + O : < O O + O % * * O 9 0 0 r 8 & < z r z r r y "
};
