/* XPM */
static char *Policeman_Robert_2D_Character_Sprite_for_Indie_Game_Developer_fotor_bg_remover_2024031821617_resized[] = {
/* columns rows colors chars-per-pixel */
"64 64 155 2 ",
"   c #161616",
".  c #1A1716",
"X  c #1D1916",
"o  c #191718",
"O  c #1C1C1C",
"+  c #211B17",
"@  c #211E1D",
"#  c #24201D",
"$  c #2A231D",
"%  c #1E1E21",
"&  c #201F21",
"*  c #1E2123",
"=  c #232324",
"-  c #2B2622",
";  c #2E2926",
":  c #252629",
">  c #282729",
",  c #26292C",
"<  c #2B2B2C",
"1  c #332B25",
"2  c #3A2F25",
"3  c #312F2E",
"4  c #393027",
"5  c #32312E",
"6  c #3B332C",
"7  c #272A31",
"8  c #2E2E31",
"9  c #302F32",
"0  c #2E3033",
"q  c #333334",
"w  c #393735",
"e  c #3B3936",
"r  c #353639",
"t  c #38373A",
"y  c #36393C",
"u  c #3B3B3C",
"i  c #463A2E",
"p  c #463C32",
"a  c #413E3C",
"s  c #4E4335",
"d  c #42413E",
"f  c #534536",
"g  c #51463B",
"h  c #56493A",
"j  c #5C4D3C",
"k  c #64533F",
"l  c #3D3D41",
"z  c #403F42",
"x  c #3E4143",
"c  c #434344",
"v  c #494644",
"b  c #4B4946",
"n  c #454549",
"m  c #48474A",
"M  c #47484C",
"N  c #4B4B4B",
"B  c #524B43",
"V  c #514E4B",
"C  c #54514E",
"Z  c #59524C",
"A  c #4D4C52",
"S  c #4D4D5A",
"D  c #514F52",
"F  c #4E5152",
"G  c #4F505A",
"H  c #545252",
"J  c #595653",
"K  c #5A5852",
"L  c #54535B",
"P  c #5A5659",
"I  c #565B5D",
"U  c #5B595C",
"Y  c #645442",
"T  c #685643",
"R  c #6C5A45",
"E  c #665948",
"W  c #6B5D4C",
"Q  c #745F46",
"!  c #665D56",
"~  c #625D5C",
"^  c #74624C",
"/  c #7A6449",
"(  c #7D684D",
")  c #565563",
"_  c #575861",
"`  c #5C5B63",
"'  c #5C5C6B",
"]  c #635F63",
"[  c #5F6160",
"{  c #646264",
"}  c #6C6564",
"|  c #63626A",
" . c #6A6769",
".. c #666A6B",
"X. c #6E6B6D",
"o. c #716E6F",
"O. c #636271",
"+. c #6D6D72",
"@. c #726C71",
"#. c #6F7170",
"$. c #747373",
"%. c #797074",
"&. c #7C7B7B",
"*. c #836B4E",
"=. c #856E52",
"-. c #867055",
";. c #8B7456",
":. c #8C7659",
">. c #8F7859",
",. c #917656",
"<. c #957A57",
"1. c #937B5C",
"2. c #987D5B",
"3. c #8C7C6D",
"4. c #9D815D",
"5. c #9C8262",
"6. c #8B827D",
"7. c #958678",
"8. c #988C7E",
"9. c #A28662",
"0. c #A68A63",
"q. c #AB8D66",
"w. c #AE8F68",
"e. c #AF9067",
"r. c #AF936C",
"t. c #B19166",
"y. c #B3946B",
"u. c #B99769",
"i. c #BB996C",
"p. c #B19673",
"a. c #B49875",
"s. c #BF9E70",
"d. c #B49979",
"f. c #C09D6F",
"g. c #C3A173",
"h. c #CBA674",
"j. c #CEA975",
"k. c #D0AB76",
"l. c #D5AE7A",
"z. c #D7B07B",
"x. c #DCB37C",
"c. c #E0B77E",
"v. c #E2B97F",
"b. c #838383",
"n. c #878989",
"m. c #898B8C",
"M. c #949494",
"N. c #9C9B9C",
"B. c #A19181",
"V. c #A69F9F",
"C. c #AFACAA",
"Z. c #E4BA81",
"A. c #E8BD83",
"S. c #EEC285",
"D. c #F0C387",
/* pixels */
"H I _ L P ` L q N ' L | N q c V L P { @.@.| A U U v 3 V { { } c H @.X.X.| | ` < M ' L ' N < l m D ) ' O.O.' S ' ) l : z ) ) L l ",
"A ` O.O._ L F < u D N m c 3 v N C H N C H P ] o.P v < b H H C u b { X. .P D C w r N n b c 9 l v M m c c z z S L n r < l A M z r ",
"l c N A N c b q 3 m N C N r u c b v d u w 9 e v d w < m ~ P V u l b N C F v N w , c N C N 9 y z z z u t r 9 r l l 9 < n S S n y ",
"u n c n n c c r > c V C b 9 w a u u e c c u e d v a r D ! P N e u N c c v v c q > d N V b 8 r u t r q l y t r u z y 8 z M M x r ",
"0 u l y u u r O @ q u a w = < < < < < u w q 3 q w < & 5 u d d w - u u u w y 9 O O 9 w t 9 % < < < > < 8 0 8 < < 8 : % < r y y 8 ",
", < 8 q 8 = < r q q u t q < > z L m v a c c - a a < q 3 3 q q q q 5 q z w = q u t u l l r 9 < l G A M l M A < l z 8 q 8 8 9 r y ",
"c c m I A 8 r z c n N m c c w m P C H N N H w P ~ b a d a d v v b b V ~ K q q x c n N n z z r z A N N n n n 9 n A z y l l u z z ",
"c v N C n > 9 u l n n c z l q u F F C N m c 9 a b c t c c d d d v V C C c , 5 u l n c c c u 9 r N A A M n l 8 y z l q l l u u u ",
"c v N N l q q q u u l c l u < q m F C N N c < u c M e e d d a d d B V b d w r q e u a l u r < 9 n n M n l l < r l z r r l y t t ",
"u d c u u 0 y > < q r u q 8 = < u c c a x r = q e a e : e a e e a d d a e < r , , < w w 9 8 = > r l l l l r & 7 8 l r : 8 r w w ",
"5 q 0 < , = > > % = < 8 9 < , = 3 q < q w q : 9 q r 9 & < 5 q 9 9 w q 3 ; = , , = = 8 8 9 < < : 8 8 < , q l 7 r l l 7 & 8 q q < ",
"l N m c e q e < r c M z u < c m c u , = N ] @.%.U F c d C F N e u H H V d a d 5 y A A n z < n n z r , : l S ' ' S M z z M A m y ",
"V N N N c c v q q m A A n t c b v c e 5 c F L J H N N C H H V a v B b N v b b q 9 n A A n t c c z z w 8 l n A S A n z A S A n r ",
"t a c c c c c q 8 l m A m u u c c c w , x c N N N c m N M b v e w c b b v v c q q l n m n u r l c z r > l l l x l l l l z n l q ",
"q u c n c c l 8 q l u l l r < w u c 8 = u d c c x a u y u a d q q d v b v v d 3 q u l l u r < q t u > = l l l l l l r r r r y 8 ",
"< w r u u u r = : 8 q q r 8 = < : > % O w u y 0 < < > , , < 0 * 3 w e u u e q & : 9 9 9 3 < = : : = O % 0 0 0 7 7 % & : : : < & ",
"w y u < < u q < 9 u u y > t z r 9 < u r u w u n y = w A M l 8 * * , , : 7 x a u u c n c 8 y n l r r l l y r l z z : z ) S z z z ",
"N c v q u c m F F F H F t u m v c d v v c u c m b 0 F F l * * % & & * : , 0 x H U H H C t r x c l u z z z l r l z 7 m ) S A A A ",
"x a x q w u c C N b N m r q c v a c b N v m a q 8 * O O * O * = * # < ~ { U a 8 c b C b r r c v u u n n n z l 9 7 & 9 z M m z z ",
"d u u q 9 u c c d a c m q q c c u u c m N N x , O * = = * * * # = * w #.M. .q O * y c b q q c x r l n z n n z y 7 % r z z z n z ",
"a u u q q a l a z u u d r < r r 9 u x d v y * & = = @ O O O * = - = K n.N.#.e & # * y d 5 9 w q < u z u u l l r 9 : 9 y l y l u ",
"q q 0 , 0 w y y q 9 w q = = , = : q e y 0 * & = = % O O * = # = : * b &.&.#.u = = & : 0 = < , O : q u y 9 < 9 9 9 & 9 r l r 9 8 ",
"0 u q q r y u u A l @ r c A l = c N I u * # # * O O @ @ O O = 3 - & w J ~ d = > - * * y A L m > n A L L M < z v m z n N D A z r ",
"0 u y y u x x x n u > t n A N q b N x * # O O     O O . O * d ~ a > { $.U e < & = O : a m N v q z m m m m r u c N N c c v c a r ",
"0 r y q 8 r y y q r , u d c u 8 w y = * O         O O * # = a b 0 = d K C c c @ O O , d c c u 8 w u u e w < e c N m c c c a u w ",
", w r 0 , : 7 8 8 q : 8 y y < : 8 : = O O         = # O . O O * > 9 r e a x u = O O * 5 a e > - 9 q q q 9 : q a u w q 8 8 q q 0 ",
"< 0 0 0 8 7 = % , 8 % = < q > = < * O o       . O O O O O * * = = : : , < q u c e * * 3 q y 3 0 q < : u q < < < = 8 q 0 q y y r ",
"A S A S L ` ) y a P N c v F N I L , o o     .     O = = = = # = # = # - = = - < q y w F C C H [ U c 5 c v v u 5 < n A A A M M M ",
"A A A n l n S l q V C C C v c v d y *     O X X   X O # * * # # & * O & & O # & * = > w C b b g d d q 5 e a a w 0 n A S n x n n ",
"n n x x l l l 8 < b m v v x v v d a 3 *     X X X + s =.1 X X X 1 s s s h j k j 5 w e y b b V V g d 5 e w u a 6 8 l l l x n l l ",
"l l x x l r l 7 , c c u a d c c c a 3 < O X # + # $ j y.k i 2 + $ k <.q.4.;.j 4 3 b v d g b b b v d 3 e a p e q 8 l l l l l l l ",
"r 0 q r l 7 : % = t w r y y q q 0 0 * 9 5 $ # $ $ 1 k y.k.v.k.*.4 $ h i./ + + + * w e e y q q 5 q 3 - 5 w w q < = 7 7 7 l l l 0 ",
"u c y l u l u = > M c m c > - q e u x b 1.-.k - - 1 :.y.x.Z.d.3.Z ;.x.D.u.i j h y G n H m < 5 a d m F A N n z A A l - u L I A y ",
"l F L H A A H w 9 N c N c < r c N F n ^ ( j ;.T # 1 5.g.S.y.C.V.} 8.c.x.q.6.Z q a m b C B 5 d C Z Z C B b c D ] D u < c N N z r ",
"u c m F m c n u - u c N b w w c v v u E >.Y h -.; $ 1.z.D.Z.a.B.7.p.S.u.1.8.! 5 < g Z K Z e a B B b v d a w a B v w < z N M n t ",
"y c x n v c c u = u v C N r 3 a l u w u 1.4.R 1.h # <.x.D.D.S.Z.v.S.S.h.4.z.f.d , g Z K C w e b d a a a d c p v b a 3 m N N c w ",
"9 u x l l l r < O q u d a > > r < < < 9 h q.-.1.;.j 9.z.S.S.D.D.D.S.D.A.;.c.z.6 # e d d a = 5 5 w 5 5 e e e q e e 5 & 5 u l u q ",
"< < 8 8 8 < = < = 8 w r 9 > = < m c y w u K :.-.,.y.r.g.S.D.S.D.D.S.x.u.=.x.e.q 5 e u x q 3 < e P N v c v c > e u < < q q q q r ",
"c c c c n 8 < l l l M n z z t u P F F v v M w - d 5.r.y.z.D.D.x.z.v.z.j.z.Z.E u d b C C b b d c K K H C J V w N H b d d d a c c ",
"c c m m c 9 < u u c n c z z r 9 v N F N n c , o # 6 ;.r.i.v.D.z.q.<.,.2.t.0.e d v b V b B d e a J K K K C b q d N c e c v d a u ",
"c c m M c 9 9 0 y l l z z u r 9 n N N N M 0 o O O O - k 5.g.S.S.D.z.k ;.s.g y w u d d b c d w 5 C H K Z C v < a v b e e c d u e ",
"a a c a u 9 q < < r r r r 9 : < u x c c l O O : > @ > < 6 R 9.z.x./ + 4 j 0 w < 3 q a d e 5 - < c v v v v u = w e a u , e u e e ",
"y q q < 9 = : < & & 7 8 9 8 : & 8 q 0 q > o * = , = * <   O $ 6 d # X = , = 3 < = > q q q q 3 < q q q q e q = < w w q = < r w 9 ",
"q u y w q 9 q 0 7 l l l t < z z y q , = * O & O = - . . & # * o < , < u a e a q q x F c u 3 M b d a < = b m C P P D c v V C N u ",
"u c c c d a c y < l n M n r u c c x y , * & O & O s ( ; = r :   u [ F x x N b e 5 b F F N e V B B g a 3 b H K H J N N H P C b u ",
"y x x c c c x w < y n n n u w x c a u * & = . # f e.x.,.6 = e a a #.&.b.x y x w q c b F N x d d b v a < v v F C N c m N m v c w ",
"5 u a c c x l r < y l l l y < w u a q * * = = = Y y.l.l.h.^ < j W v K M.#.F ..m.#.F x x d y q a d d 3 = d c m v d a l u u l u q ",
"9 w y u u u y > : 0 0 0 r q , < , , * O = & & - ; -.4.=.u.x.e.l.l.Y g #.[ $.&.&.$.$.F F F y , < > : & * u u y q < > : < < 8 8 = ",
"q q w 0 > y q 8 < r y y < : q 0 0 < 0 * = : O * # ; ^ ;.q.Z.S.S.l.Z.4.i 8 x x N F n.[ &.+.x z a e q c c a w z V z = l ) S n z u ",
"c x c y 9 x n N A N N N l 8 l n c u x : : - O O & # - s >.u.x.x.k.k.Q t.:.d N K F M x ..I y b V b c N b b v a c c 9 N ] P V D V ",
"c u u u 0 u x M m v N m y 8 l n a y x * * : - = # < , < 5 h 5.e.j.^ r.0.^ y b C C b C v q u b V c c C C V V b w < & u b N m m c ",
"c u u w < y u x c u x c y 8 u c w u n y O O O * = : 3 < , # 5 k f 4.w.^ 5 a v b b d c N w w c b e d V B V C N c < % u c b n b c ",
"c u l r 8 r y l l u y l w < r r < w a y = = = * & O * @ O # : > > R g 3 w x c d d d d c q 9 u w 5 d v v v v c a q = u u c c c u ",
"u w q 8 < r r r r r r 9 : % : = = 0 y r , = = : > < 3 = * < 3 3 3 < , 8 q e e y u w 5 q = , < @ = w u z r 3 w t q = q u u u w q ",
"r y r 0 0 r l l l y & < r l y = < y x n y < = - < 3 3 = . * - 3 3 3 , y e x x d n y = q c c z - B K ! H a < d V V c m C H C c w ",
"q y y r r l l y l y < 8 l n n 9 0 x n v x , = : > 3 q > O = = < 0 0 : y a c c x d e < d N N c q d N V B v q d B J Z B b N c c w ",
"r 7 l 7 7 l l l r r 7 9 l l l 7 0 y y u 0 * : = < 3 3 : O = - , 3 3 : q 5 y y e e y < u c c u q e a d d u 5 d B C C v v v c a w ",
"0 7 l l 7 * * 7 8 r : < r r 9 & 8 0 q 0 * = - : < 3 8 O O = : < 5 0 = q < : , 0 q q = 5 u e < = 3 q q q q ; q d d e q q w w w 0 ",
"r 7 l 7 7 7 : % & r & = 8 9 7 & 8 : * 8 * = : # < 3 : , O * - 8 0 , , y w q , * 5 u , < q u 8 8 q , - e w ; < < = q y w w u y q ",
"M z l M z M l l 7 m n c z N m A M x 3 7 O O = : 3 3 8 x * . O # * = x F N F F e u C C C V V N C V d 5 d b b d q < m C F A N M M ",
"A A n n l l l l < c D N A n z c d y r * O @ O = * * u x * & = : = = 0 x x c c w w V C Z C v v b d a q w e a p e q M A S M m n n ",
"n l l l l r l l < z m n c z c c c y 3 % = = > = = * 7 0 O = = : < , = 7 x x x q 9 b V b v c b V g a 3 w e u c e 8 x n x n n n x ",
"l l l l l l u 9 & l z z l l z c x x 8 o * @ * > : : * 7 O O * , = - = * x y a 8 < m c c v d c b v a 0 w e e e r 7 l l l x l l l ",
"l l l l l r < 7 & y l y t l l l x u * * * O % * O % * 7 , : * * , * , , y 0 , * & y q q w w y y y 0 = 0 q 9 r q & < l l l l 0 r "
};
