/* XPM */
static char *Policeman_Robert_2D_Character_Sprite_for_Indie_Game_Developer_fotor_bg_remover_202403182160_resized[] = {
/* columns rows colors chars-per-pixel */
"64 64 166 2 ",
"   c #161616",
".  c #1A1616",
"X  c #1D1916",
"o  c #191718",
"O  c #171A1D",
"+  c #1C1C1C",
"@  c #201B17",
"#  c #221E1C",
"$  c #25211E",
"%  c #2A231E",
"&  c #1D1E21",
"*  c #201F20",
"=  c #1E2124",
"-  c #1E2329",
";  c #232324",
":  c #292625",
">  c #2C2826",
",  c #242629",
"<  c #282729",
"1  c #26292C",
"2  c #2B2B2C",
"3  c #302722",
"4  c #352D25",
"5  c #322E2C",
"6  c #32302F",
"7  c #3D342B",
"8  c #272C31",
"9  c #2E2E31",
"0  c #302F32",
"q  c #2D3134",
"w  c #2E3338",
"e  c #333334",
"r  c #393735",
"t  c #373837",
"y  c #3B3936",
"u  c #353639",
"i  c #38373B",
"p  c #36393C",
"a  c #3B3B3C",
"s  c #46392D",
"d  c #45392E",
"f  c #453C33",
"g  c #493D32",
"h  c #413E3C",
"j  c #3E413E",
"k  c #4D4235",
"l  c #42413E",
"z  c #4D433D",
"x  c #524536",
"c  c #544638",
"v  c #56493A",
"b  c #5D4D3C",
"n  c #5F503F",
"m  c #604F3D",
"M  c #63533F",
"N  c #353C41",
"B  c #3D3D41",
"V  c #403F42",
"C  c #3E4044",
"Z  c #434344",
"A  c #494644",
"S  c #4B4946",
"D  c #454549",
"F  c #48474A",
"G  c #47494D",
"H  c #4B4B4B",
"J  c #544D44",
"K  c #5A4E41",
"L  c #514E4C",
"P  c #5E5142",
"I  c #54514E",
"U  c #5A524D",
"Y  c #474D50",
"T  c #4D4C52",
"R  c #4D4D5A",
"E  c #514F53",
"W  c #4D5152",
"Q  c #4F505A",
"!  c #545253",
"~  c #595654",
"^  c #5B5853",
"/  c #54535C",
"(  c #59565A",
")  c #56595A",
"_  c #5B595C",
"`  c #655543",
"'  c #6B5944",
"]  c #6B5A45",
"[  c #725E46",
"{  c #715F4A",
"}  c #625754",
"|  c #635E5D",
" . c #74614B",
".. c #7A654C",
"X. c #7C684D",
"o. c #7F6A50",
"O. c #565563",
"+. c #575861",
"@. c #5C5B63",
"#. c #5C5C6B",
"$. c #625E63",
"%. c #646364",
"&. c #6B6666",
"*. c #63626A",
"=. c #6A666A",
"-. c #6C6A6B",
";. c #716D6E",
":. c #7C7169",
">. c #636271",
",. c #716C72",
"<. c #6E7170",
"1. c #747473",
"2. c #797676",
"3. c #747778",
"4. c #7C7B7B",
"5. c #846C4F",
"6. c #836D53",
"7. c #886F50",
"8. c #877155",
"9. c #8B7255",
"0. c #8D7658",
"q. c #967956",
"w. c #937B5B",
"e. c #947A5A",
"r. c #847669",
"t. c #807572",
"y. c #9E815D",
"u. c #A2865E",
"i. c #9D8261",
"p. c #968571",
"a. c #A28663",
"s. c #A58A66",
"d. c #AC8D64",
"f. c #AC8E69",
"g. c #AF9066",
"h. c #AE916B",
"j. c #B29267",
"k. c #B3946C",
"l. c #B8976B",
"z. c #BC9A6E",
"x. c #BE9D71",
"c. c #C29E6D",
"v. c #C5A272",
"b. c #CBA674",
"n. c #CDA874",
"m. c #D1AB76",
"M. c #D3AC79",
"N. c #D7B07A",
"B. c #DBB37D",
"V. c #E0B77F",
"C. c #E3B97F",
"Z. c #868585",
"A. c #8B8B8B",
"S. c #9B928B",
"D. c #969190",
"F. c #9E9996",
"G. c #9C9C9C",
"H. c #A09F9F",
"J. c #A1A1A1",
"K. c #E0B780",
"L. c #E5BB81",
"P. c #EABF84",
"I. c #EEC286",
"U. c #F1C386",
"Y. c #F4C788",
"T. c #DFDFE1",
/* pixels */
"! _ _ +.) @./ e G $./ $.T e A H ! _ *.,.,.$.T @._ A 0 H %.%.&.Z ! ;.-.-.*.*.@.5 G #./ @.T 2 B F E / #.>.>.#.R #.O.B , D O.+./ B ",
"G #.>.>./ / T 2 B E H H Z 5 A H L I L E ! ( $.-.~ A 5 A ! ! I a F | -.=._ E ! e p G D F Z 5 B D F F D Z V V R O.D u , B G Y V u ",
"C Z G T G A F u 2 F H L H e a A S A l a t 0 y A Z t 2 F | ( H j V A H I L S H r < A H ! G e i Z D V a t u 0 e V B 0 2 D R T D u ",
"a D Z Z D A A e 2 Z L I H 9 r h a a a Z V h y z A h e E | ^ H a a H A Z A A Z 6 < l S L A 0 u a t e e B i i t i V i 9 V G G D u ",
"q a B a a a 0 & # e a l r ; 2 2 2 < 2 a r e 5 e r 5 = 6 a l l e 2 p a a a i 6 + & 9 e i e & 2 2 2 2 8 0 0 0 2 9 0 , * 2 t N u 9 ",
"< 2 9 e 9 ; 9 e e e a i e 2 < V ! G H h A Z : h a 2 e 6 e 6 t q 1 1 , , - - - w u a V B t 0 2 N R G G B G G , V V 0 0 0 9 0 u i ",
"Z Z G / T 2 t Z Z D H D Z Z r F _ I I H H T t ^ | H h C a q 1 , = * + + + + = + ; 8 N C V V r B T G H A D D 0 G T V t N a a V V ",
"Z A H I D < e a B D D Z V B e a W I W H F A q j S Z e 2 = + * * $ = ; ; ; + Z ) ! F D 1 N B q u T T T G D V 9 i V B u B V B a i ",
"Z S H G B e e r i a V V B i e e H W I W S j 2 a j 1 & + * * * ; = $ = $ ; + a &.A.%.%.$ + 8 q 9 V V R V V B * u B V u u B i i i ",
"a l l a i 9 t < 2 e t i e 9 ; < j j j Z Z p 1 1 & + ; * ; ; * ; * * $ = ; ; _ 4.H.<.I + * + = 8 B B B B B N * 9 0 N u , 9 u r r ",
"6 e e 2 2 ; < < ; - 2 9 0 2 < ; 2 q q 6 t q = + * ; * ; * * + + + ; ; < < 2 2.A.J.3._ ; ; ; + - 9 9 2 < u N 8 u N u 9 * 9 0 u 2 ",
"V G G Z i e a < r Z G V a 2 D F j j : : C , & = ; * ; + + + + ; ; : < < : : 1.2.p.=.| ; ; ; = + N B 9 * V R #.#./ T V V T T G i ",
"L H G G Z Z A e e G E T D i A A S j j 1 = ; ; ; ; ; +   + ; ; + + * $ * + + h %.*.*.e ; < ; ; o u V e 9 V V T T R D V T T R D u ",
"i l Z Z Z l l e 0 B F Y F i i Z l j j & ; ; + ; +     ; + + o + $ j I a ; i &.^ H , # ; < ; = & N V 0 < N B V G B B V V V V V 0 ",
"e a Z A D Z B 9 e a B B B r 2 r j j 1 + ; X +           o + + ; 9 ^ | Z < a 2.4.<.Z ~ ; # ; + , i B 2 * B B B N N u N w 0 u i 0 ",
"2 t r a B a e , , 0 e e e q ; 2 1 1 = $ + O           = * ; ; * < j j 5 $ 2 l A S r ! 2 ; o . - * * * * 9 u w 9 2 * * , 2 , 2 * ",
"r i a 2 q a e 2 q i a i < i V e 9 & ; + o o     o o * ; * + + o + + * 2 e r i l Z l a > * + O p N u V B i 0 B G V * V #.R V V V ",
"G F A e t Z G W H I ~ W t h A F p & * + o     o o + + + o + + & * $ = ; ; < : < 2 e V H A 2 * C V B V V V B N B B 9 V O.R T G T ",
"l l l e r a A H G S H S e e D A w o o o       o o o . + * * ; $ ; * = $ ; ; ; < : : < < e D a w N B V F D V B 0 , * u V G G V V ",
"a a a e 6 i Z A Z j Z F e e D Z t - o o   o O o   . o ; ; ; ; ; ; ; ; $ ; ; ; ; ; ; < ; : : e r 8 V V V F D V i 1 * u B V V F V ",
"j y a q e a j j V V h h e 9 i r 6 p , o o o o   X @ X . $ ; $ # * $ = * * + + + + + + + @ # & ; * w B i V B B u 0 , 0 i B B V i ",
"e e e 1 e i p r e 0 e e ; ; , ; , e i 1     . $ @ X @ @ ` w.7 . X X . 4 k k x c v b M ` ` 6 - o * 8 B i 9 2 0 0 9 * 0 i N u 0 9 ",
"0 a e u u a B a Y B * e D Y C ; Z H _ ! + X X X @ @ > >  .k.' # % $ X % ` i.h.j.s.d.0.b s 2 D < R T / / G 0 h D F V A F E T V u ",
"e a p u a B C B D a < i F T G e A G H L 2 X X $ % % 4 3 X.k.l.l.z.9.s $ X % m j...4 # @ X = D e B D G F G 0 i A H T V A F V h u ",
"9 p p e 0 u N u u u 2 i C Z a 6 r i C a P ` d $ $ % 4 4 w.k.M.U.U.m.i.b g ' l.C.e.X $ s $ , a 6 r a a a t 2 i A H G Z B Z C a r ",
"2 e u q , , 2 9 0 0 , 9 i i 2 , 9 e u K a.9.e.X.3 % > k h.k.K.I.j.S.t.^ r.m.Y.U.N.] z 8.k r < ; 6 e e e 5 ; e h h t e 0 e e r 2 ",
"2 0 9 q 0 2 * * < 0 * * 2 q < ; 2 1 1 { 8.b c i.[ @ > x h.v.I.N.r.T.S.} F.g.Y.n.y.F.} S 9 i q e e 2 < i t < 2 > ; 9 e 0 0 N p t ",
"T R T R / O.#.i a ( F F A L L _ _ Z 1 P 0.6.f P q.3 % k h.N.U.I.v.p.S.p.p.m.Y.u.w.S.:.l p ~ ! _ _ Z 5 Z F D h 0 < Z T T T G G G ",
"T T T G B D R N e I I I I A Z Z j a q r e.y...b q.n @ d k.K.I.I.U.C.m.n.V.U.U.d.y.v.h.8.j S S S z l 6 7 r f h e w G F R D D D D ",
"D D B B N N B 9 2 A S G A C A S l j 2 6 P g.s.` s.0.# g h.K.I.I.U.U.U.U.U.I.U.m...I.Y.g.j S J J Z l 6 r r h h r 9 V V V V V B B ",
"B B B B V N i 9 2 Z Z a j Z Z Z l a 2 6 6  .h.6.0.i.6.i.k.M.I.I.U.P.U.I.U.U.U.I.5.v.Y.0.a S S S z j 6 y f h h 0 2 V V V V B N N ",
"e e u N i 9 2 * ; i r e t i e q e e ; 2 q q ` w.8.o.k.h.h.x.I.I.U.U.I.I.U.C.c.y. .b.L.n t e 6 e e 6 : e i r 0 2 * 1 9 9 N N u N ",
"a D B a a B a ; < F Z G Z < 2 0 i h Z F F Z p r ; 5 9.j.h.k.M.I.U.P.C.C.U.I.V.M.B.U.g.Z S 2 6 l l F Y W H F B T G B ; Z / ) T a ",
"B ! W / T T ! e 5 F D S Z 5 e Z H H H H F G Y 1 # ; 5 X.h.k.k.K.U.U.v.q.7.9.q.q.g.N.P A J 6 l I U U I J S Z E $.E h < Z H G Z e ",
"i Z F H F A A a < i Z H H r r Z A A l h t e 1 o   X * ; ` i.k.x.C.U.P.L.N.j.0.d.z.e.l } I r l J I S Z l j e l S S y 2 V G F D t ",
"i Z C D Z Z D a ; a S I G r 0 h a a i t i u o o * * O & * 7 ..s.v.P.U.U.P.M @ 5.j.l I ^ I r y z l h f l l l k S S h 5 F H G Z t ",
"q a Z a B B t 2 + r a Z V < > 0 6 2 < e t - o = < < ; + 6 2 # 7 ' i.n.N.9.# @ 4 r r h l j ; 6 r 6 6 5 t y r 6 y i 6 $ 6 h V a e ",
"2 2 9 w 9 < < < ; 2 e r 0 < : 2 G Z i i q o + $ ; < , $ ; 2 + o + $ 4 y > . # 5 r t a V e 5 > r ~ H S Z A A < a j 2 2 6 e e e t ",
"Z Z l Z D 9 9 B B V G D V V i i ) W L G q + + + * ; < ;   o + X ; + + j p , e Z A S I I A S j l _ ^ ~ I ! H e H ! A l l l h V D ",
"l Z G G A 0 2 i a Z D Z V V i 0 G H L H , $ + = + + $ 4 s $ ; e 6 +   C j e , u Z H J S S z r j U ^ ~ ^ U H 6 z H Z y A Z l h a ",
"Z A A H C q q e i B B V B B u 9 A G Y G < ; + + * + d l.g.5 $ 2 < e + 9 <.D.3.) p j Z Z j j e t L U ^ ! I Z 2 j A S i y Z l a y ",
"j a Z C i 6 e < 9 u u i u 9 , 2 a Z Z B - ; ; + $ x a.N.I.j.n < ; H j A %.%.3.Z.j t w C j w : 2 Z A A A A a < r y a i : r a y y ",
"i e e 2 9 < < < * * 2 0 9 9 2 * 9 e e 9 = ; ; : : k s.z.N.N.C.u.k $ ` { l z 1.G.<.! W D.G.3.Y p w t t e r e ; 2 r t e ; 2 r t 6 ",
"r i i r e 2 r e 2 N V B u < V V i e < - $ ; + ; ; ; ] h.0.7.z.n.m.q.B.B.M y ^ A.<.Z.Z.4.4.3.<.&.C W N 8 A H L ) _ ! A A L ! H a ",
"B A Z A Z l Z i 2 B D G D e a Z C j t 1 = < * o ; ; $ ' i.X.w.B.I.I.I.I.N.d.M : 8 j A ) | ) H.<.A &.<.C C ^ ~ ~ ! H H ! ~ I S i ",
"i a B C Z C j t 2 N V G G N r B Z j j - ; ; * X + $ ; : k 8.f.c.K.I.B.g.I.B.[ 9.v C Y C j j W ! 3.H.<.p Z S H L H A F H G D Z t ",
"6 i Z Z Z B a u 9 i N B B i 9 r a j p = : < , $ + + + ; ; 6 ' w.z.M.N.L.N.[ ] m.f.6 j C C j 2 w j C j - l A F A l a B a a B h e ",
"6 t i a a B t 1 * 0 u e e e , 2 2 1 , O * ; ; < < ; < 2 2 5 2 5  .i.a.M. .0.N.0.{ q t t w q < 2 - - = = i a i r 2 < < 2 2 9 9 ; ",
"e e e e 2 i u 9 2 e a t 8 2 0 0 e < e u & o + * $ $ < 5 6 2 6 : ; g  .n  .s.l.' r Z D V 2 e D h p t Z Z V t V L V * B O.Q D V a ",
"Z C Z a 2 V D H T T H G a 9 B D Z a Z Z , ; * * & O + & * * + + $ ; : ;  .y.l C I ~ ! L t a A L S l S S S A h A D 0 T $.( L L L ",
"Z j a i 0 a D G G A G F i 2 B D B i Z G q - ; < : ; ; 2 < $ ; ; q 6 6 6 > 4 j L L H J L t y S L A l I I L L A t 2 * a A H F F D ",
"Z a a t 2 t a V V a l A i 9 B Z r i D A B , ; : : ; 5 q 6 * * ; : 2 6 q 6 2 j S A l A H u r A A y Z J H I J H Z 2 + y D D A A Z ",
"C a a t 9 i a V B B B B t 2 e p 2 t a B Z e ; < , : 6 6 6 &   o ; < 6 6 6 6 q Z Z Z l l e e a t 6 l Z A A A Z h e ; i h Z Z l h ",
"a r u 9 9 u i i u u 0 u < * 2 * = 9 t t e q = ; : : 6 q q : + * ; < , 6 6 2 , p r r e e ; < 2 + ; t h a r 5 t t e ; e i a a t e ",
"u p e 9 e p N N B i * 2 u B N * 1 a Z D p = ; < - 1 6 6 6 : + ; ; , 2 6 q 2 , C Z a : 6 V D V : S ^ | ~ V 2 l L L A S L ! L D e ",
"e p N u e N N i B i 1 0 B G V 0 u B Z D q + < ; : 1 6 6 6 + O ; < < 2 6 6 1 8 Z l a 2 j A H A e l S J L A e l J U ! L S L A l t ",
"0 u N u 9 N u N u u 2 w V B N 2 e t N i , ; , : ; < q 6 : , + * : < 2 q q ; 8 j y a 2 a l Z a e y a h h a 5 h S I I Z A A Z a t ",
"0 9 u w 8 * , w 0 w 1 2 u u 0 * 2 q e u , + : ; ; < 6 6 * w = + $ < 6 6 5 & - 6 e e ; q i y 2 ; 5 e t t e : e z l a r e r r t e ",
"u 9 N 9 9 9 * * * w * * 9 0 9 * , 2 , 1 & o + ; : 6 q : - w = o o + + & = q 9 * 2 a 2 2 e t e 9 e < ; y t 5 5 2 ; e t r r a i r ",
"V V V R V V F N 9 G F V V T V T H C 2 - O * + + * < < - C j + * * ; : ; = 8 C t a U I L I I H I L l 5 z A A h r 2 S W E G G G D ",
"R R G V B B V B 2 D E F T F V V j p q = * ; $ - ; + + & C w & * ; : < < < ; * 8 t J ! ~ I A A A l l e e h h h t 0 G T T G G D G ",
"V V B V B N B u < V F F V V D F j j q O * ; ; : : < : : - 9 + ; ; < < < < < ; = 0 S H S A A S L A l 6 r i h h r 0 V G F F D D Z ",
"V B B V B N i 0 * V V V V V V D C j q O + * + ; - : : - = 8 + & + * = * * = * O 2 F Z Z Z A A A Z Z 6 r y y h 0 2 V V V D V N B ",
"V N N N N u 2 9 & i B i u i B B j j ; = = & = = + O & + = w 8 - - : , 1 1 - O O ; t e e e r p i i 9 ; 6 0 0 u 0 * 2 N N N u e u "
};
