/* XPM */
static char *Policeman_Robert_2D_Character_Sprite_for_Indie_Game_Developer__2__fotor_bg_remover_202403193648_resized[] = {
/* columns rows colors chars-per-pixel */
"64 64 169 2 ",
"   c #161515",
".  c #191616",
"X  c #1E1916",
"o  c #171718",
"O  c #191718",
"+  c #161A1D",
"@  c #1C1B1C",
"#  c #211B17",
"$  c #211E1C",
"%  c #24201C",
"&  c #2A231E",
"*  c #1D1E21",
"=  c #211F20",
"-  c #1E2125",
";  c #1E2329",
":  c #232324",
">  c #2A2524",
",  c #242826",
"<  c #2F2924",
"1  c #24262A",
"2  c #28272A",
"3  c #25292D",
"4  c #2B2B2C",
"5  c #322A24",
"6  c #3A2F26",
"7  c #322E2C",
"8  c #3C3127",
"9  c #32302F",
"0  c #3C332B",
"q  c #262B31",
"w  c #2D2E31",
"e  c #302F32",
"r  c #2E3134",
"t  c #2D3339",
"y  c #333334",
"u  c #393735",
"i  c #3A3936",
"p  c #353639",
"a  c #38373A",
"s  c #36393C",
"d  c #3B3B3C",
"f  c #41362D",
"g  c #45392E",
"h  c #433732",
"j  c #443C35",
"k  c #4B3E33",
"l  c #403E3C",
"z  c #4E4134",
"x  c #42413E",
"c  c #4C433A",
"v  c #544537",
"b  c #5A4936",
"n  c #52463A",
"m  c #56493A",
"M  c #5C4C3B",
"N  c #61513E",
"B  c #353B41",
"V  c #3D3D42",
"C  c #403F43",
"Z  c #3E4044",
"A  c #3E4349",
"S  c #434344",
"D  c #484645",
"F  c #474847",
"G  c #4B4946",
"H  c #45454A",
"J  c #49474A",
"K  c #46494D",
"L  c #4B4A4B",
"P  c #534B41",
"I  c #5B4F45",
"U  c #514E4C",
"Y  c #4D504F",
"T  c #5F5141",
"R  c #54514E",
"E  c #4C4C52",
"W  c #4D4D5A",
"Q  c #514F53",
"!  c #4D5051",
"~  c #4F515B",
"^  c #545253",
"/  c #595553",
"(  c #5A5855",
")  c #54545C",
"_  c #59565A",
"`  c #5A5A5C",
"'  c #645443",
"]  c #685744",
"[  c #6D5A43",
"{  c #725E48",
"}  c #655A53",
"|  c #635D5C",
" . c #5F605F",
".. c #74614A",
"X. c #79644B",
"o. c #7D684D",
"O. c #64615F",
"+. c #565563",
"@. c #575861",
"#. c #5C5B64",
"$. c #5C5C6A",
"%. c #615F62",
"&. c #656364",
"*. c #63616A",
"=. c #6A6668",
"-. c #6D6C6C",
";. c #636271",
":. c #6F6B73",
">. c #716C72",
",. c #747474",
"<. c #7B7776",
"1. c #7B7A7B",
"2. c #836B4E",
"3. c #846E52",
"4. c #886F50",
"5. c #867054",
"6. c #8A7355",
"7. c #8D7558",
"8. c #937856",
"9. c #927A5B",
"0. c #997D5B",
"q. c #887A6C",
"w. c #917E67",
"e. c #917F6B",
"r. c #857A72",
"t. c #817C7B",
"y. c #887F78",
"u. c #9B805D",
"i. c #A4865E",
"p. c #9C8262",
"a. c #95826C",
"s. c #A28663",
"d. c #A68A66",
"f. c #AA8C65",
"g. c #AB8E69",
"h. c #AF926B",
"j. c #B19166",
"k. c #B2946B",
"l. c #BB9A6C",
"z. c #BD9C70",
"x. c #C19E6F",
"c. c #C19F71",
"v. c #C4A273",
"b. c #CAA575",
"n. c #CEA875",
"m. c #D2AC77",
"M. c #D5AE79",
"N. c #D7B079",
"B. c #DBB37C",
"V. c #DFB87F",
"C. c #E0B77F",
"Z. c #848282",
"A. c #8F8987",
"S. c #8C8C8C",
"D. c #8E9090",
"F. c #959595",
"G. c #9C9B9B",
"H. c #A59F9B",
"J. c #A2A1A0",
"K. c #A8A8A8",
"L. c #B7B3B4",
"P. c #E1B780",
"I. c #E5BB81",
"U. c #E9BE83",
"Y. c #EEC286",
"T. c #F0C386",
"R. c #F2C688",
"E. c #F4C889",
"W. c #DCDDDE",
/* pixels */
"^ ` ` @.) #.) y K %.) *.L y D U ^ ` *.:.>.*.L #._ B q ; * * + @ * * : q s ~ @.w K *.~ %.E 4 V K E _ $.;.;.$.W $.+.V 1 H +.#.) V ",
"K $.;.*.` ) E 4 V Q L J D 4 D L R R L R ^ / *.$.B : w 4 u @ * - - * * @ @ - 3 ; t K K F S w V H K L H S C V W +.H p 2 V H J V p ",
"V S E E L D J y 7 J L R K y i F G F S d a w 1 * =._ =.` &.% - : : : : : - = * @ @ ; B ! G y s S S C d p y e y S V y 2 H W E H p ",
"V H S S H S F y 2 S U U L e u l d d i S V * @ * ^ | F.Z.^ - % : % - * % % , % - : * @ , Z r y d p y y V V p u d V a w H K K H p ",
"w d V d d d y * = y i l i : 4 7 4 4 4 s * @ : @ R -.G.S.,.i : : : % = @ = = : = * : * @ + ; r q 4 4 4 y w w 2 4 4 2 * 4 p p a w ",
"3 4 w y w : w y e y V a y 4 1 C ^ J Z @ @ : : % _ -.G.G.1.` : > , ; % = * @ @ = , % , % : + - Z W E K Z K E 2 C C w y e w w y B ",
"S S J _ E 4 p S S H L J S S y L ` ^ r @ : : : :  .=.1.1.t.L : 4 , , , : : @ @ @ @ : * : : : $ , A E K S H H e H E C a V V d C S ",
"S F L U H 2 y d C H F S C C y a Y Y 3 * : : 4 : y -.-.-.^ : X @ = % = @ : : : @ o @ : % : * * , : A E K H V w a H V y V V d d d ",
"S G L L V y y u d d C C V d w y J ! r @ : : 2 : @ = S U } / : : x F a @ o o @ = = @   @ * % , % = = C K C B q y V C p p V a a a ",
"i x x d u w p 4 4 y p a y 7 : 4 d D s @ : : $ @ L l | <.1.&.4 4 R O./ 4 = * @ o @ @       o o * = = 3 B V p = w y p B = e p u u ",
"y y w 4 4 : 3 : * : w e e 4 2 : 4 w r * O @ @ 4 &.l / %.` D : : D R R 4 - % % * @ o   o     o @ * = = q p B q p B B w = w p e w ",
"l K K H a y a 4 u S K V d 4 H H S d 4 + o % : : u 7 u a u u y < : * % @ @ $ : - , * @   o     o * * = * V W $.$.) K C C K E K u ",
"Q L L J D S D y y J Q E H u S D D x i ; O @ 7 x L J C i y 7 4 4 : : $ @ @ o o $ @ % @ o         + O = = t K W W E H C E W Q C a ",
"u x S F S S x y e C K K J d i S S S d 1 4 D L d e 2 2 > 2 , : : : : - : : * * O   @ @ X @ o     O + O = * V V C V V C C C C C y ",
"y i S F S S V w e V V V V u w u V S r y S y 2 > 3 : > 2 : : : : % : - : % : : : : @ o o o @ o   o O X O = B V V B B B y y p a w ",
"4 u p d d V y : 2 y r y y w 1 4 2 q 4 y 4 > 2 : : : : : - % : : : : % : : , : : : @ o o   o @ o   o O * q p w w q = = 1 1 2 w * ",
"p d d 4 w s y w e d d d : d C y w * - @ @ @ @ @ X @ O O @ @ @ @ $ $ $ $ @ @ > 5 X X X # X . . o O o 1 B B e V K C = C $.W C C C ",
"K F F u u S J L Y ^ ^ Y a d H D B p d d y j ....[ ] ' M m m m v > . # # # 5 9.9.& # # . # # X . o 1 V C C a a V V w C +.W E E E ",
"l l S y u d G L G J L J y y F J Z l J L Z < f M 8.g.d.k.k.h.9.k $ # # # # v k.p.6 5 & # $ X X X o p K H H C V y 3 = y C K J C C ",
"V d d 9 e d S F S d D G y u S C i Z G G Z X # # $ 0 M k.3.g $ X # f o.l.f.j.k.p.9 0 & & & # X X - V C H H H H p q = p V C C H C ",
"x i d r y d d Z C l d V r w p u 9 d S x x * # 5 # . b I.x.N 8 8 ] j.U.E.R.N.k.h.k 5 5 & $ & 5 z c V V d V V d p e 1 e a V V d d ",
"r y y 4 y u d a y y u y : : 2 : : y u a y 1 n 8.f k l.T.E.Y.j.} I r.e.b.Y.I.k.k.o.& 5 % > ] 9.p.s.I B p w 4 y w w : e p a a e w ",
"y d y y p d d d K V : y H K S : D E _ ` K 4 y ' } y.f.m.T.C.a.A.g H.W.q.M.Y.b.k.6.& 5 # X.d.] n 6.5.A _ E 4 d F J C S L E E C y ",
"y s s a s V Z Z H d 2 a J E K y D J L U Q d 3 D / L.5.0.Y.C.w.G.r.L.H.w.I.Y.V.k.5.& & 8 s.] f 3.o.3.s K H y d G L L S F J S C u ",
"r p p p e p B p p p 2 a Z S d w y d l d i e e T <.a.j.2.C.T.N.d.e.d.x.U.U.U.U.b.o.% $ ] 6.n M 3.u.T a i i 4 i D L J S S S d d u ",
"4 y p r 2 1 2 w e y 1 w a a 4 2 e y y y 9 2 7 f.N.U.j.6.T.Y.R.T.U.U.E.U.U.E.U.c.X.X & u.6.' 9.g.9.y y y 9 : 9 l d i w w y y y e ",
"2 e w t e 2 = = 4 w = : 4 y , : 2 4 2 y y : , f.E.T.o.l.T.Y.Y.Y.R.R.U.E.U.U.U.c.6.5 m h.9.] h.d.n r 2 a y 3 4 2 : w y p p p a p ",
"W W E Q ) +.$.B d _ J D G L Y _ _ S 7 J L F s 5.E.B.N B.Y.Y.Y.T.T.U.R.U.U.U.P.l.h.s.u.u.6.p.d.T Z Z 9 S J D l 9 4 S E E E E H K ",
"E E E K V H E B y U R R R S x D x d 9 9 9 x i n C.C.2.4.i.m.Y.T.E.U.E.U.E.U.n.k.k.k.p.] 6.5.m x D x 9 u i l l u e H K K H H H A ",
"H S V V V V V w 4 G J J F S F F x l 4 9 9 u l y i.T.Y.C.V.Y.Y.U.U.U.U.E.U.P.k.k.k.f.T , % a K R x x 9 u i a l u w C H H A V Z V ",
"V V V A V p B w 4 F S d x x S D D d 4 9 9 u u r c N.l.u.8.4.2.2.0.M.U.U.P.z.k.k.p.m : : @ 3 G G D x 9 i l j i e w V C C V V V p ",
"p y p p p w 2 : : p y u y a p y y w : 4 9 9 y 7 : 6.c.i.u.u.x.N.U.U.U.U.c.k.h.6.0 $ * o   + y y 9 4 , 0 u u u 4 = 4 w e B B p p ",
"d H V d a V d : 2 J S L S , 4 y d x S J F Z i S S x j.c.8 8 v.E.U.U.U.n.k.w.N & @ @ @ % @ o + a D G L ! L J V E E V : l ` _ E d ",
"V ! ^ ) E E ^ y 7 K H J D 9 y x J L L L G K ^ =._ x x N # X b B.U.U.c.7.T 5 = 7 : @ , 2 : % o 4 R R U U G S Q %.Q d 4 S K K S y ",
"d C K L J F F d 2 d S G G u y D F D x d d 4 i F x i r , X X X m 2.T f = @ . e u X : 2 2 : : @ @ D G D c l y l G D i 2 C L J H p ",
"d S S S S D F d : d G R J p 9 l x i d d i d i x F x r F l r - r = = O = . . . = $ 2 2 2 : * @ o r x l d S x c D P l 7 J L K S p ",
"w V V d V V a 2 @ y d x d 4 4 y 4 4 4 y y i 9 y i y % y s r , r = . = > = = = . X : , * O - O % : y 9 i i i 0 u i 4 * 9 x V d y ",
"4 4 w y e 2 2 2 : 4 y d y : : 4 K S d i s l , 9 i 3 , q 4 S  .L a   = y C = > k 5.< X @ : @ @ : : K G x D F 4 d x 4 7 y y y y p ",
"D Z C F S e 4 V d V J J S V d a ^ R L K F Y s Z A B r &.D.F.S.Y 1 2 C 2 > = 6 w.U.p.f $ @ o % , - Y / R R U u G ^ F l x x x x S ",
"x D J J F e 4 d V S H S C V p y L L Y K Z B Z ! y d s -.,.( &.` J C l = 5 [ x.U.I.l.9.z % @ : > * K ( / R G y x G S i D D x x d ",
"Z D F G S y w y a V C C V d r r H A A K &.D.K.F.Y ( ,.G.J.D j j 8.' # v j.U.N.n.c.l.3.> : 2 : , * Z / ^ R F 4 l D G i i S x d i ",
"d d Z x i r y 3 q y y V p e t B ! K ! -.-.,.1.1.S.S.,.,.Z.0 i 8.T.B.0.B.N.j.s.{ j.w.f = : : @ : * a D D D d > u i l d 2 i d i i ",
"d y y 4 w 2 2 4 = = w e e w B -.=.( Z D.F.Y -.) F s 3 3 i 5.x.U.T.U.U.U.I.0.2.w.9.h = > : o : 4 % 3 u y a y : 4 a a y : 4 i u 4 ",
"u a a a y 4 u w w a V V a 2 q #.F.G.^ -.! t Z A K Y y X.M l.E.N.d.U.T.U.b.h.0.{ 7 = : : o @ @ : : - 3 > S L ^ ^ _ U D D U ^ L d ",
"V S S S S x S a 3 V K K H p t A  .K r 3 B F ! ! A a o.Y.8.b l.C.N.I.P.c.d.7.k > = = @ X @ = : , , - y y D R ( ( ^ L L ^ / R G d ",
"a d S S S Z x a 4 d C K H d i x B d a 4 B Z K Y K s ..s.i.k.M b.P.0.h.9.k 7 4 4 2 > : : 2 : > 3 , @ r 4 D F L R L S L L K J S u ",
"9 i Z S S Z d y 4 s s Z d s e y s x y * s V Z S V a y N b.N.X.M s.0.{ 7 1 e 9 e y 7 2 > : : : @ @ 3 e : x D G D x x V d d V d y ",
"e a d d d d a 3 1 r y y p y 3 4 3 3 : + y d s y y 4 3 3 ] 3.n.b 7 6 @ @ = = > > > = @ @ X @ @ @ @ 3 @ % i d d y 4 2 2 4 4 w w : ",
"y r a r 4 p y w 4 p d p w 2 y w y 4 e p y w y V V : 4 E A c { 4 4 4 4 2 * @ % * : $ - % : : , : ; y S S x u x U C : C +.) J C d ",
"S x S d w d H L L E L J d w V H S i S S S d u S H w E %.` r , e 9 9 9 9 4 % , 2 9 4 , 2 , : 4 - r S G L G x l S S w L #.) U U L ",
"Z x d i y d S K L H J K p w V H V d F J H F d y w : y S K r 9 9 y e 4 : : O X 4 9 r 4 , > : : 3 d D R R U U F u 4 : i J L J J S ",
"S d d u 4 p d S S d x F d w d S p d S D J J K C 4 @ e S s , r w 9 4 : : @ . @ e 4 9 4 : > 3 : a i c G U R R L S 4 * i D G J D D ",
"S i d p w p d V C V a V p 4 y p w p d d S S S V y : y V p - 9 9 e 4 , , : @ : e y r 4 : > : - r y x D c F G D d y : i x S S x l ",
"V p p w 4 p d p y y e p : : 2 : = e p p y w y y t : 4 u r : 9 9 7 , 2 : : @ : 9 9 9 7 2 , 2 : @ 3 u d d u r u d p : y i d d p y ",
"y s p r y p B B V V = w p V B : 4 a V H d 2 u d C d d J V : e e e 4 , > : @ o 4 e e e , : , : @ r / O./ x 4 x G L D G U ^ L S u ",
"p a s y p V B d V B 2 w C H C e y V H S S p i D L U G G Z - e e e 7 2 : * @ - % e 9 9 : > , 2 : ; J U P D y c L / R U G U G Z u ",
"p p p p w t p B y p q y V V B w e p V B a e y S L L F F F 3 4 e 9 e , , % @ r - 4 e 4 : : , : : - d l l i 9 j U R U G D D D x y ",
"w w p p w = 3 w t y 2 2 p p w = w w e y e 4 e C D d u u i w * : , % $ @ + @ q 1 : r 9 4 % 2 : O * y u u y 2 y x x i y y y i a e ",
"y q B e t q = = = y = = 2 y w = 4 2 : 4 e : : 7 : 4 w 7 w q - @ * $ $ @ - @ ; - @ 4 9 9 , @ O @ @ ; , i i 4 4 4 : y d u u d a y ",
"E C C W C C K B w J H H C J K E K V w u a i i y 3 V K K t * = : 2 4 , = : @ q d ; X * @ @ % : : @ * r x n G c u 4 G R E L G K K ",
"C W H C V V C V 2 J L U Q J C S l d p w y i d a 4 S E A * : 2 > , 2 2 * : @ 3 t @ - : : , 2 : % - @ q y l l l i e J E E K K H H ",
"J C C C V a V B 2 C J J C C C J S d y 4 y y d d 4 V H t @ 1 2 4 4 4 : : % @ 1 1 % 3 4 , 2 , - - : @ 3 u a i l i w H J K K H H Z ",
"C B V C C B B p = C C C C C S S C V r 4 y y y p w a S t * * * * @ @ * @ @ + 3 - : : : - % * @ @ @ + 1 a i i a y 4 V C C H V V V ",
"C B B V B p 2 2 = a B B u d B V V d : 4 y 9 y p = q p p t w w w r w w w q 1 1 - + + @ @ + - - 1 1 3 * e y e u e = w B p B p p p "
};
