/* XPM */
static char *Policeman_Robert_2D_Character_Sprite_for_Indie_Game_Developer__2__fotor_bg_remover_20240319379_resized[] = {
/* columns rows colors chars-per-pixel */
"64 64 166 2 ",
"   c #161616",
".  c #191616",
"X  c #1D1916",
"o  c #191718",
"O  c #171A1D",
"+  c #1C1C1C",
"@  c #221E1C",
"#  c #1F201F",
"$  c #27201C",
"%  c #2A231E",
"&  c #1D1E21",
"*  c #201F21",
"=  c #1E2023",
"-  c #1F2429",
";  c #232324",
":  c #2A2625",
">  c #2B2826",
",  c #252629",
"<  c #282729",
"1  c #26292C",
"2  c #2B2B2C",
"3  c #322B25",
"4  c #392D23",
"5  c #312F2D",
"6  c #2C302E",
"7  c #3B3025",
"8  c #31302F",
"9  c #3C342D",
"0  c #2E2E31",
"q  c #302F32",
"w  c #2E3034",
"e  c #333334",
"r  c #393735",
"t  c #343837",
"y  c #3A3936",
"u  c #353639",
"i  c #38373A",
"p  c #36383C",
"a  c #3B3B3C",
"s  c #42362B",
"d  c #403731",
"f  c #443B31",
"g  c #493D32",
"h  c #403E3C",
"j  c #4D4134",
"k  c #42413E",
"l  c #4C433B",
"z  c #524536",
"x  c #584836",
"c  c #55483A",
"v  c #5B4C3D",
"b  c #60503E",
"n  c #373A40",
"m  c #3D3D41",
"M  c #403F42",
"N  c #3F4044",
"B  c #3D444A",
"V  c #434344",
"C  c #484745",
"Z  c #4A4946",
"A  c #454549",
"S  c #49474A",
"D  c #47484C",
"F  c #4B4B4C",
"G  c #554C41",
"H  c #514E4C",
"J  c #4F504F",
"K  c #5F5040",
"L  c #53514E",
"P  c #4C4C52",
"I  c #4D4D5A",
"U  c #514F52",
"Y  c #4D5052",
"T  c #4F505A",
"R  c #535253",
"E  c #595553",
"W  c #595854",
"Q  c #53535C",
"!  c #5A5659",
"~  c #5B595C",
"^  c #655543",
"/  c #695742",
"(  c #6B5844",
")  c #665849",
"_  c #6D5C4A",
"`  c #725E49",
"'  c #635E5D",
"]  c #75614B",
"[  c #7A664D",
"{  c #7D684F",
"}  c #6E615F",
"|  c #7F6850",
" . c #565563",
".. c #575861",
"X. c #5C5B63",
"o. c #5C5C6B",
"O. c #625F64",
"+. c #646263",
"@. c #6D6665",
"#. c #63626A",
"$. c #6A6669",
"%. c #67696A",
"&. c #6E6B6C",
"*. c #716866",
"=. c #706D6D",
"-. c #70706F",
";. c #636271",
":. c #6D6D72",
">. c #726D71",
",. c #737474",
"<. c #787475",
"1. c #797778",
"2. c #7D7C7C",
"3. c #836C4F",
"4. c #836E52",
"5. c #877054",
"6. c #8A7356",
"7. c #8E7658",
"8. c #8E785A",
"9. c #937957",
"0. c #947B5B",
"q. c #997E5C",
"w. c #8C7B68",
"e. c #9C815D",
"r. c #A6885F",
"t. c #9D8361",
"y. c #93826E",
"u. c #9A8973",
"i. c #A18561",
"p. c #A68964",
"a. c #AB8D65",
"s. c #A28B6E",
"d. c #AB8E68",
"f. c #B18F65",
"g. c #AF926B",
"h. c #B59468",
"j. c #B2956D",
"k. c #BC9B6E",
"l. c #AF9370",
"z. c #B19470",
"x. c #C39F6F",
"c. c #C3A06F",
"v. c #C6A272",
"b. c #CAA573",
"n. c #CDA976",
"m. c #D1AA75",
"M. c #D4AE79",
"N. c #D8AF7B",
"B. c #DDB57D",
"V. c #E0B77F",
"C. c #E2B87F",
"Z. c #7F8080",
"A. c #878382",
"S. c #8B8B8B",
"D. c #928987",
"F. c #939494",
"G. c #9C9C9C",
"H. c #A09B97",
"J. c #A0A0A0",
"K. c #B4AFAA",
"L. c #E3BA80",
"P. c #E9BE82",
"I. c #EEC286",
"U. c #F0C386",
"Y. c #F3C688",
"T. c #C6C4C4",
/* pixels */
"R ~ ~ ..! X.Q w F o.Q #.F e C H R ! #.:.>.O.U ~ ~ C 5 H +.+.@.A R =.=.&.+.#.X.2 A o.Q X.P 2 m S P Q O.;.;.o.I o. .m , A  . .Q m ",
"D o.;.;...R R 2 a R F C V 5 C F R L H L U ! O.&.! V 5 C E L H a C O.&.$.~ U U r i D A S V 5 m A D S A A M m I  .A u 2 m D D M u ",
"a V F P F V S u 2 S F L F e y V Z C k a y q y C V r 2 S ' ! F h M C F L J C F y : A F L F e a V V M m u u q e M m e 2 A I P A u ",
"a A B V A V A e 2 V H L F q r M a a y V M h h h C h q U ' E H a a F V V Z Z V 8 2 k F H C 0 e a i e q n a i i i m i 2 M D D B i ",
"e a a a a a q & @ e a M y ; 2 5 6 2 2 h r e 5 e r 5 @ e h h k r : a a i p t q + & q r i e * 2 2 2 2 1 q q q 2 0 2 , + 0 i u i 0 ",
"1 2 0 u 0 ; 0 e e e a i e 2 ; M R S S a V V : h h 2 e 8 e 5 8 e e 8 e h r ; e a i i M a u q 2 n I P D V D D , M M 0 u 0 0 q u n ",
"A V S Q P 2 i V V A F C V V r S ! R L S F U r ! ' C h h h k C C C H H ' ! 8 e M V S D V M M i m P F D A A A q D P M i a m a m M ",
"k C F L A < e a m A A V V m e i J L R F S C q M C V a V V k k k l H L L V 2 e a h A A V V a q u F P P D A M 0 i A m u m m a a a ",
"k C F S a e w u i a m M m i e e F H R F F k 2 y V Z i p k k h h l H H Z h t i e r a m a a i 2 0 M S S S M m 2 u m M u w m n y y ",
"a V k a y w i < 2 e i a e 2 ; 2 a V V N h p : e p h y < r h a a a k k h y 6 r 2 , 2 r i e 2 ; < n M n n m w * q q u u , q u u u ",
"e e q 2 1 ; < < ; - 1 q q 2 2 ; 2 e q 0 i e ; q u u w $ > e r w e 6 2 > 1 ; 1 < ; , 0 0 q 2 1 , q 0 1 2 u n 1 w n n 0 * q e q q ",
"h D D V i r y 2 r V S M a 2 V A V i 2 : D +.>.<.' F V k L F n - + + + o + - 1 , u D P A M 0 A A M u 2 , M I o.o.Q D M M P P S i ",
"U F D F A V C e e D P P A i V C C k y 8 V Y Q R R F F J m t r a V ; # ; # # # + & 1 t B A p N V M M e q M S P I D A A I P I A u ",
"y k A V V V k e q m S P S a a V V V r 1 N V F P D V N 1 = +.+.1.~ 2 ; = ; ; ; ; ; & + = 0 u t m C M q 2 n M M A m m m m M M M e ",
"8 a V V V V m 0 e m m m a i 2 r a V w ; a V V V N t = # + F 1.J.-.i ; $ $ # # = = ; ; = & & 1 t i a 2 * n n m m n u u u q u i 0 ",
"8 r y a a a i ; , 0 e e e q ; 2 , 2 + + r i t w 6 = # = - Q 2.J.A.~ ; , , # # + + # ; $ = = + - 1 * & * w u w 1 1 , * , , 2 2 & ",
"r i p 2 w i r 2 w i a p 2 r h e e 0 i i i e a A 1 + , ; ; ~ -.w.2.F ; , , : = ; + + + # ; ; # # & w m m u w m P M * M  . .M M M ",
"D A Z e y V S P J J R R i a A C V h S C V k k S 1 + ; > , 8 ! +.E 8 + $ : ; + + # # # + # # ; # * , m M m m n n m 0 D Q I S I P ",
"h h k e t m Z F F Z F S e e A C M a C F F C k u , + ; ; $ 2 e W *.+.2 e E F > +   + # +     # # , * 1 m A M m e , * e M D A M M ",
"N a a e 6 a h Z V k k S u e V V r V S C F F C a 0 O @ + ; ~ C &.*.R ; 8 E W 6 = # # +         O & & & w A A V p 1 * u m M A M M ",
"k i a q e a h k m a h a e 0 i i 8 a k k l C V a e &   ; : a e h a e 2 > , > $ + # = ; #         o O ; = t m a i q , w i n M m y ",
"e e e , e t p i u q r e = ; < & , e i i u w e 8 0 & O 2 M C V y e 5 2 2 ; # # + o + # # +         o o ; - 2 w w q * q i u i e q ",
"0 a u u t a a m P m ; e A P V ; V H ! ~ S 2 h C m 0 h V e 2 > , , ; ; ; ; # ; ; $ # o   X + X       O + - 2 a V S M V F U P M u ",
"w a p t a m N m A a < i A F D r C S F J R y k V e i q > ; : ; ; ; = ; $ ; # ; = ; ; , #       X     o o 1 w a Z F F V V C V M e ",
"w u u u 0 u u u u u 2 i V N i 2 r a a a y 8 a < ; ; # + @ + + + + $ # = $ $ = # $ , $ . X X . . o o o < y 2 y V F S V V V a a r ",
"1 r t w 2 , 1 w w w , q i t 2 2 0 e e r 8 , t t t w > b / b b v c c c 9 + o + . j 9.9 @ X X X .   o 2 e 8 , e k a i 0 e e e e w ",
"2 q 0 w 0 1 * * 2 0 * ; 2 e , , 2 < , e w ; > 5 > 8 2 3 g 3.e.p.g.t.] 4 X $ 7 4 5.g.j > $ $ @ X X & 2 i e 2 2 2 ; 0 u 0 u n p r ",
"I I P I Q  .o.n a ! S C Z F J ! ! V 5 Z F Z h 8 , A w X X @ % 9.i.s X % x r.M.m.k.g.c 4 % % $ @ # w e V C V a 8 2 V P P D D D D ",
"P P P D m A P n e H L L L Z k C M a 8 6 e a h r 8 F N > / 3 s b.I.c.{ v 4.j.B.U.n.j.{ > > $ 4 b 5.] t e d h h r w D D I A B A A ",
"A V m m n m m 0 2 C S S Z h C C k a 5 8 9 r h y 6 V D a ) ) w.n.P.P.u.@.} T.y.C.B.j.e.> % 3 0.5./ e.c y r d h r 0 M M M M A m m ",
"m m m B m n n 0 2 V V a h V V V V a 2 8 8 r r 8 2 h A n m *.H.5.n.C.u.A.D.K.s.L.I.v.0.3 $ / 5.f ] 6.G a h h a q 0 m M M M n m n ",
"i 0 u u u 0 2 * ; i e r t p u w e e ; > 8 8 e 5 ; e r w ) y.l.9.b.Y.B.j.z.v.P.U.U.M.6.% % 7.b / 6.7.e u d e e 2 * 2 0 w n n n w ",
"m V a a p m a ; < D V F V : 2 q i a V S A V i V V h > e e.I.B.3.C.U.U.U.U.U.U.I.U.M.6.@ z a.( t.s.^ D Y F S m I D n ; h ~ Q P a ",
"N R T Q F P R r 5 S A S A 5 e V F H F F S S R @.W C 6 t 5.Y.h.e.U.U.I.U.U.I.I.U.I.b.s.[ 7.e.| d.[ k H H Z V U O.U h 2 V D S V r ",
"p V D F S A A a : i V F Z r r V C A V a y q r V V y 2 t v B.k.4.f.M.U.U.U.U.I.U.L.z.g.j.0.| 8._ k Z C k h e h G Z d 2 M F D A i ",
"p V V V Z V V a ; a C L S r q h k a y r a a y k l k 6 Z N p.I.B.M.V.C.B.V.P.U.P.b.g.j.t.l $ e k k h h h k l h C Z h 5 S F S V u ",
"8 a V a a m i 2 + e i k h 2 < q 2 2 > e e r 8 e p e ; 8 h c n.e.9.6.6.q.x.P.U.M.j.j.8.f ; + O u 9 5 2 y h r e r y 6 # 8 a N a 8 ",
"2 2 0 0 q < < 2 ; e r i q < ; 2 S V i y i V > e t 2 ; 5 8 6 | n.9.[ N.P.U.U.B.k.p.] 3 + +     , U F C V C C < a a 2 5 e e e e i ",
"A k V V V q 5 m a m D A M M a i R J J D C Y u V F C a a k h h 6.s @ 9.P.I.L.a.[ d , ; + ; : # o a W W L L H r F R C h k k a V V ",
"k A S D A e 1 i m V A V M M u e F F J F V A 6 a Z k r k k k k t @ . : | | v 4 + # t $ $ , , ; o ; J W E L Z 8 l F V a l C k k a ",
"k A C S V e 0 e n n M M M n e q Z F D F F V 0 r V V a r k k k k y 2 2 y # + + o + + O 2 , $ # + + V E E L C 5 h C Z i a k k a a ",
"h h V N i 8 e 1 2 u u i u q < < i B V M V a , e t m a 2 t h a a e 2 6 N # + 2 > $ @ > $ ; + # + + w C A C a ; y a h i : y a y y ",
"t e e 2 q , < 1 * * 1 q q q 2 * 0 e e e u q & ; t e w - ; t t t R -.Z.V # , 5 5 ; f k./ $ + # + ; , r e r e ; 2 r r e ; 2 r r 6 ",
"r p p r e 2 e e 2 n M m i < M M i e 1 ; i M S D Y D n t N w t J S.-.%.J t F ; > ^ x.L.k._ 3 o ; ; , 2 : V F R R ! L A C L L F a ",
"a V A V V k V t 2 m A D A t a V V h p 2 m D D D B Y -.F.S.R ' Z.G.L k ^ { > j a.C.n.n.j._ : ; ; ; , y 8 Z L W W R H F R E R Z y ",
"i a N V V V V r 1 n A A A a r m V N y < m B T Y Y -.,.1.Z.2.,.+.1.l c c.I.f.N.n.a.[ p.6.4 ; ; + ; = t 5 C C L F F V S F S C V r ",
"e i m V V m a t 2 u m m m p 6 r m h w = t D -.,.W F.%.D V D p 2 9 e.B.C.B.I.I.B.9.8.[ 3 ; ; o # , = , ; k C C V k a m a a m a e ",
"8 y i a m a u 2 , 0 e w e u 1 2 1 < - O w n ,.2.n t 1 1 1 p a q.e.[ B.b.M.I.N.j.0.c : ; ; o o ; : ; O ; a a a e 2 2 , 2 0 0 0 ; ",
"e e u w 1 i i 2 2 i a t 0 , u q e 1 e e e w p B n & 0 S P N a d.p.9.3.C.b.j.i.K 9 , : ; # # % ; , $ 1 B V r M H M ; m  .I S M a ",
"A k V i 2 V A F P D F F p 0 m A V a V V V a r N D 0 D O.~ E V j r.m.` [ e.[ r ; e 8 6 6 : , - # # # a Z Z V h V V 0 F O.! H U F ",
"V h a y e i V D F A S C i 0 m S m a V S A A h r 0 ; e A F F Z a l [ h.9 5 : + $ $ , ; # # # # # + 1 J L L G C y 1 ; y C H C C A ",
"N a a r 1 p a N V a k A i 0 a V r i A V S S D a 2 o e V A C C Z m r f 2 2 5 2 = ; # > ; ; # , : ; e L Z L L F V 2 * a V A A C C ",
"V a m u 1 a a m m m a m i 1 i e 0 i a a V V M a i ; e a V V V k k w 2 e e 2 2 ; + , 6 8 > , , , , a C k C C V a u = y k V V k h ",
"a p u 0 1 i u i u u q u , & 2 ; * q u i u 0 e e 0 - 2 t y i y t w 1 e 6 8 > $ +   > e 8 > , ; ; , e h a y 8 r r e ; u i a a r e ",
"r u u w e u n n m i * 2 u n i , 1 a V A u < r V V a k C S F V y 1 ; 6 8 2 , ; ; + 2 6 8 2 : , # h W ' E k 2 l L F C C L E F V i ",
"u t u u i n n m m n 1 0 M A M q q m A V V i y V S F C C Z Z k a 0 ; e 8 2 > ; ; + 2 2 e 2 ; : ; , V G F C e k Z L L H Z F Z h r ",
"w w n w 0 n u n u u 1 q m m n 0 e i n a i q e V F J C V C C V i 0 - 6 8 8 , , $ o # 6 e 2 ; , : = w k a a 5 a G L L C C C k h t ",
"w 0 n w 1 * 1 w q q , 2 u u q * 2 q q u q 2 5 h k k y p y i y e , - 2 w 8 2 , # = - 2 8 2 ; , ; = , r r e > r V k h e e r y t e ",
"w q n n w 1 * * , w , ; 2 w 0 * 1 2 , 1 0 ; ; 5 , 2 0 2 6 u r e 2 2 - , ; ; + o , t ; 6 8 ; ; ; o = , r r 2 5 > $ e i r e a i r ",
"I M M M M I D n 1 S S M M S S P S M 2 e i a i e , h S D A Z A S D m < + ; $ + + , J e , 6 2 $ + + O 0 l l Z k r 2 C R Y P F D A ",
"S I A M M m M m 2 A P H U S M V m a r e e y a i 6 V P P S D S D a = ; , , , $ = = A p + + + ; ; ; + , t d h h y e D P P D A A D ",
"M M m M n n m n < M S S M M V A V a w 2 e e a a 2 m V A A A A N - , > < > , ; ; # w = , > 2 ; ; ; # = r r h M y q M D D S A A V ",
"M n m A m n i w ; a M M m M M V M m e 0 e e e e 1 n N A A B N n # = ; ; ; # # # & 0 = < ; ; ; + + + - t r a y e 0 m M M B m m m ",
"M n n n n u 1 0 * i n n i i m m m i ; 2 8 8 u u ; 1 n u n m p u 0 1 1 1 1 = O O = 0 O + O + & = - = = 6 e q u q * 2 n u n u u u "
};
