/* XPM */
static char *_5a641f3d14d45828a865e1908f602e6z4OjW4OPBWCnjtW4[] = {
/* columns rows colors chars-per-pixel */
"64 64 193 2 ",
"   c #050505",
".  c #090606",
"X  c #0D0906",
"o  c #0C0B0B",
"O  c #120B06",
"+  c #140E0A",
"@  c #17100B",
"#  c #1B140D",
"$  c #131313",
"%  c #1B1713",
"&  c #1B1916",
"*  c #1C1C1C",
"=  c #281302",
"-  c #21150C",
";  c #28170B",
":  c #351E08",
">  c #241A12",
",  c #2D1E13",
"<  c #221E1C",
"1  c #2C2116",
"2  c #21201F",
"3  c #2F261B",
"4  c #342414",
"5  c #31251B",
"6  c #36291D",
"7  c #3C2B1C",
"8  c #3A2718",
"9  c #3A250F",
"0  c #1F1F21",
"q  c #1F2021",
"w  c #232324",
"e  c #282625",
"r  c #2B2825",
"t  c #262629",
"y  c #28272A",
"u  c #27282A",
"i  c #2A2A2B",
"p  c #322F2C",
"a  c #362D24",
"s  c #32312F",
"d  c #3D3025",
"f  c #2E2E31",
"g  c #302F32",
"h  c #2F3034",
"j  c #333334",
"k  c #393635",
"l  c #3B3936",
"z  c #36363A",
"x  c #38373B",
"c  c #37383B",
"v  c #3B3B3C",
"b  c #442A0F",
"n  c #432D1B",
"m  c #573B19",
"M  c #4E3522",
"N  c #4C3B29",
"B  c #433A2F",
"V  c #513621",
"C  c #553923",
"Z  c #563E2B",
"A  c #423A33",
"S  c #413E3C",
"D  c #65441D",
"F  c #56432D",
"G  c #43413E",
"H  c #4B4136",
"J  c #5B4531",
"K  c #5C4B3B",
"L  c #554638",
"P  c #5D513F",
"I  c #63442C",
"U  c #694924",
"Y  c #614F3D",
"T  c #69523B",
"R  c #67503A",
"E  c #7C5434",
"W  c #785635",
"Q  c #744B28",
"!  c #3D3D41",
"~  c #403F42",
"^  c #3F4044",
"/  c #434344",
"(  c #494644",
")  c #4B4946",
"_  c #45454A",
"`  c #48474A",
"'  c #47484B",
"]  c #4A4A4D",
"[  c #4B4B4B",
"{  c #474846",
"}  c #514E4B",
"|  c #4E504F",
" . c #54514E",
".. c #4C4C52",
"X. c #4E4F59",
"o. c #464551",
"O. c #524F51",
"+. c #4F5050",
"@. c #535353",
"#. c #595653",
"$. c #55555C",
"%. c #595659",
"&. c #5C5B5C",
"*. c #595853",
"=. c #615E5E",
"-. c #6B5843",
";. c #7E6042",
":. c #69605E",
">. c #5B5A64",
",. c #595867",
"<. c #615F65",
"1. c #5F6062",
"2. c #636264",
"3. c #696767",
"4. c #63636B",
"5. c #6A6768",
"6. c #6B6B6C",
"7. c #66686A",
"8. c #716F6F",
"9. c #626170",
"0. c #6E6E72",
"q. c #6F7073",
"w. c #737374",
"e. c #787576",
"r. c #757679",
"t. c #7A7B7E",
"y. c #77787B",
"u. c #736F75",
"i. c #8A5D39",
"p. c #845E28",
"a. c #95653D",
"s. c #8E672D",
"d. c #A37939",
"f. c #89694A",
"g. c #986A44",
"h. c #94714F",
"j. c #88755C",
"k. c #947454",
"l. c #9E7855",
"z. c #8A6E50",
"x. c #A36E42",
"c. c #A67045",
"v. c #AE7547",
"b. c #B57A4B",
"n. c #BC7E4D",
"m. c #B67846",
"M. c #A37E5A",
"N. c #947E62",
"B. c #BE814F",
"V. c #A9835D",
"C. c #B8875A",
"Z. c #B38A62",
"A. c #B98F65",
"S. c #BB9269",
"D. c #C2814D",
"F. c #C48551",
"G. c #C78955",
"H. c #C98E5B",
"J. c #C78D5A",
"K. c #CB915E",
"L. c #CD9562",
"P. c #CE9867",
"I. c #CB9D6F",
"U. c #C59567",
"Y. c #D29D6B",
"T. c #D19A67",
"R. c #C89F74",
"E. c #D4A06F",
"W. c #C8A176",
"Q. c #D6A472",
"!. c #D9A977",
"~. c #7D7E81",
"^. c #7F8183",
"/. c #838486",
"(. c #87898B",
"). c #8A8C8D",
"_. c #858689",
"`. c #8D8E91",
"'. c #8E9194",
"]. c #919294",
"[. c #959699",
"{. c #999A9D",
"}. c #97999C",
"|. c #9C9EA1",
" X c #9EA1A4",
".X c #A2A3A7",
"XX c #A4A6A9",
"oX c #A7A9AD",
"OX c #A8AAAE",
"+X c #AAACB0",
"@X c #DFB888",
"#X c #E1B684",
"$X c #E1BD90",
/* pixels */
"] &.$.$.$.>.>.k _ 4.$.4.@.k / [ @.%.<.0.u.2._ &.&.] v v / k i w * * & & * u x k _ 4.$.>.@.f z _ ..@.>.9.9.,.o.,.>._ y v >.>.>._ ",
"! >.4.4.$.] @.k j ` ` / / i v ` }  .[ { @.%./ t $                               o * j / / j z / ] ] _ / ! c ! @.! z w v ] _ ^ / ",
"v / ] ..] _ ` ! w ] `  .[ k k / ` { ` { u $ o                                       o * x z j / / / v x j j j ! / k u ! X.X...v ",
"x _ / / _ _ _ ! w / [  .] j i / v { k o                                                 o * i v z k j v v x k x ! v i ! ' ' _ ! ",
"i v ! v v v k u * j x v x w w s i k o                                                       $ u i u t f i f i i i u * u k z z j ",
"f i f z f w i x z j x v j g i j >.v o                                                         $ ..X...' ..X.i ! _ j j j j j z ! ",
"` _ _ $.$.j j / / ] @.] ` / ! v &.] w                                                           w ] ] _ / ' k _ $.' ! v v v v v ",
"/ { [ ] _ i j v ^ _ ` / / ! x j @.@.] *                                                           ! ..] _ / f x / ! c v ^ v v x ",
"/ { ` [ / j v j x v ! / ! x k i ` ] @.` & O X                                                     0 _ ] _ ! i z ! ^ v j v v x x ",
"v v S v x i z u i f j x j f u w x / ! / l g.b.x.i.U M , O                                         o f v v z w i j k j w i z c k ",
"k j j i i w u i 0 w u j f i u w i j j j A V.L.G.F.n.b.c.i.I n # .                                   w i j z i f z z j t i z z g ",
"v ] ' _ x k x j j / ] / ! i v ` _ v s w A A.Q.Q.Y.T.L.H.G.F.B.c.E 8 @                               & w ! X.,.,.$.' / ! _ ' ' ! ",
"] [ ` ` _ / _ v u / ...._ x / { _ / v j A S.Q.Q.Q.Q.Q.Q.Q.Y.T.L.G.n.g.M X                           * i ! ' ....] _ _ ' ..X._ v ",
"l G _ _ / / G x i ! _ ] _ v k G / / v i A U.Q.Q.Q.Q.Q.Q.Q.Q.Q.Q.Q.Y.K.B.E @                         & t v ! ^ _ / ! ! / ^ ^ ! z ",
"j v / _ / / v x i ! ! ! ! x i k G / x t A U.Q.Q.Q.Q.Q.Q.Q.Q.Q.Q.Q.Q.Q.P.B.Z .                       $ 0 v v ! ! ! c c z j c v j ",
"j x x v v / x i w k k k j j t f y i t w H M.h.I.Q.Q.Q.Q.Q.Q.Q.E.Q.Q.Q.Q.T.b.V                       o & f z z f i y y t t i i w ",
"x v v g i ! v j j ! _ v i x O.j j i x / p @   N Q.Q.Q.Q.Q.Q.M.+ @ J Z.Q.Q.K.x..                     $ v v j z ....* z ,.,.' _ ~ ",
"` _ / v k v / ] [ ` ` ..v x v _ / v / [ A T +   V.Q.Q.Q.Q.A.6   Z T ;.I.Q.T.F.-                     $ ! ! ! z j v w v X.] _ ] ` ",
"/ G G x k v / ] ] ` ] [ z j / ` / v _ @.K k.+ . Z.Q.E.Q.Q.V.#   f.Q.Q.Q.Q.Y.G.4                     $ / _ / ! z i q f ! ] _ _ / ",
"/ v v k i x v _ / v / { z j / _ x v { ] K V.1 1 Q.Y.T.Q.Q.Z.1   f.Q.Q.Q.Q.E.H.n   O 7 C ,           & / _ _ / ! i * i ! ! / _ / ",
"/ v v k j v v / / S v v k i k x i v G _ K Q.A.A.E.K.Y.Q.Q.Q.l.R I.Q.Q.Q.Q.Q.K.8   7 v.D.c.-         & v v v ! z j w i x v v v v ",
"k j i i i z x z j j j j w w i w w j x / Y Q.Q.Q.T.P.Q.Q.Q.Q.Q.E.Q.Q.Q.Q.Q.Q.K.>   V b.D.n.n         w ! j i f j j w i c x z z g ",
"j ! z j j c ! z .._ w i ! ../ w v ` @.%.Y Q.Q.I.Q.H.T.E.Q.Q.Q.L.Q.Q.Q.Q.Q.Q.C.O   I n.D.D.M       o _ >...u x ` ] _ / @.$.@.] v ",
"k v v z v ! ^ ! / x i j / ` ] z / ` ] ` Y A.J + 1 h.F , 6 f.I.Y.H.Q.Q.Q.Q.Y.g.    W D.D.b.,       w _ ` ` k k / [ ] _ _ _ / G x ",
"k z c z f z z z z c i k / / ! f k x v / L N       X       . N Q.T.J.L.Y.Q.C.n     i.a.M #       o k v x k i k / ` ` _ / _ / v x ",
"j k z j f t i h j k u u z z z w f j j x e X   > Q Q -       . M.Q.Q.Q.Q.Q.E ; V E b.C           * j k j j u i v v x j j j k k j ",
"j f h j f u w w t j w w i j i * t u u j u   > M.J.m.g.J #     J Q.Q.Q.Q.P.x.x.b.D.n.n         & i u e j j w w i w i f f f z c j ",
"] ......X.$.>.' j %.` _ { [ ` &.&._ s @.w % ;.Q.Q.Q.Q.Q.V.5   + A.Q.Q.Y.F.D.D.D.D.a.-       o ] &.` j S ` { / k w _ ..X.....' ] ",
"] X.] ' ^ / ] ' w ] @. . ._ / / G v k j k k p T Z.I.Q.Q.Q.V.7 X 7 l.U.F.D.D.n.x.a.,       & l ) G G k k l S S v i _ ] ' _ _ _ _ ",
"_ / ^ / ! v ! ! w / ` { _ / / ` / v j i j x s . A L L K Y T K d d Z I I I C 7 ) #.x *   * G )  .( G k k l l S v u ^ _ _ _ / / ^ ",
"/ ! ^ _ ^ v v z w / / v G / / { _ G k i j k & i |.}.).t.w.6.7.2.2.2.2.2.] & * 7..XXX~.w s ( ) ) ) G k k A v v k u / / _ / ^ ! ! ",
"v j j c c j t f * v z v v v v j z z t u v i 0 >.oXoXoXoXOXOXOXOXOXOXOXOX@.w.XX7.k x c u & s j j j j w j l x v j * i j f h j f f ",
"v _ ~ ! v ~ / u w ' ..' _ u w i k v / ] v e.w.j ].+XOXoXoXoXoXoXoXoXoXXX/ ].OXOXOX.XXX(.j w i S / { O.@.O.' x ..$./ w l >.>.$.` ",
"v @.@.@...` @.! w / ~ G / j i / { ] [ / ! .Xt.w $ i @.w./.'.[.{.}.].`.t.t j 7.XXOXOXOX'.j u k }  . .} ) ) / / &.[ S i v ] ] ^ z ",
"v / _ ] ` _ _ / w l / ` ` x i / { ` { i j ].t.&.y._ j u u u i i i i u w u w.] ] 3.6.2._ & i k )  .) ) G S j k ) ) l i x ` ] ] ! ",
"v _ / / _ _ _ / w v / } [ x i v / x w _ 6.` 2.&.oXOX.X{.'.(./.^./._.).(./ .XXX`.r.0.y.r.f i s ) G G S S / ( S ( ) G s / ] ` _ v ",
"k v ~ ! v v x _ j v / [ ` x g v u j v @.XXw.u $ / e.).|.XXoXOXOXOXOXOX].f ~.{.oXOXOXOX).h 0 e k s p u k l l k k l j w u x ! v k ",
"z i j j j u u / } }  .%.%.%.%.] k @.&./ w.~.&./ v & * i / 5.t._.).)._.%.] %._ @.6.r.~.7.w s k i <.%.@.[ [ ] i x / j s k k j j x ",
"` / ! / _ j k * k x v v / _ ` ] @.%.%.&.&.&.2.2.3.=.&.%.2.].).(.).).(.v t.OX[.2._ c j w & S ( k &.#.#. .} } k [ %.` G G G S S _ ",
"_ _ ` ] _ k / & 3.w.w.w.w.8.8.6.5.3.3.2.=.&.&.%.@.@.} ] w.5.2.2.2.2.&.w j 6.|.OX+X+XXXq.& v G j #.#.*.#. .[ j G } / v G { / G v ",
"_ _ _ ` / k / & 3.e.e.e.e.e.e.e.e.e.e.e.e.e.e.e.e.e.e.e./.&.&.&.&.&./ %..X2.j ] 6.t.r._ 1 F H p } #.#.#. .{ i S / { / k / S S x ",
"/ v / v x f j & %.3.3.3.3.3.3.3.3.3.3.3.3.3.3.5.5.3.5.5.w.&.| +.+.] w i w.XXOX(.0.1.] < Q d.d.F G / / / / v w k l v v u k v v l ",
"v k k j j u u & S ` ` ` ` { { { { { _ / _ / S / v x k k @.6.6.6.5.@.w @.v @.r.[.XX Xr.r U p.s.W j k k k l j w i x x x y u z z j ",
"v v x k k j j j t j z z j w A N.k.k.f.5 x * u j q.] j & * k x ` x 2 d J A v / _ _ ] v 4 D D D U S v k w / ` ] @.%.[ _ / [ } [ ~ ",
"/ / _ _ / / / / t v _ _ _ k w j.W.S.l.6 w / ] o i %.6.r.r.0.3.` _ e z.Y.V.E Z } e.] & m D D D D H ( G s (  .%.%.#.[ [ @.#.@.} v ",
"x v G / / / ! v u v ! _ _ ! j i s k j w c ~ _ * & w * * w i j u &.j j.!.Q.Q.P.g.M w 4 m b : : b B ) G u / _ ` ] ` / _ [ ` _ _ x ",
"k x v / / / v v u v v ! ! v f k v v x w z v ^ j   w u u e w w * i u -.@XQ.Q.Q.E.g.O 9 : = = = = a ) S w G / { ` / G / v x ~ ~ x ",
"k x x x v ! ! j w j z z z z f f i i y * f v ! f     $ w u u u w o w & j.$X#X#XR.3 # - % + = = = < w w * x v v k f i i i i j j y ",
"x j k z u v v z f x ! z f t z j j f g x k f j i & * o   @ * w w   w w & a P L & w u u w o e 5 ; l j ~ ` / k v O...* j ,.>.] / v ",
"{ / / ! f x v { ` { { ` ! f v / / x v / / v k u & u u w & o       w u u w w w u u u u w o j / ) { / { ) ) { S x / u v %.@.[ ] [ ",
"_ v S x j v ! ` ] ` ` ` v i v _ / v / _ _ _ / w * u u u w w w *   w u u u u u u u u u w o j ( } / G [  .} } { v i w j _ ] ` ` _ ",
"_ v v x i k v / / v v _ v i v / v x / _ _ ` _ w < u u u u u u u   w u u u u u u u u u w o j / { x G [ } }  .} _ j * s / _ _ ` _ ",
"_ v v x f x v v ! v v v v i j z i x v v / / / * w u u u u u u u o < u u u u u u u u u w o i x v p S / / ( ( { S x w j v / / / S ",
"/ z j h f z z z j j j j i w u w * g z v k f k & w u u u u u u u o * u u u u u u u u u w o u i w w x v v x g j x z w i v v v x j ",
"v c z f h j c c ! ! u w j c x t w z ! / x w i $ w u u u u u u u o & u u u u u u u u u w $ ~ _ w )  .:.=./ u l }  .{ { #.&.%.} ! ",
"v z c z z v ! ! v v f i ! / / z j ! / / _ x j o w u u u u u u u @ & u u u u u u u u u w $ / _ j S ) } [ { k l )  .#.} [ [ { / v ",
"x z z z h h j z z z f f v ! ! f j z v v x j x o w w w w w w w w $ $ w w w w w w w w w * o x ~ f k v S S v j k )  . .) ( { / / x ",
"v f z j f t u f h j f t j z z w f g j j j x i                                             u x 0 i j k l k i i ( / S k k k x x k ",
"v f j j h f t w w h i w i f f 0 i t y i j f o . o o o o o o o o   o o o o o o o o o o o   & j t i i w j j u e i w f j j j z v j ",
"{ / / / / _ ' _ w _ _ / / ` ` ] ` / h j v o   $ $ $ $ $ $ $ $     $ $ $ $ $ $ $ $ $ $ $ o & `  . ./ j S ) ) G l e ` } @...] ` _ ",
"] ] ' _ ^ ! / ^ u _ ] ] ] _ / / / v z x *   o o o o o o o o o   . o o o o o o o o o o o   o v ) / G l j v S G v i ` ] ..] _ _ _ ",
"{ / ^ ^ ! c ! v t ^ _ _ _ / / _ _ v k k & o o o o o o o o o o o o o o o o o o o . o o o o 2 / } ( G k j k v v S i / _ _ _ _ _ / ",
"_ ! ! ^ ^ ! v x 0 ! _ / ! / / _ _ v z f j u u u w f j j j j j j f j j k k i j i * k k j k G { { { / k j l x v x u / _ _ _ / ^ ! ",
"_ c c ! ! c t f & x v v z v ! ! ! ! i u j g j z w u z c ! v z z v v x v c f 0 i & z j j j j j c z j w i j j k j w u c z v c z z "
};
