/* XPM */
static char *_cf009633e0d488c9e5be6963f251c5fNggDGhSorE15gpwn[] = {
/* columns rows colors chars-per-pixel */
"64 64 191 2 ",
"   c #050505",
".  c #080707",
"X  c #0B0907",
"o  c #0C0B0B",
"O  c #150E08",
"+  c #14110E",
"@  c #1A130D",
"#  c #0F0F10",
"$  c #131313",
"%  c #1A1613",
"&  c #1C1916",
"*  c #171718",
"=  c #1C1B1C",
"-  c #291404",
";  c #20170E",
":  c #251508",
">  c #241A12",
",  c #2B1D13",
"<  c #201F1E",
"1  c #201710",
"2  c #361F09",
"3  c #22201E",
"4  c #2B241A",
"5  c #2D2115",
"6  c #352416",
"7  c #33271B",
"8  c #34291D",
"9  c #3D2B1B",
"0  c #372009",
"q  c #1F1F21",
"w  c #1F2021",
"e  c #232324",
"r  c #282726",
"t  c #2A2827",
"y  c #262629",
"u  c #28272B",
"i  c #27282A",
"p  c #2B2A2B",
"a  c #312F2D",
"s  c #392F25",
"d  c #32302E",
"f  c #3F3329",
"g  c #2E2E31",
"h  c #302F32",
"j  c #2F3034",
"k  c #333334",
"l  c #383735",
"z  c #3B3936",
"x  c #36363A",
"c  c #38373B",
"v  c #37383B",
"b  c #3B3B3C",
"n  c #412C18",
"m  c #4A331D",
"M  c #4B3315",
"N  c #533715",
"B  c #5D3F19",
"V  c #443525",
"C  c #4E3521",
"Z  c #4C3B2B",
"A  c #453828",
"S  c #523721",
"D  c #5B3D25",
"F  c #533C27",
"G  c #403E3C",
"H  c #403B37",
"J  c #64441C",
"K  c #56432D",
"L  c #43413E",
"P  c #4B4139",
"I  c #4A4133",
"U  c #5A4733",
"Y  c #6C4D21",
"T  c #6B4527",
"R  c #724C2D",
"E  c #785727",
"W  c #644E37",
"Q  c #675039",
"!  c #6C523A",
"~  c #7B5331",
"^  c #74593E",
"/  c #775639",
"(  c #3D3D41",
")  c #403F42",
"_  c #3F4044",
"`  c #434344",
"'  c #494643",
"]  c #4B4946",
"[  c #45454A",
"{  c #49474A",
"}  c #47484B",
"|  c #4B4B4B",
" . c #474846",
".. c #514E4C",
"X. c #53514E",
"o. c #4C4C52",
"O. c #4E4F59",
"+. c #464551",
"@. c #524F52",
"#. c #4F5150",
"$. c #535354",
"%. c #575857",
"&. c #56565E",
"*. c #54545B",
"=. c #58575A",
"-. c #57595B",
";. c #5C5A5C",
":. c #5A5653",
">. c #695B46",
",. c #7B5F43",
"<. c #645E5C",
"1. c #786147",
"2. c #69605E",
"3. c #565563",
"4. c #595660",
"5. c #5A5A64",
"6. c #5C5C6C",
"7. c #615F61",
"8. c #5F6061",
"9. c #646263",
"0. c #63636A",
"q. c #6B6A6C",
"w. c #686769",
"e. c #626170",
"r. c #6C6D71",
"t. c #726E72",
"y. c #706F7D",
"u. c #737273",
"i. c #787677",
"p. c #77797B",
"a. c #7A7A7B",
"s. c #777778",
"d. c #865A35",
"f. c #8C633F",
"g. c #9E693E",
"h. c #946836",
"j. c #9F7434",
"k. c #836344",
"l. c #886949",
"z. c #94714F",
"x. c #837157",
"c. c #997754",
"v. c #946742",
"b. c #A66F42",
"n. c #AC7345",
"m. c #A7774D",
"M. c #BB7D4A",
"N. c #B67948",
"B. c #A37D57",
"V. c #BC8454",
"C. c #BE9266",
"Z. c #B19874",
"A. c #B88D62",
"S. c #C2814D",
"D. c #C38552",
"F. c #C78954",
"G. c #C68D5B",
"H. c #C98E5A",
"J. c #CC925E",
"K. c #CD9462",
"L. c #C49669",
"P. c #C7986A",
"I. c #CC9C6D",
"U. c #C89463",
"Y. c #D09A67",
"T. c #D29D6A",
"R. c #CB9F71",
"E. c #D4A06E",
"W. c #C6A77E",
"Q. c #D6A472",
"!. c #D9A674",
"~. c #D9A977",
"^. c #7D7E80",
"/. c #7F8183",
"(. c #818384",
"). c #848689",
"_. c #878989",
"`. c #898B8D",
"'. c #8C8E91",
"]. c #8E9093",
"[. c #919395",
"{. c #949699",
"}. c #97989B",
"|. c #999A9D",
" X c #9C9EA0",
".X c #9EA0A3",
"XX c #A1A3A6",
"oX c #A4A6A9",
"OX c #A7A9AC",
"+X c #A9ABAE",
"@X c #DDB281",
/* pixels */
"| &.&.&.&.5.5.k [ 0.&.0.$.k ` | $.=.7.r.t.0.[ &.&.| k ' ;.9.w...{ t.q.w.0.0.y.k ( 6.&.5.$.g x [ o.*.5.e.e.6.+.6.5.[ y b 4.5.5.[ ",
"( 4.0.0.&.| $.k k { } ` ` p G | X.X.| ' ' @.@.q.X.' p G | |  .b x | ;.7.$.} ' L h [ [ [ ` k x ` | | [ ` ( v ( *.( x e b | [ _ ` ",
"b [ | o.| [ } ( e | } X.| k k ` } ' ` G c h p l p = $ $ $ $ $ o $ $ = = = e i p = ` ' X.| x k ` ` ` b c k k k ( ` k i ( O.O.o.b ",
"c [ ` ` [ [ [ ( e ` | X.| k p ` b b c G c e $ o                                   $ = k ` k p b x k k b b c k c ( b p ( } } [ ( ",
"p b ( b b b k i = k c b c e e d p i e p $                                               o $ e i p i y g p p i p p i = i k x x k ",
"g p g x g e p c x k c b k h p k ;.) e o                                                     $ g 3.O.o.} o.O.p b [ k k k k k x ( ",
"{ [ [ &.*.k k ` ` | $.| } ` ( b $.e o                                                       o k o.| | [ ` { k [ *.} ( b b b b b ",
"`  .| | [ p k b _ [ { ` ` ( c p y .                                                         $ g o.| o.| [ ` g c ` ( v b _ b b c ",
"`  .} | ` k b k c b ( ` ( c k = o                                                         $ p p ` | | | [ ( p x ( ` b k b b c c ",
"b b G b c p x i p g k c k p e o                                                         o i i e x b b b b x e p k x k e p x v k ",
"k k k p p e i p q e i k g i = o                                             o @ , 9 m 1 e p p y g g p p k x p g x x k y p x x h ",
"b | { [ c k c k k ` | ` ( e =                                     X @ 6 D d.h.n.N.S.G.Z b g ( ` ` b k e ( O.3.6.*.} ` ( [ } { ( ",
"| | } } [ ` [ b i ` o.o.[ p =                                 ; S d.b.M.D.F.H.J.Y.E.Q.U b b ( [ ` ( c p ( } o.o.| ` ` } O.O.[ b ",
"z L [ [ ` ` L c p ( [ | [ p $                           . 6 R n.D.H.J.Y.T.Q.Q.Q.Q.Q.Q.Q v b k b ` _ c y b ( _ [ ` ( ( ` _ _ ( x ",
"k b ` [ ` ` b c p ( ( ( b e o                           n n.S.H.T.Q.Q.Q.Q.Q.Q.Q.Q.Q.Q.! g k i k c ( k q b b ( ( ( v v x k v b k ",
"k c c b b ` c p e k k x k = o                         S M.K.E.Q.Q.Q.Q.Q.Q.Q.Q.Q.Q.Q.Q.^ e k y y y e q = g x x g p u u y y p p e ",
"c b b h p ( b k k ( [ b i = $                       6 M.Y.Q.Q.Q.!.!.Q.Q.Q.Q.Q.Q.Q.I.L.,.e v [ ( b x ( ( b k x o.o.= x 3.6.} ` ) ",
"} [ ` b k b ` | | } } o.x = o                     X d.J.Q.Q.I.! 7 K C.Q.Q.Q.Q.Q.C.@ o s e k b [ ` b ( ` ( ( x k b e b O.| [ | } ",
"` L L c k b ` | | } | | k = o                     > b.T.Q.P.^ 5 O . ^ Q.Q.Q.Q.Q.^   @ 4 e k ` } b b ` [ [ ` ( x p w g ( | [ [ ` ",
"` b b l p c b [ ` b `  .k = o                     C M.E.Q.E.L.L.Z   8 I.Q.Q.E.Q.Z   V l.e k ` ` k b ` ` [ [ ` ( p = p ( ( ` [ ` ",
"` b b k k b b ` ` b b b k * o           ; n 6 X   D D.Q.Q.Q.Q.!.V   s E.Q.E.Y.Q.l.  K z.3 p k k p c b b b b ( x k e p c b b b b ",
"k k p p p x c x k k k k e $ o         @ g.S.M.,   D D.Q.Q.Q.Q.Q.B.Z c.Q.Q.Q.Y.K.I.z.C.c.= p p q e k b ( k p g k k e p v c x x h ",
"k ( x k k v ( x o.[ e p ( g $         6 M.S.S.9   m V.Q.Q.Q.Q.Q.Q.Q.Q.Q.Q.Q.Q.J.Q.!.Q.c.k *.@.r [ o.4.5.o.i c } | [ ` $.&.*.| b ",
"k b b x b ( _ ( ` c p k ` k =         m S.S.S.S   > m.Q.Q.Q.Q.Q.T.T.Q.Q.Q.E.Y.K.Q.Q.Q.B.d | ` x b { } } { k k ` | | [ [ [ ` L c ",
"k x v x g x x x x v p k ` k = o       6 N.S.S.T   . / E.Q.Q.Q.T.H.Q.P.! 7 9 / ^ % 4 l.B.a ` G g k c b c z p k ` } } [ ` [ ` b c ",
"k k x k g y p j k k i i x k e o         ; S d.~     9 K.Q.Y.K.H.E.L.V         X     @ ^ t b k e p k k k k i p b b c k k k k k k ",
"k g k k g i e e y k e e p g e o o           6 b.C , , m.Q.T.T.E.Q.,.O       @ T ,   . 4 e k p y h i r k k e e p e p g g g x v k ",
"| o.o.o.O.&.5.} k =.} [ ' | } ( q o         @ S.S.N.b.n.T.Q.Q.Q.I.>   . 8 ^ b.S.U.Q @ o ' :.$.;.;.} k G { ' ` k e ` o.O.o.o.} | ",
"o.O.| } ` ` | } e | $.X.X.[ ` b e $ o       . g.S.S.S.S.F.T.Q.Q.k.  o W P.Q.Q.Q.Q.C.V $ a ' ] ] L L l l z G L b p [ | } [ ` [ [ ",
"[ ` _ _ ( b ( ( e ` }  .[ ` `  .b e $         5 d.g.N.S.S.F.G.k.1 @ K I.Q.I.P.A.l.8 r z L ] ] X.' L k l z z G b p _ ` ` ` ` ` _ ",
"` ( _ ` _ b b x e ` ` b L ` `  .` k = o o     e b s C R ~ ~ ~ D 9 V ^ 1.^ W K A o o d G ' ] ] ] ] L k l H H b l i ` ` ` ` _ ( ( ",
"b k k v v k y g = b c b b b b k x k e $ $ i a.OX].} p q w.p.p.s.p.p.a.(.`.[. XOX).$ $ k z k k k k k e k z c b k = p k g j k g g ",
"( [ ) ( b ) ` i e { o.{ [ i e p k b c q = x x v | _.oXw.q.+X+X+X+X+XOXOXOXOXOXOXoX$ k k X.p p G `  .@.$.@.{ c o.&.` e c 4.4.&.} ",
"b $.$.$.o.} $.b e ` ) L ` k p `  .} c * k '.+X+X+XOX+Xu.| OXOXOXOXOXOXOX+X+X+X{.$.i '.b z k k ..X.X...] ] L ` ;...G p b | | ` x ",
"b ` [ | } [ [ ` e c ` } } c p `  .[ k $ p `.+X+XOX|.u.c k (.`.].[.[.].`.^.q.$.p p k {.u.< k l ] X.| ] ' G k k ] ] z p c } } | ( ",
"c [ [ ` [ [ [ ` e b ` ..| c p b b b p $ $ ` | $.o.[ ;.(.e p p i i i i p j b $.p. Xb '.| $.e t ] L L G G ` L G ' ] L d ` | } [ b ",
"k b ` ( b b c k = k c L b p e k k p e $ p ).{.'.[.XXOX{.}  X X|.}.}.|. XXXOX+XoX).p } w..Xc e t d a t l z z k k z k e i c ( b k ",
"x p k k k i e p i p k c k i i e o.{ k * i `.+X+XOX|.).%.p }.oXoXoXXX.X}.'.p.9.c e $ -..Xu.%.'.e k | [ ` G ) i p k h a k k k k c ",
"{ ` ( ` [ k i ( b ` | o.[ ` ` h =.} b = q w.^.u.9.` k 8.` 8.a.(.(.a.u.| e $ o e %.k q.u.[ -.q.` b | | | | | } } k b G L L G G [ ",
"[ [ } | [ k e c ( ` [ ` ) ` b h } | ` = $ ` 8.r.^.{.oXoX| | _._.(.(.).[.w.;.;.-.%.%.$...| } } [ ` ` ` ` ` ` ` L $ k b L  .` L b ",
"[ [ [ } ` k g g x b ( ( ) b x p ` | b = $ r. X+X+XXXp.c -.g $.;.;.;.-.u.q.w.q.q.t.u.s.i.i.a.a.a.a.a.a.a.a.a.a.u.$ k G k ` G G c ",
"` b ` b c h p g i g k c k g p e k k K E m e b ` c c ;.|.oXv k $.$.$.#.q.i.u.u.u.u.u.u.u.u.u.u.u.u.u.u.u.u.u.u.q.+ d b i k b b z ",
"b k k k k i e p e e i k k g p e e A h.j.E e $.s./.{.XX`.%.k e %.%.%.%.q.w.7.9.9.9.9.9.9.9.9.9.9.9.9.9.9.9.9.9.;.# p x y i x x k ",
"b b c k k k k x y b ( ( b p k ) = Y E Y J 4 -.'.(.w.| b [ L % %.9.w.w.%.e $ = p [ < < k k f P P P G d a k k k k $ L [ ` | ..| ) ",
"` ` [ [ ` ` ` ` e b ` [ [ x k c = J J J J n % k =.-.` Z ! m.! = k k k c ` -.q.s.| o # = 3 v.P.R.W.>.= = e i i p b [ } $.$.$...b ",
"c b L ` ` ` ( b i b ( [ [ ( k p & B N N B B , | | F f.U.E.~.c.$.-.[ q.w.%.` g = o = i = + 7 U 1.I r k e b G `  .} ` [ } } [ [ c ",
"k c b ` ` ` b b i b b ( ( b g e % 0 - - 2 N M + T G.E.Q.Q.~.x.` [ $ $ $ = = e e   k c p e $ o $ e L G e L `  . .` L ` b b ) ) x ",
"k c c c ( ( ( k e k x x x x p e O - - - : : - O k.~.Q.Q.@XZ.4 e # i i i i i e .   k c l k h e p y y e = c G b k g p p p p h k y ",
"c k k x i b b x g c ( x g y x e + - - O o e 3 e % >.Z.W.x.< e < o i t e = o   * . c ` ` p k { ) b k ) { L k b @.o.= k 3.5.| [ b ",
" .` ` _ g c b [ } } } } ( g b k e & & $ o e i i i < % $ = r i =   $ o   o = e i X ` X.| c z ` .. .`  .] ] ' G z ` i b %.$.| | | ",
"[ ) L c k b ( } | } } } b p b ` k p p * o e i i i i r r i i i =   $ $ = e r i i o b X.X.c z ' ..[ ` | X..... .b p e k ' | } } [ ",
"[ b b c p k b ` ` b b [ b p b ` b x k = X e i t i i i i i i i = $ i i i i i i i o k ` | c c `  .c ` ] ....X...[ k = d ` [ [ } [ ",
"[ b b c g c b b ( b b b b p k x i k k $ X e i t t t t i i i i $ $ i i i i i i i o p ` ` k k c b a G ` ` ' ' ' G c e d G ` ` ` G ",
"` x k j g x x x k k k k p e i e = g p $ X e t t t t i i i i i $ $ i i i t i t i $ e h k e i p e e c b b c h k b x e p b b b c k ",
"b v x g j k v v ( ( i e k v c y e x k = o e i i t t t t i i i $ = i t t t i t i $ = e p b [ [ e ] X.2.<.` i z ..X. . .$.;.-...( ",
"b x v x x b ( ( b b g p ( ` ` x k ( x = o e i i i i t i i i i o = i i t t i t i $ = g l ' | [ k G ] ..|  .l z ] X.:...| |  .` b ",
"c x x x j j x x x x g g b ( ( g k x h *   e i i i i i i i i i o = i i i i i i i = = p k [ ` ) g l b G G b k l ] X.X.] '  .` ` c ",
"b g x k g y i g j k g y k x x e g g y $     . . . . . . . .       . . .           o q p c b c q p k l z l p p ' ` G l k k c c k ",
"b g k k j g y e e j p e p g g q p e = o   o o o o o o o o o o     o o o o o o o o   o e k k k y p p e k k i r p e g k k k x b k ",
"} ` ` ` ` ` } ` e [ [ ` ` { { | } b =   o $ $ $ $ $ $ $ $ $ $ o   o $ $ $ $ $ $ $ o   e | X.| X.X.` k G ] ] L z r } ..$.o.| } [ ",
"| | } [ _ ( ` _ i [ | | | [ ` ` b k =   o o o o o o o o o o o o     o o o o o o o o   . b  . .] ` L z k b G L b p } | o.| [ [ [ ",
"} ` _ _ ( v ( b y _ [ [ [ ` ` [ ` k =                                                   e `  ...' L l k l b b G p ` [ [ [ [ [ ` ",
"[ ( ( _ _ ( b c q ( [ ` ( ` ` [ [ k e $ o o $ $ o $ $ $ $ $ $ $ $ $ $ $ $ $ $ $ o $ $ = z `  . . .` k k z c b c i ` [ [ [ ` _ ( ",
"[ v v ( ( v y g = c b b x b ( ( ( b y e i i p g q e g g k k g g k h h k g p = e $ g p g k k k v x k e p k k k k e i v x b v x x "
};
