/* XPM */
static char *wall_resized[] = {
/* columns rows colors chars-per-pixel */
"64 64 188 2 ",
"   c #000000",
".  c #000001",
"X  c #000101",
"o  c #010101",
"O  c #0B0C0F",
"+  c #0C0D12",
"@  c #0D0D12",
"#  c #0D0E13",
"$  c #0E0E13",
"%  c #0D0F14",
"&  c #0E0F14",
"*  c #0F0F14",
"=  c #0E0F15",
"-  c #0F0F15",
";  c #0E1015",
":  c #0F1015",
">  c #0F1016",
",  c #0F1116",
"<  c #101016",
"1  c #101116",
"2  c #111116",
"3  c #101117",
"4  c #111117",
"5  c #101217",
"6  c #111218",
"7  c #121319",
"8  c #13141A",
"9  c #13151C",
"0  c #14151C",
"q  c #15171D",
"w  c #15171E",
"e  c #16171E",
"r  c #16181F",
"t  c #171820",
"y  c #171920",
"u  c #171921",
"i  c #181920",
"p  c #181921",
"a  c #181922",
"s  c #181A22",
"d  c #191A23",
"f  c #191B23",
"g  c #1A1B23",
"h  c #191B24",
"j  c #1A1B24",
"k  c #1A1C24",
"l  c #1A1C25",
"z  c #1B1C25",
"x  c #1B1D26",
"c  c #1C1C25",
"v  c #1C1D25",
"b  c #1C1D26",
"n  c #1C1D27",
"m  c #1C1E27",
"M  c #1D1E27",
"N  c #1C1E28",
"B  c #1D1E28",
"V  c #1C1F28",
"C  c #1D1F28",
"Z  c #1D1F29",
"A  c #1E1F29",
"S  c #1E2029",
"D  c #1E2129",
"F  c #1E202A",
"G  c #1F202B",
"H  c #1F212B",
"J  c #1F212C",
"K  c #20212C",
"L  c #20222C",
"P  c #21222C",
"I  c #20222D",
"U  c #21222D",
"Y  c #20232D",
"T  c #21232D",
"R  c #21222E",
"E  c #21232E",
"W  c #21232F",
"Q  c #21242F",
"!  c #22242F",
"~  c #23242F",
"^  c #22252F",
"/  c #23252F",
"(  c #222530",
")  c #232530",
"_  c #222531",
"`  c #232531",
"'  c #232632",
"]  c #242531",
"[  c #242631",
"{  c #242632",
"}  c #242732",
"|  c #252732",
" . c #242633",
".. c #242733",
"X. c #252733",
"o. c #252734",
"O. c #252833",
"+. c #262833",
"@. c #252834",
"#. c #252835",
"$. c #262834",
"%. c #262835",
"&. c #262935",
"*. c #262936",
"=. c #272936",
"-. c #272A36",
";. c #272A37",
":. c #282A37",
">. c #282B37",
",. c #282A38",
"<. c #282B38",
"1. c #292B38",
"2. c #292B39",
"3. c #292C39",
"4. c #2A2C39",
"5. c #292C3A",
"6. c #2A2C3A",
"7. c #2A2C3B",
"8. c #2A2D3B",
"9. c #2B2D3B",
"0. c #2B2D3C",
"q. c #2B2E3C",
"w. c #2B2E3D",
"e. c #2C2E3D",
"r. c #2C2F3D",
"t. c #2C2F3E",
"y. c #2C303E",
"u. c #2D303E",
"i. c #2D303F",
"p. c #2D3040",
"a. c #2E3140",
"s. c #2E3241",
"d. c #313545",
"f. c #313546",
"g. c #313547",
"h. c #323547",
"j. c #323646",
"k. c #323647",
"l. c #333647",
"z. c #323747",
"x. c #323648",
"c. c #333748",
"v. c #333749",
"b. c #33374A",
"n. c #343749",
"m. c #34374A",
"M. c #333848",
"N. c #333849",
"B. c #33384A",
"V. c #343849",
"C. c #34384A",
"Z. c #34384B",
"A. c #35394B",
"S. c #35394C",
"D. c #363A4C",
"F. c #363A4D",
"G. c #363B4D",
"H. c #363B4E",
"J. c #373B4E",
"K. c #373C4F",
"L. c #383C4F",
"P. c #383D4F",
"I. c #383C50",
"U. c #383D50",
"Y. c #393D50",
"T. c #383D51",
"R. c #393D51",
"E. c #383E51",
"W. c #393E51",
"Q. c #393D52",
"!. c #393E52",
"~. c #3A3E52",
"^. c #3A3F52",
"/. c #3A3E53",
"(. c #3A3F53",
"). c #3B4054",
"_. c #3C4055",
"`. c #3C4155",
"'. c #3C4156",
"]. c #3C4157",
"[. c #3D4257",
"{. c #3E4357",
"}. c #3D4258",
"|. c #3D4358",
" X c #3E4258",
".X c #3E4358",
"XX c #3E4359",
"oX c #40455C",
/* pixels */
"U.U.U.U.U.U.U.U.U.U.U.U.U.U.U.U.U.U.U.U.U.U.U.U.U.U.U.U.U.U.U.U.U.U.U.U.U.U.U.U.U.U.U.U.U.U.U.U.U.U.U.U.U.U.U.U.U.U.U.U.U.U.U.U.",
"U.U.U.U.U.U.U.U.U.U.U.U.U.U.U.U.U.U.U.U.U.U.U.U.U.U.U.U.U.U.U.U.U.U.U.U.U.U.U.U.U.U.U.U.U.U.U.U.U.U.U.U.U.U.U.U.U.U.U.U.U.U.U.U.",
"U.U.U.U.U.U.U.U.U.I.U.U.U.U.U.U.U.U.U.U.U.U.U.U.U.U.U.U.U.U.U.U.U.U.U.U.U.U.U.U.U.U.U.U.U.U.U.U.U.U.U.U.U.U.I.U.U.U.U.U.U.U.U.U.",
"U.U.U.U.U.U.U.U.U.D.l.k.z.z.k.k.k.k.k.k.k.k.k.k.k.k.l.l.l.k.l.l.l.l.k.l.l.l.k.k.k.k.k.k.k.k.k.k.k.k.k.k.k.k.S.T.U.U.U.U.U.U.U.U.",
"U.U.U.U.U.U.U.U.^._.s.@. .@.&.&.&.&.&.&.&.&.&.&.&.*.1.2.2.-.:.2.2.:.-.2.2.1.*.&.&.&.&.&.&.&.&.&.&.&.&.&.%.i.).(.U.U.U.U.U.U.U.U.",
"U.U.U.U.U.U.U.U.T.[.~.' p f M C C C C C C C C C C S _ ..} H E ....E H } .._ S C C C C C C C C C C C C C ..Y.[.E.U.U.U.U.U.U.U.U.",
"U.U.U.U.U.U.U.U.U.E.[.Y._ g m L E E E E E E E E E Q ;.5.1.) O.5.5.O.) 1.5.;.Q E E E E E E E E E E E Y =.Y.[.W.U.U.U.U.U.U.U.U.U.",
"U.U.U.H.K.U.U.U.U.U.E.[.!.%.C L { X.X.X.X.X.X.X.X.$.e.a.i.;.4.a.a.4.;.i.a.e.$.X.X.X.X.X.X.X.X.X.X.X.0./.}.W.U.U.U.U.U.K.H.U.U.U.",
"U.U.U.c.c.L.U.U.U.U.U.E.[.~.%.C L { X.X.X.X.X.X.X.$.e.a.i.;.6.a.a.6.;.i.a.e.$.X.X.X.X.X.X.X.X.X.X.q./.}.W.U.U.U.U.U.L.c.v.U.U.U.",
"U.U.U.l.a.c.L.U.U.U.U.U.E.[.~.%.C L { X.X.X.X.X.X.$.e.a.i.-.6.a.a.6.-.i.a.e.$.X.X.X.X.X.X.X.X.| 0.(.}.W.U.U.U.U.U.L.c.d.K.U.U.U.",
"U.U.U.z.8.r.c.L.U.U.U.U.U.E.[.~.%.C L { X.X.X.X.X.$.e.a.i.-.6.a.a.6.-.i.a.e.$.X.X.X.X.X.X.X.X.9./.[.W.U.U.U.U.U.L.c.y.C.[.U.U.U.",
"U.U.U.c.-.( r.v.L.U.U.U.U.U.E.[.~.%.B L { X.X.X.X.$.q.i.t.-.3.i.i.3.-.t.i.q.$.X.X.X.X.X.X.| 9.^.}.W.U.U.U.U.U.L.v.r.) j. XU.U.U.",
"U.U.U.c.-.S X.i.c.L.U.U.U.U.U.E.[.!.%.Z L { X.X.X.X.=.-.-.$.%.-.-.%.$.-.-.=.X.X.X.X.X.X.X.9.~.[.W.U.U.U.U.U.L.v.t.! S k. XU.U.U.",
"U.U.U.c.-.S ! ;.i.v.L.U.U.U.U.U.E.[.~.#.M L { X.X.X.X.X.X.X.X.X.X.X.X.X.X.X.X.X.X.X.X.| 9./.}.W.U.U.U.U.U.L.v.t.^ Z E Z. XU.U.U.",
"U.U.U.c.-.S ~ X.;.i.c.L.U.U.U.U.U.E.[.Q.' d n K P P P P P P P P P P P P P P P P P P P :.~.}.W.U.U.U.U.U.L.v.t.( Z T | S. XU.U.U.",
"U.U.U.c.-.S ~ X.X.;.i.v.L.U.U.U.U.U.E.[.I.I w i z b b b b b b b b b b b b b b b b c ] I.[.W.U.U.U.U.U.L.v.t.^ Z T { $.S. XU.U.U.",
"U.U.U.c.-.S ~ X.X.X.;.i.c.L.U.U.U.U.U.E.}.I.Y e p z b b b b b b b b b b b b b b v ] I.}.W.U.U.U.U.U.L.v.t.( Z T } X.$.S. XU.U.U.",
"U.U.U.c.-.S ~ X.X.X.X.;.i.c.L.U.U.U.U.U.E.[.I.n @ * 1 1 1 1 1 1 1 1 1 1 1 1 1 1 Z L.}.W.U.U.U.U.U.L.v.t.^ Z T } X.X.$.S. XU.U.U.",
"U.U.U.c.-.S ~ X.X.X.X.X.;.i.v.L.U.U.U.U.U.E.}.Z.6   . X X X X X X X X X X .   : x..XW.U.U.U.U.U.L.v.t.^ Z T } X.X.X.$.S. XU.U.U.",
"U.U.U.c.-.S ~ X.X.X.X.X.X.;.i.c.L.U.U.U.U.U.E.[.C.3                         ; k.}.W.U.U.U.U.U.L.v.t.( Z T { X.X.X.X.$.S. XU.U.U.",
"U.U.U.c.-.S ~ X.X.X.X.X.X.X.o.w.v.L.U.U.U.U.U.E.}.C.5                     ; x..XW.U.U.U.U.U.L.v.q.Y Z T | X.X.X.X.X.$.S. XU.U.U.",
"U.U.U.c.-.S ~ X.X.X.X.X.X.X.P R w.v.L.U.U.U.U.U.E.[.V.5                 ; k.|.W.U.U.U.U.U.L.v.q.Z k T } X.X.X.X.X.X.$.S. XU.U.U.",
"U.U.U.c.-.S ~ X.X.X.X.X.|  .L v T q.v.L.U.U.U.U.U.E.[.C.5             ; x.|.W.U.U.U.U.U.L.v.q.C e M { | X.X.X.X.X.X.$.S. XU.U.U.",
"U.U.U.c.-.S ~ X.X.X.` x x b s q w d :.v.L.U.U.U.U.U.E.}.V.5         ; x..XW.U.U.U.U.U.L.v.<.t 6 8 a b x x ` X.X.X.X.$.S. XU.U.U.",
"U.U.U.c.-.S ~ X.X.X.E y A J B d f < ; :.N.L.U.U.U.U.U.E.[.C.5     ; x. XW.U.U.U.U.U.L.N.<., + r d B H Z y E X.X.X.X.$.S. XU.U.U.",
"U.U.U.c.-.S ~ X.X.X.E g ! { U n n 4 o & >.N.L.U.U.U.U.U.E.}.B.5 : x..XW.U.U.U.U.U.L.N.<.: o : b n U { ! g E X.X.X.X.$.S. XU.U.U.",
"U.U.U.c.-.S ~ X.X.X.E j { X.P b b 2 . X * ;.v.L.U.U.U.U.U.E.[.F.S.}.W.U.U.U.U.U.L.v.<.: o . 2 b b P X.{ j E X.X.X.X.$.S. XU.U.U.",
"U.U.U.c.-.S ~ X.X.X.E k { X.P b b 2 o   . * ,.v.L.U.U.U.U.U.E.}..XW.U.U.U.U.U.L.v.<.> .   o 2 b b P X.{ k E X.X.X.X.$.S. XU.U.U.",
"U.U.U.c.-.S ~ X.X.X.E k { X.P b b 2 X     o & :.v.L.U.U.U.U.U.T.T.U.U.U.U.U.L.v.<.: o     X 2 b b P X.{ k E X.X.X.X.$.S. XU.U.U.",
"U.U.U.c.-.S ~ X.X.X.E k { X.P b b 2 X       . * :.n.L.U.U.U.U.U.U.U.U.U.U.L.n.<.> .       X 2 b b P X.{ k E X.X.X.X.$.A. XU.U.U.",
"U.U.U.c.-.S / X.X.X.W j { X.P b b 2 X         X * ;.v.L.U.U.U.U.U.U.U.U.K.v.<.> o         X 2 b b P X.{ j W X.X.X.X.$.S. XU.U.U.",
"U.U.U.c...s n F F F z a { X.P b b 2 X           . & t.(.T.U.U.U.U.U.U.U.K.r.< X           X 2 b b P X.{ a z F F F S G k. XU.U.U.",
"U.U.U.c.} y k N N N f u { X.P b b 2 X             : A.{.T.U.U.U.U.U.U.U.!.C.6             X 2 b b P X.{ u f N N N m V g. XU.U.U.",
"U.U.U.c.-.D ) $.o.$.W k { X.P b b 2 X           & h.}.W.U.U.U.U.U.U.U.U.T.].b.3           X 2 b b P X.{ k W $.o.o.o.$.S. XU.U.U.",
"U.U.U.c.-.S ! X.X.X.E k { X.P b b 2 X         & h..XW.U.U.U.U.U.U.U.U.U.U.E.}.b.3         X 2 b b P X.{ k E X.X.X.X.+.A. XU.U.U.",
"U.U.U.c.-.S ~ X.X.X.E k { X.P b b 2 X       & h.}.W.U.U.U.U.U.P.P.U.U.U.U.U.E.[.v.3       X 2 b b P X.{ k E X.X.X.X.$.S. XU.U.U.",
"U.U.U.c.-.S ~ X.X.X.E k { X.P b b 2 o     & h..XW.U.U.U.U.U.L.V.V.L.U.U.U.U.U.E.[.m.3     o 2 b b P X.{ k E X.X.X.X.$.S. XU.U.U.",
"U.U.U.c.-.S ~ X.X.X.E j ` | P b b 2 .   & g.|.W.U.U.U.U.U.L.v.7.5.c.L.U.U.U.U.U.E.[.b.3   . 2 b b P | ` j E X.X.X.X.$.S. XU.U.U.",
"U.U.U.c.-.S ~ X.X.X.E f W { U b n 4   % h.|.W.U.U.U.U.U.L.n.<.1 ; ;.n.L.U.U.U.U.U.E.[.m.3   * v b U { W f E X.X.X.X.$.S. XU.U.U.",
"U.U.U.c.-.S ~ X.X.X.E t B G v i i $ = g..XW.U.U.U.U.U.L.v.<.> . . & ;.v.L.U.U.U.U.U.E.[.v.3 O 0 t v G B t E X.X.X.X.$.S. XU.U.U.",
"U.U.U.c.-.S ~ X.X.X.[ Z B B k y t l h.}.W.U.U.U.U.U.L.N.<.> o     . & ;.N.L.U.U.U.U.U.E.[.m.j 7 9 h C B Z [ X.X.X.X.$.S. XU.U.U.",
"U.U.U.c.-.S ~ X.X.X.X.X.X.X.U v ` K.|.W.U.U.U.U.U.L.N.<.> .         . & ;.v.L.U.U.U.U.U.E.[.L.I e m { X.X.X.X.X.X.X.$.S. XU.U.U.",
"U.U.U.c.-.S ~ X.X.X.X.X.X.X.P ` K.[.W.U.U.U.U.U.L.N.<.> o             o & ;.v.L.U.U.U.U.U.E.[.L.I f L { X.X.X.X.X.X.$.S. XU.U.U.",
"U.U.U.c.-.S ~ X.X.X.X.X.X.| ;.K.}.W.U.U.U.U.U.L.N.<.> .                   % ;.N.L.U.U.U.U.U.E.[.I.' B L { X.X.X.X.X.$.S. XU.U.U.",
"U.U.U.c.-.S ~ X.X.X.X.X.X.9.!.[.W.U.U.U.U.U.K.v.<.> o                     . % ;.v.K.U.U.U.U.U.E.[.R.@.C L [ X.X.X.X.$.S. XU.U.U.",
"U.U.U.c.-.S ~ X.X.X.X.| 8.~.}.W.U.U.U.U.U.L.N.<.< o . X X X X X X X X X X . o & ;.N.L.U.U.U.U.U.E.[.!.@.C L { X.X.X.$.S. XU.U.U.",
"U.U.U.c.-.S ~ X.X.X.| 8.~.}.W.U.U.U.U.U.L.v.q.h # - 1 1 1 1 1 1 1 1 1 1 1 1 1 4 n w.v.L.U.U.U.U.U.W.{.R.@.C L { X.X.$.S. XU.U.U.",
"U.U.U.c.-.S ~ X.X.| 8.~.[.W.U.U.U.U.U.L.v.q.Z e a v b b b b b b b b b b b b b b b R w.v.L.U.U.U.U.U.W.[.Q.@.C L { X.$.S. XU.U.U.",
"U.U.U.c.-.S ~ X.| 8.~.}.W.U.U.U.U.U.L.v.q.Z e a z b b b b b b b b b b b b b b b b b R w.v.L.U.U.U.U.U.W.{.Q.@.C L [ $.S. XU.U.U.",
"U.U.U.c.-.S ~ | 8.~.[.W.U.U.U.U.U.L.v.r.I j N K P P P P P P P P P P P P P P P P P P P X.i.v.L.U.U.U.U.U.W.[.Q.@.C L } S. XU.U.U.",
"U.U.U.c.-.S ! 8.~.}.W.U.U.U.U.U.L.v.r.^ C I { X.X.X.X.X.X.X.X.X.X.X.X.X.X.X.X.X.X.X.X.X.;.i.v.L.U.U.U.U.U.W.{.Q.@.C I Z. XU.U.U.",
"U.U.U.c.-.S :./.}.W.U.U.U.U.U.L.v.r.^ Z I { X.X.X.X.=.-.-.$.%.-.-.%.$.-.-.=.X.X.X.X.X.X.X.;.i.c.L.U.U.U.U.U.W.[.Q.@.S h. XU.U.U.",
"U.U.U.c.*...Y..XW.U.U.U.U.U.L.v.r.( Z I { X.X.X.X.$.q.i.t.-.3.i.i.3.-.t.i.q.$.X.X.X.X.X.X.X.;.u.v.L.U.U.U.U.U.W.{.Q.*.j.{.U.U.U.",
"U.U.U.z.p.U.{.W.U.U.U.U.U.L.v.r.^ Z I { X.X.X.X.X.$.e.a.i.-.6.a.a.6.-.i.a.e.$.X.X.X.X.X.X.X.X.;.i.v.L.U.U.U.U.U.W.[.~.Y.[.U.U.U.",
"U.U.U.G._.}.W.U.U.U.U.U.L.v.r.^ C I { X.X.X.X.X.X.$.e.a.i.-.6.a.a.6.-.i.a.e.$.X.X.X.X.X.X.X.X.X.;.i.v.L.U.U.U.U.U.W.[.oX[.U.U.U.",
"U.U.^.XX}.W.U.U.U.U.U.L.v.t.^ Z I { X.X.X.X.X.X.X.$.e.a.i.-.6.a.a.6.-.i.a.e.$.X.X.X.X.X.X.X.X.X.X.;.i.v.L.U.U.U.U.U.W.[.'.U.U.U.",
"U.U.(.`.W.U.U.U.U.U.L.M.t.( Z I { X.X.X.X.X.X.X.X.$.e.a.i.-.6.a.a.6.-.i.a.e.$.X.X.X.X.X.X.X.X.X.X.X.;.i.M.L.U.U.U.U.U.E.!.U.U.U.",
"U.U.U.U.U.U.U.U.U.P.M.t.( Z I { X.X.X.X.X.X.X.X.X.$.e.a.i.-.4.a.a.4.-.i.a.e.$.X.X.X.X.X.X.X.X.X.X.X.X.;.i.M.P.U.U.U.U.U.U.U.U.U.",
"U.U.U.U.U.U.U.U.L.v.t.) S T } X.X.X.X.X.X.X.X.X.X.%.r.a.i.;.6.a.a.6.;.i.a.r.%.X.X.X.X.X.X.X.X.X.X.X.X.X.:.i.v.L.U.U.U.U.U.U.U.U.",
"U.U.U.U.U.U.U.L.c.d.V.f.g.V.C.C.C.C.C.C.C.C.C.C.C.A.J.P.L.S.F.P.P.F.S.L.P.J.A.C.C.C.C.C.C.C.C.C.C.C.C.C.C.S.d.c.L.U.U.U.U.U.U.U.",
"U.U.U.U.U.U.U.H.v.K.].[.[.[.[.[.[.[.[.[.[.[.[.[.[.[.[.[.[.[.[.[.[.[.[.[.[.[.[.[.[.[.[.[.[.[.[.[.[.[.[.[.[.].K.v.H.U.U.U.U.U.U.U.",
"U.U.U.U.U.U.U.U.U.U.U.U.U.U.U.U.U.U.U.U.U.U.U.U.U.U.U.U.U.U.U.U.U.U.U.U.U.U.U.U.U.U.U.U.U.U.U.U.U.U.U.U.U.U.U.U.U.U.U.U.U.U.U.U.",
"U.U.U.U.U.U.U.U.U.U.U.U.U.U.U.U.U.U.U.U.U.U.U.U.U.U.U.U.U.U.U.U.U.U.U.U.U.U.U.U.U.U.U.U.U.U.U.U.U.U.U.U.U.U.U.U.U.U.U.U.U.U.U.U.",
"U.U.U.U.U.U.U.U.U.U.U.U.U.U.U.U.U.U.U.U.U.U.U.U.U.U.U.U.U.U.U.U.U.U.U.U.U.U.U.U.U.U.U.U.U.U.U.U.U.U.U.U.U.U.U.U.U.U.U.U.U.U.U.U."
};
